<?xml version="1.0" encoding="UTF-8" standalone="no"?><svg xmlns="http://www.w3.org/2000/svg" xmlns:xlink="http://www.w3.org/1999/xlink" contentScriptType="application/ecmascript" contentStyleType="text/css" height="603px" preserveAspectRatio="none" style="width:564px;height:603px;background:#FFFFFF;" version="1.1" viewBox="0 0 564 603" width="564px" zoomAndPan="magnify"><defs><filter height="300%" id="f1twws07o2faf8" width="300%" x="-1" y="-1"><feGaussianBlur result="blurOut" stdDeviation="2.0"/><feColorMatrix in="blurOut" result="blurOut2" type="matrix" values="0 0 0 0 0 0 0 0 0 0 0 0 0 0 0 0 0 0 .4 0"/><feOffset dx="4.0" dy="4.0" in="blurOut2" result="blurOut3"/><feBlend in="SourceGraphic" in2="blurOut3" mode="normal"/></filter></defs><g><!--MD5=[435c65a0bab2a1d04bc88e370aaa4382]
entity OrderRepository--><path d="M6,560 C6,550 68.5,550 68.5,550 C68.5,550 131,550 131,560 L131,586.6094 C131,596.6094 68.5,596.6094 68.5,596.6094 C68.5,596.6094 6,596.6094 6,586.6094 L6,560 " fill="#FFFFFF" filter="url(#f1twws07o2faf8)" style="stroke:#000000;stroke-width:1.5;"/><path d="M6,560 C6,570 68.5,570 68.5,570 C68.5,570 131,570 131,560 " fill="none" style="stroke:#000000;stroke-width:1.5;"/><text fill="#000000" font-family="sans-serif" font-size="14" lengthAdjust="spacing" textLength="105" x="16" y="588.5332">OrderRepository</text><!--MD5=[02c3ccaf14906c81f7b0d47d0408c730]
entity AGVRepository--><path d="M166,560 C166,550 224.5,550 224.5,550 C224.5,550 283,550 283,560 L283,586.6094 C283,596.6094 224.5,596.6094 224.5,596.6094 C224.5,596.6094 166,596.6094 166,586.6094 L166,560 " fill="#FFFFFF" filter="url(#f1twws07o2faf8)" style="stroke:#000000;stroke-width:1.5;"/><path d="M166,560 C166,570 224.5,570 224.5,570 C224.5,570 283,570 283,560 " fill="none" style="stroke:#000000;stroke-width:1.5;"/><text fill="#000000" font-family="sans-serif" font-size="14" lengthAdjust="spacing" textLength="97" x="176" y="588.5332">AGVRepository</text><!--MD5=[efe78678c632159d231cd3be73cfb6aa]
class srv.TcpSrvAgvManager--><rect codeLine="2" fill="#FEFECE" filter="url(#f1twws07o2faf8)" height="75.6719" id="srv.TcpSrvAgvManager" style="stroke:#A80036;stroke-width:1.5;" width="95" x="259" y="7"/><ellipse cx="274" cy="23" fill="#ADD1B2" rx="11" ry="11" style="stroke:#A80036;stroke-width:1.0;"/><path d="M276,19.5 Q276.2031,19 276.4375,18.75 Q276.6719,18.5 276.9375,18.5 Q277.4063,18.5 277.7031,18.7813 Q278,19.0625 278,19.7188 L278,21.2813 Q278,21.9375 277.7188,22.2188 Q277.4375,22.5 277,22.5 Q276.6094,22.5 276.3594,22.3281 Q276.1094,22.1563 276,21.7031 Q275.9531,21.3906 275.7813,21.2188 Q275.4688,20.8906 274.9063,20.7031 Q274.3438,20.5 273.7813,20.5 Q273.0781,20.5 272.4844,20.7813 Q271.9063,21.0625 271.4531,21.6875 Q271,22.3125 271,23.1719 L271,24.0938 Q271,25.125 271.8438,25.8125 Q272.6875,26.5 274.1875,26.5 Q275.0781,26.5 275.7031,26.2969 Q276.0625,26.1875 276.4688,25.8281 Q276.7344,25.625 276.875,25.5625 Q277.0156,25.5 277.1875,25.5 Q277.5156,25.5 277.75,25.7656 Q278,26.0156 278,26.375 Q278,26.7188 277.6563,27.125 Q277.1563,27.7188 276.3594,28.0469 Q275.3125,28.5 274.0313,28.5 Q272.5313,28.5 271.3281,27.9063 Q270.3594,27.4375 269.6719,26.4219 Q269,25.4063 269,24.2031 L269,23.1094 Q269,21.8594 269.5938,20.7656 Q270.2031,19.6719 271.25,19.0938 Q272.3125,18.5 273.5,18.5 Q274.2188,18.5 274.8438,18.75 Q275.4688,19 276,19.5 Z " fill="#000000"/><text fill="#000000" font-family="sans-serif" font-size="12" lengthAdjust="spacing" textLength="63" x="288" y="27.9102">srv.TcpSrvAgvManager</text><line style="stroke:#A80036;stroke-width:1.5;" x1="260" x2="353" y1="39" y2="39"/><line style="stroke:#A80036;stroke-width:1.5;" x1="260" x2="353" y1="47" y2="47"/><ellipse cx="270" cy="58" fill="#84BE84" rx="3" ry="3" style="stroke:#038048;stroke-width:1.0;"/><text fill="#000000" font-family="sans-serif" font-size="11" lengthAdjust="spacing" textLength="52" x="279" y="62.4189">main(args)</text><ellipse cx="270" cy="71.8359" fill="#84BE84" rx="3" ry="3" style="stroke:#038048;stroke-width:1.0;"/><text fill="#000000" font-family="sans-serif" font-size="11" lengthAdjust="spacing" textLength="24" x="279" y="76.2549">run()</text><!--MD5=[54c8cac4b827b515a54c028da6a9b862]
class AutomaticallyAssignOrderToFreeAGVController--><rect codeLine="7" fill="#FEFECE" filter="url(#f1twws07o2faf8)" height="103.3438" id="AutomaticallyAssignOrderToFreeAGVController" style="stroke:#A80036;stroke-width:1.5;" width="289" x="162" y="143"/><ellipse cx="177" cy="159" fill="#ADD1B2" rx="11" ry="11" style="stroke:#A80036;stroke-width:1.0;"/><path d="M179,155.5 Q179.2031,155 179.4375,154.75 Q179.6719,154.5 179.9375,154.5 Q180.4063,154.5 180.7031,154.7813 Q181,155.0625 181,155.7188 L181,157.2813 Q181,157.9375 180.7188,158.2188 Q180.4375,158.5 180,158.5 Q179.6094,158.5 179.3594,158.3281 Q179.1094,158.1563 179,157.7031 Q178.9531,157.3906 178.7813,157.2188 Q178.4688,156.8906 177.9063,156.7031 Q177.3438,156.5 176.7813,156.5 Q176.0781,156.5 175.4844,156.7813 Q174.9063,157.0625 174.4531,157.6875 Q174,158.3125 174,159.1719 L174,160.0938 Q174,161.125 174.8438,161.8125 Q175.6875,162.5 177.1875,162.5 Q178.0781,162.5 178.7031,162.2969 Q179.0625,162.1875 179.4688,161.8281 Q179.7344,161.625 179.875,161.5625 Q180.0156,161.5 180.1875,161.5 Q180.5156,161.5 180.75,161.7656 Q181,162.0156 181,162.375 Q181,162.7188 180.6563,163.125 Q180.1563,163.7188 179.3594,164.0469 Q178.3125,164.5 177.0313,164.5 Q175.5313,164.5 174.3281,163.9063 Q173.3594,163.4375 172.6719,162.4219 Q172,161.4063 172,160.2031 L172,159.1094 Q172,157.8594 172.5938,156.7656 Q173.2031,155.6719 174.25,155.0938 Q175.3125,154.5 176.5,154.5 Q177.2188,154.5 177.8438,154.75 Q178.4688,155 179,155.5 Z " fill="#000000"/><text fill="#000000" font-family="sans-serif" font-size="12" lengthAdjust="spacing" textLength="257" x="191" y="163.9102">AutomaticallyAssignOrderToFreeAGVController</text><line style="stroke:#A80036;stroke-width:1.5;" x1="163" x2="450" y1="175" y2="175"/><line style="stroke:#A80036;stroke-width:1.5;" x1="163" x2="450" y1="183" y2="183"/><ellipse cx="173" cy="194" fill="#84BE84" rx="3" ry="3" style="stroke:#038048;stroke-width:1.0;"/><text fill="#000000" font-family="sans-serif" font-size="11" lengthAdjust="spacing" textLength="103" x="182" y="198.4189">getOrdersToAssign()</text><ellipse cx="173" cy="207.8359" fill="#84BE84" rx="3" ry="3" style="stroke:#038048;stroke-width:1.0;"/><text fill="#000000" font-family="sans-serif" font-size="11" lengthAdjust="spacing" textLength="97" x="182" y="212.2549">getAGVsAvailable()</text><ellipse cx="173" cy="221.6719" fill="#84BE84" rx="3" ry="3" style="stroke:#038048;stroke-width:1.0;"/><text fill="#000000" font-family="sans-serif" font-size="11" lengthAdjust="spacing" textLength="95" x="182" y="226.0908">updateOrder(order)</text><ellipse cx="173" cy="235.5078" fill="#84BE84" rx="3" ry="3" style="stroke:#038048;stroke-width:1.0;"/><text fill="#000000" font-family="sans-serif" font-size="11" lengthAdjust="spacing" textLength="83" x="182" y="239.9268">updateAGV(agv)</text><!--MD5=[e8c189551b7885b999ad7cefb30fc2a3]
class PersistenceContext--><rect codeLine="14" fill="#FEFECE" filter="url(#f1twws07o2faf8)" height="61.8359" id="PersistenceContext" style="stroke:#A80036;stroke-width:1.5;" width="139" x="77" y="306"/><ellipse cx="92" cy="322" fill="#ADD1B2" rx="11" ry="11" style="stroke:#A80036;stroke-width:1.0;"/><path d="M94,318.5 Q94.2031,318 94.4375,317.75 Q94.6719,317.5 94.9375,317.5 Q95.4063,317.5 95.7031,317.7813 Q96,318.0625 96,318.7188 L96,320.2813 Q96,320.9375 95.7188,321.2188 Q95.4375,321.5 95,321.5 Q94.6094,321.5 94.3594,321.3281 Q94.1094,321.1563 94,320.7031 Q93.9531,320.3906 93.7813,320.2188 Q93.4688,319.8906 92.9063,319.7031 Q92.3438,319.5 91.7813,319.5 Q91.0781,319.5 90.4844,319.7813 Q89.9063,320.0625 89.4531,320.6875 Q89,321.3125 89,322.1719 L89,323.0938 Q89,324.125 89.8438,324.8125 Q90.6875,325.5 92.1875,325.5 Q93.0781,325.5 93.7031,325.2969 Q94.0625,325.1875 94.4688,324.8281 Q94.7344,324.625 94.875,324.5625 Q95.0156,324.5 95.1875,324.5 Q95.5156,324.5 95.75,324.7656 Q96,325.0156 96,325.375 Q96,325.7188 95.6563,326.125 Q95.1563,326.7188 94.3594,327.0469 Q93.3125,327.5 92.0313,327.5 Q90.5313,327.5 89.3281,326.9063 Q88.3594,326.4375 87.6719,325.4219 Q87,324.4063 87,323.2031 L87,322.1094 Q87,320.8594 87.5938,319.7656 Q88.2031,318.6719 89.25,318.0938 Q90.3125,317.5 91.5,317.5 Q92.2188,317.5 92.8438,317.75 Q93.4688,318 94,318.5 Z " fill="#000000"/><text fill="#000000" font-family="sans-serif" font-size="12" lengthAdjust="spacing" textLength="107" x="106" y="326.9102">PersistenceContext</text><line style="stroke:#A80036;stroke-width:1.5;" x1="78" x2="215" y1="338" y2="338"/><line style="stroke:#A80036;stroke-width:1.5;" x1="78" x2="215" y1="346" y2="346"/><ellipse cx="88" cy="357" fill="#84BE84" rx="3" ry="3" style="stroke:#038048;stroke-width:1.0;"/><text fill="#000000" font-family="sans-serif" font-size="11" lengthAdjust="spacing" textLength="65" x="97" y="361.4189">repositories()</text><!--MD5=[48590afff58a68e2fcba47824d6f8a11]
class RepositoryFactory--><rect codeLine="18" fill="#FEFECE" filter="url(#f1twws07o2faf8)" height="61.8359" id="RepositoryFactory" style="stroke:#A80036;stroke-width:1.5;" width="130" x="81.5" y="428"/><ellipse cx="96.5" cy="444" fill="#ADD1B2" rx="11" ry="11" style="stroke:#A80036;stroke-width:1.0;"/><path d="M98.5,440.5 Q98.7031,440 98.9375,439.75 Q99.1719,439.5 99.4375,439.5 Q99.9063,439.5 100.2031,439.7813 Q100.5,440.0625 100.5,440.7188 L100.5,442.2813 Q100.5,442.9375 100.2188,443.2188 Q99.9375,443.5 99.5,443.5 Q99.1094,443.5 98.8594,443.3281 Q98.6094,443.1563 98.5,442.7031 Q98.4531,442.3906 98.2813,442.2188 Q97.9688,441.8906 97.4063,441.7031 Q96.8438,441.5 96.2813,441.5 Q95.5781,441.5 94.9844,441.7813 Q94.4063,442.0625 93.9531,442.6875 Q93.5,443.3125 93.5,444.1719 L93.5,445.0938 Q93.5,446.125 94.3438,446.8125 Q95.1875,447.5 96.6875,447.5 Q97.5781,447.5 98.2031,447.2969 Q98.5625,447.1875 98.9688,446.8281 Q99.2344,446.625 99.375,446.5625 Q99.5156,446.5 99.6875,446.5 Q100.0156,446.5 100.25,446.7656 Q100.5,447.0156 100.5,447.375 Q100.5,447.7188 100.1563,448.125 Q99.6563,448.7188 98.8594,449.0469 Q97.8125,449.5 96.5313,449.5 Q95.0313,449.5 93.8281,448.9063 Q92.8594,448.4375 92.1719,447.4219 Q91.5,446.4063 91.5,445.2031 L91.5,444.1094 Q91.5,442.8594 92.0938,441.7656 Q92.7031,440.6719 93.75,440.0938 Q94.8125,439.5 96,439.5 Q96.7188,439.5 97.3438,439.75 Q97.9688,440 98.5,440.5 Z " fill="#000000"/><text fill="#000000" font-family="sans-serif" font-size="12" lengthAdjust="spacing" textLength="98" x="110.5" y="448.9102">RepositoryFactory</text><line style="stroke:#A80036;stroke-width:1.5;" x1="82.5" x2="210.5" y1="460" y2="460"/><line style="stroke:#A80036;stroke-width:1.5;" x1="82.5" x2="210.5" y1="468" y2="468"/><ellipse cx="92.5" cy="479" fill="#84BE84" rx="3" ry="3" style="stroke:#038048;stroke-width:1.0;"/><text fill="#000000" font-family="sans-serif" font-size="11" lengthAdjust="spacing" textLength="39" x="101.5" y="483.4189">create()</text><!--MD5=[a47aae9a185d1ab845eea61ac3f47c15]
class TheOrder--><rect codeLine="28" fill="#FEFECE" filter="url(#f1twws07o2faf8)" height="61.8359" id="TheOrder" style="stroke:#A80036;stroke-width:1.5;" width="110" x="251.5" y="306"/><ellipse cx="278.2" cy="322" fill="#ADD1B2" rx="11" ry="11" style="stroke:#A80036;stroke-width:1.0;"/><path d="M280.2,318.5 Q280.4031,318 280.6375,317.75 Q280.8719,317.5 281.1375,317.5 Q281.6063,317.5 281.9031,317.7813 Q282.2,318.0625 282.2,318.7188 L282.2,320.2813 Q282.2,320.9375 281.9188,321.2188 Q281.6375,321.5 281.2,321.5 Q280.8094,321.5 280.5594,321.3281 Q280.3094,321.1563 280.2,320.7031 Q280.1531,320.3906 279.9813,320.2188 Q279.6688,319.8906 279.1063,319.7031 Q278.5438,319.5 277.9813,319.5 Q277.2781,319.5 276.6844,319.7813 Q276.1063,320.0625 275.6531,320.6875 Q275.2,321.3125 275.2,322.1719 L275.2,323.0938 Q275.2,324.125 276.0438,324.8125 Q276.8875,325.5 278.3875,325.5 Q279.2781,325.5 279.9031,325.2969 Q280.2625,325.1875 280.6688,324.8281 Q280.9344,324.625 281.075,324.5625 Q281.2156,324.5 281.3875,324.5 Q281.7156,324.5 281.95,324.7656 Q282.2,325.0156 282.2,325.375 Q282.2,325.7188 281.8563,326.125 Q281.3563,326.7188 280.5594,327.0469 Q279.5125,327.5 278.2313,327.5 Q276.7313,327.5 275.5281,326.9063 Q274.5594,326.4375 273.8719,325.4219 Q273.2,324.4063 273.2,323.2031 L273.2,322.1094 Q273.2,320.8594 273.7938,319.7656 Q274.4031,318.6719 275.45,318.0938 Q276.5125,317.5 277.7,317.5 Q278.4188,317.5 279.0438,317.75 Q279.6688,318 280.2,318.5 Z " fill="#000000"/><text fill="#000000" font-family="sans-serif" font-size="12" lengthAdjust="spacing" textLength="52" x="294.8" y="326.9102">TheOrder</text><line style="stroke:#A80036;stroke-width:1.5;" x1="252.5" x2="360.5" y1="338" y2="338"/><line style="stroke:#A80036;stroke-width:1.5;" x1="252.5" x2="360.5" y1="346" y2="346"/><ellipse cx="262.5" cy="357" fill="#84BE84" rx="3" ry="3" style="stroke:#038048;stroke-width:1.0;"/><text fill="#000000" font-family="sans-serif" font-size="11" lengthAdjust="spacing" textLength="84" x="271.5" y="361.4189">setStatus(status)</text><!--MD5=[53b2c06ade5903185ca3326dce80e141]
class AGV--><rect codeLine="32" fill="#FEFECE" filter="url(#f1twws07o2faf8)" height="61.8359" id="AGV" style="stroke:#A80036;stroke-width:1.5;" width="154" x="396.5" y="306"/><ellipse cx="457.75" cy="322" fill="#ADD1B2" rx="11" ry="11" style="stroke:#A80036;stroke-width:1.0;"/><path d="M459.75,318.5 Q459.9531,318 460.1875,317.75 Q460.4219,317.5 460.6875,317.5 Q461.1563,317.5 461.4531,317.7813 Q461.75,318.0625 461.75,318.7188 L461.75,320.2813 Q461.75,320.9375 461.4688,321.2188 Q461.1875,321.5 460.75,321.5 Q460.3594,321.5 460.1094,321.3281 Q459.8594,321.1563 459.75,320.7031 Q459.7031,320.3906 459.5313,320.2188 Q459.2188,319.8906 458.6563,319.7031 Q458.0938,319.5 457.5313,319.5 Q456.8281,319.5 456.2344,319.7813 Q455.6563,320.0625 455.2031,320.6875 Q454.75,321.3125 454.75,322.1719 L454.75,323.0938 Q454.75,324.125 455.5938,324.8125 Q456.4375,325.5 457.9375,325.5 Q458.8281,325.5 459.4531,325.2969 Q459.8125,325.1875 460.2188,324.8281 Q460.4844,324.625 460.625,324.5625 Q460.7656,324.5 460.9375,324.5 Q461.2656,324.5 461.5,324.7656 Q461.75,325.0156 461.75,325.375 Q461.75,325.7188 461.4063,326.125 Q460.9063,326.7188 460.1094,327.0469 Q459.0625,327.5 457.7813,327.5 Q456.2813,327.5 455.0781,326.9063 Q454.1094,326.4375 453.4219,325.4219 Q452.75,324.4063 452.75,323.2031 L452.75,322.1094 Q452.75,320.8594 453.3438,319.7656 Q453.9531,318.6719 455,318.0938 Q456.0625,317.5 457.25,317.5 Q457.9688,317.5 458.5938,317.75 Q459.2188,318 459.75,318.5 Z " fill="#000000"/><text fill="#000000" font-family="sans-serif" font-size="12" lengthAdjust="spacing" textLength="23" x="478.25" y="326.9102">AGV</text><line style="stroke:#A80036;stroke-width:1.5;" x1="397.5" x2="549.5" y1="338" y2="338"/><line style="stroke:#A80036;stroke-width:1.5;" x1="397.5" x2="549.5" y1="346" y2="346"/><ellipse cx="407.5" cy="357" fill="#84BE84" rx="3" ry="3" style="stroke:#038048;stroke-width:1.0;"/><text fill="#000000" font-family="sans-serif" font-size="11" lengthAdjust="spacing" textLength="128" x="416.5" y="361.4189">setTaskStatus(taskStatus)</text><!--MD5=[b14633ee0d7b14f837dcbcedc5c4696b]
link srv.TcpSrvAgvManager to AutomaticallyAssignOrderToFreeAGVController--><path codeLine="36" d="M306.5,83.22 C306.5,99.76 306.5,119.57 306.5,137.82 " fill="none" id="srv.TcpSrvAgvManager-to-AutomaticallyAssignOrderToFreeAGVController" style="stroke:#A80036;stroke-width:1.0;"/><polygon fill="#A80036" points="306.5,142.92,310.5,133.92,306.5,137.92,302.5,133.92,306.5,142.92" style="stroke:#A80036;stroke-width:1.0;"/><!--MD5=[4e88cd7701a989f9d47e1fc0d34b5ea7]
link AutomaticallyAssignOrderToFreeAGVController to PersistenceContext--><path codeLine="38" d="M248.74,246.22 C227.42,264.94 203.82,285.67 184.67,302.48 " fill="none" id="AutomaticallyAssignOrderToFreeAGVController-to-PersistenceContext" style="stroke:#A80036;stroke-width:1.0;"/><polygon fill="#A80036" points="180.9,305.79,190.3017,302.8561,184.6567,302.4904,185.0224,296.8454,180.9,305.79" style="stroke:#A80036;stroke-width:1.0;"/><!--MD5=[754b775031405e096442b27febffa290]
link PersistenceContext to RepositoryFactory--><path codeLine="40" d="M146.5,368.28 C146.5,384.77 146.5,405.26 146.5,422.49 " fill="none" id="PersistenceContext-to-RepositoryFactory" style="stroke:#A80036;stroke-width:1.0;"/><polygon fill="#A80036" points="146.5,427.73,150.5,418.73,146.5,422.73,142.5,418.73,146.5,427.73" style="stroke:#A80036;stroke-width:1.0;"/><!--MD5=[4961dc0a1f38b4bb8bde6c7779428d74]
link RepositoryFactory to OrderRepository--><path codeLine="42" d="M125.6,490.15 C113.62,507.43 98.71,528.93 87.13,545.63 " fill="none" id="RepositoryFactory-to-OrderRepository" style="stroke:#A80036;stroke-width:1.0;"/><polygon fill="#A80036" points="84.26,549.77,92.679,544.6593,87.112,545.6632,86.1081,540.0961,84.26,549.77" style="stroke:#A80036;stroke-width:1.0;"/><!--MD5=[d05eaea78b8765320ad56e3795dd7d42]
link RepositoryFactory to AGVRepository--><path codeLine="43" d="M167.4,490.15 C179.38,507.43 194.29,528.93 205.87,545.63 " fill="none" id="RepositoryFactory-to-AGVRepository" style="stroke:#A80036;stroke-width:1.0;"/><polygon fill="#A80036" points="208.74,549.77,206.8919,540.0961,205.888,545.6632,200.321,544.6593,208.74,549.77" style="stroke:#A80036;stroke-width:1.0;"/><!--MD5=[2cb02dff4d8b371c0f2caf4c07ba109b]
link AutomaticallyAssignOrderToFreeAGVController to TheOrder--><path codeLine="45" d="M306.5,246.22 C306.5,264.32 306.5,284.29 306.5,300.79 " fill="none" id="AutomaticallyAssignOrderToFreeAGVController-to-TheOrder" style="stroke:#A80036;stroke-width:1.0;"/><polygon fill="#A80036" points="306.5,305.79,310.5,296.79,306.5,300.79,302.5,296.79,306.5,305.79" style="stroke:#A80036;stroke-width:1.0;"/><!--MD5=[3c570df852116bf0d0abdb752b57006a]
link AutomaticallyAssignOrderToFreeAGVController to AGV--><path codeLine="46" d="M366.79,246.22 C389.04,264.94 413.67,285.67 433.66,302.48 " fill="none" id="AutomaticallyAssignOrderToFreeAGVController-to-AGV" style="stroke:#A80036;stroke-width:1.0;"/><polygon fill="#A80036" points="437.6,305.79,433.3148,296.9223,433.7836,302.5596,428.1462,303.0285,437.6,305.79" style="stroke:#A80036;stroke-width:1.0;"/><!--MD5=[81dfd24ec5e77b71870510b5a5c9245b]
@startuml

class srv.TcpSrvAgvManager{
+main(args)
+run()
}

class AutomaticallyAssignOrderToFreeAGVController{
+getOrdersToAssign()
+getAGVsAvailable()
+updateOrder(order)
+updateAGV(agv)
}

class PersistenceContext{
+repositories()
}

class RepositoryFactory{
+create()
}

database OrderRepository{
}

database AGVRepository{
}

class TheOrder{
+setStatus(status)
}

class AGV{
+setTaskStatus(taskStatus)
}

srv.TcpSrvAgvManager - -> AutomaticallyAssignOrderToFreeAGVController

AutomaticallyAssignOrderToFreeAGVController - -> PersistenceContext

PersistenceContext - -> RepositoryFactory

RepositoryFactory - -> OrderRepository
RepositoryFactory - -> AGVRepository

AutomaticallyAssignOrderToFreeAGVController - -> TheOrder
AutomaticallyAssignOrderToFreeAGVController - -> AGV

@enduml

PlantUML version 1.2021.11(Sat Oct 02 14:26:11 BST 2021)
(GPL source distribution)
Java Runtime: OpenJDK Runtime Environment
JVM: OpenJDK 64-Bit Server VM
Default Encoding: Cp1252
Language: pt
Country: PT
--></g></svg>