<?xml version="1.0" encoding="UTF-8" standalone="no"?><svg xmlns="http://www.w3.org/2000/svg" xmlns:xlink="http://www.w3.org/1999/xlink" contentScriptType="application/ecmascript" contentStyleType="text/css" height="603px" preserveAspectRatio="none" style="width:757px;height:603px;background:#FFFFFF;" version="1.1" viewBox="0 0 757 603" width="757px" zoomAndPan="magnify"><defs><filter height="300%" id="f1nowx1v60wg79" width="300%" x="-1" y="-1"><feGaussianBlur result="blurOut" stdDeviation="2.0"/><feColorMatrix in="blurOut" result="blurOut2" type="matrix" values="0 0 0 0 0 0 0 0 0 0 0 0 0 0 0 0 0 0 .4 0"/><feOffset dx="4.0" dy="4.0" in="blurOut2" result="blurOut3"/><feBlend in="SourceGraphic" in2="blurOut3" mode="normal"/></filter></defs><g><!--MD5=[435c65a0bab2a1d04bc88e370aaa4382]
entity OrderRepository--><path d="M6,560 C6,550 68.5,550 68.5,550 C68.5,550 131,550 131,560 L131,586.6094 C131,596.6094 68.5,596.6094 68.5,596.6094 C68.5,596.6094 6,596.6094 6,586.6094 L6,560 " fill="#FFFFFF" filter="url(#f1nowx1v60wg79)" style="stroke:#000000;stroke-width:1.5;"/><path d="M6,560 C6,570 68.5,570 68.5,570 C68.5,570 131,570 131,560 " fill="none" style="stroke:#000000;stroke-width:1.5;"/><text fill="#000000" font-family="sans-serif" font-size="14" lengthAdjust="spacing" textLength="105" x="16" y="588.5332">OrderRepository</text><!--MD5=[02c3ccaf14906c81f7b0d47d0408c730]
entity AGVRepository--><path d="M166,560 C166,550 224.5,550 224.5,550 C224.5,550 283,550 283,560 L283,586.6094 C283,596.6094 224.5,596.6094 224.5,596.6094 C224.5,596.6094 166,596.6094 166,586.6094 L166,560 " fill="#FFFFFF" filter="url(#f1nowx1v60wg79)" style="stroke:#000000;stroke-width:1.5;"/><path d="M166,560 C166,570 224.5,570 224.5,570 C224.5,570 283,570 283,560 " fill="none" style="stroke:#000000;stroke-width:1.5;"/><text fill="#000000" font-family="sans-serif" font-size="14" lengthAdjust="spacing" textLength="97" x="176" y="588.5332">AGVRepository</text><!--MD5=[4796114f7023b488b818675d85ea7191]
entity TaskRepository--><path d="M318,560 C318,550 377.5,550 377.5,550 C377.5,550 437,550 437,560 L437,586.6094 C437,596.6094 377.5,596.6094 377.5,596.6094 C377.5,596.6094 318,596.6094 318,586.6094 L318,560 " fill="#FFFFFF" filter="url(#f1nowx1v60wg79)" style="stroke:#000000;stroke-width:1.5;"/><path d="M318,560 C318,570 377.5,570 377.5,570 C377.5,570 437,570 437,560 " fill="none" style="stroke:#000000;stroke-width:1.5;"/><text fill="#000000" font-family="sans-serif" font-size="14" lengthAdjust="spacing" textLength="99" x="328" y="588.5332">TaskRepository</text><!--MD5=[efe78678c632159d231cd3be73cfb6aa]
class TcpSrvSum--><rect codeLine="2" fill="#FEFECE" filter="url(#f1nowx1v60wg79)" height="75.6719" id="TcpSrvSum" style="stroke:#A80036;stroke-width:1.5;" width="95" x="420" y="7"/><ellipse cx="435" cy="23" fill="#ADD1B2" rx="11" ry="11" style="stroke:#A80036;stroke-width:1.0;"/><path d="M437,19.5 Q437.2031,19 437.4375,18.75 Q437.6719,18.5 437.9375,18.5 Q438.4063,18.5 438.7031,18.7813 Q439,19.0625 439,19.7188 L439,21.2813 Q439,21.9375 438.7188,22.2188 Q438.4375,22.5 438,22.5 Q437.6094,22.5 437.3594,22.3281 Q437.1094,22.1563 437,21.7031 Q436.9531,21.3906 436.7813,21.2188 Q436.4688,20.8906 435.9063,20.7031 Q435.3438,20.5 434.7813,20.5 Q434.0781,20.5 433.4844,20.7813 Q432.9063,21.0625 432.4531,21.6875 Q432,22.3125 432,23.1719 L432,24.0938 Q432,25.125 432.8438,25.8125 Q433.6875,26.5 435.1875,26.5 Q436.0781,26.5 436.7031,26.2969 Q437.0625,26.1875 437.4688,25.8281 Q437.7344,25.625 437.875,25.5625 Q438.0156,25.5 438.1875,25.5 Q438.5156,25.5 438.75,25.7656 Q439,26.0156 439,26.375 Q439,26.7188 438.6563,27.125 Q438.1563,27.7188 437.3594,28.0469 Q436.3125,28.5 435.0313,28.5 Q433.5313,28.5 432.3281,27.9063 Q431.3594,27.4375 430.6719,26.4219 Q430,25.4063 430,24.2031 L430,23.1094 Q430,21.8594 430.5938,20.7656 Q431.2031,19.6719 432.25,19.0938 Q433.3125,18.5 434.5,18.5 Q435.2188,18.5 435.8438,18.75 Q436.4688,19 437,19.5 Z " fill="#000000"/><text fill="#000000" font-family="sans-serif" font-size="12" lengthAdjust="spacing" textLength="63" x="449" y="27.9102">TcpSrvSum</text><line style="stroke:#A80036;stroke-width:1.5;" x1="421" x2="514" y1="39" y2="39"/><line style="stroke:#A80036;stroke-width:1.5;" x1="421" x2="514" y1="47" y2="47"/><ellipse cx="431" cy="58" fill="#84BE84" rx="3" ry="3" style="stroke:#038048;stroke-width:1.0;"/><text fill="#000000" font-family="sans-serif" font-size="11" lengthAdjust="spacing" textLength="52" x="440" y="62.4189">main(args)</text><ellipse cx="431" cy="71.8359" fill="#84BE84" rx="3" ry="3" style="stroke:#038048;stroke-width:1.0;"/><text fill="#000000" font-family="sans-serif" font-size="11" lengthAdjust="spacing" textLength="24" x="440" y="76.2549">run()</text><!--MD5=[54c8cac4b827b515a54c028da6a9b862]
class AutomaticallyAssignOrderToFreeAGVController--><rect codeLine="7" fill="#FEFECE" filter="url(#f1nowx1v60wg79)" height="103.3438" id="AutomaticallyAssignOrderToFreeAGVController" style="stroke:#A80036;stroke-width:1.5;" width="289" x="323" y="143"/><ellipse cx="338" cy="159" fill="#ADD1B2" rx="11" ry="11" style="stroke:#A80036;stroke-width:1.0;"/><path d="M340,155.5 Q340.2031,155 340.4375,154.75 Q340.6719,154.5 340.9375,154.5 Q341.4063,154.5 341.7031,154.7813 Q342,155.0625 342,155.7188 L342,157.2813 Q342,157.9375 341.7188,158.2188 Q341.4375,158.5 341,158.5 Q340.6094,158.5 340.3594,158.3281 Q340.1094,158.1563 340,157.7031 Q339.9531,157.3906 339.7813,157.2188 Q339.4688,156.8906 338.9063,156.7031 Q338.3438,156.5 337.7813,156.5 Q337.0781,156.5 336.4844,156.7813 Q335.9063,157.0625 335.4531,157.6875 Q335,158.3125 335,159.1719 L335,160.0938 Q335,161.125 335.8438,161.8125 Q336.6875,162.5 338.1875,162.5 Q339.0781,162.5 339.7031,162.2969 Q340.0625,162.1875 340.4688,161.8281 Q340.7344,161.625 340.875,161.5625 Q341.0156,161.5 341.1875,161.5 Q341.5156,161.5 341.75,161.7656 Q342,162.0156 342,162.375 Q342,162.7188 341.6563,163.125 Q341.1563,163.7188 340.3594,164.0469 Q339.3125,164.5 338.0313,164.5 Q336.5313,164.5 335.3281,163.9063 Q334.3594,163.4375 333.6719,162.4219 Q333,161.4063 333,160.2031 L333,159.1094 Q333,157.8594 333.5938,156.7656 Q334.2031,155.6719 335.25,155.0938 Q336.3125,154.5 337.5,154.5 Q338.2188,154.5 338.8438,154.75 Q339.4688,155 340,155.5 Z " fill="#000000"/><text fill="#000000" font-family="sans-serif" font-size="12" lengthAdjust="spacing" textLength="257" x="352" y="163.9102">AutomaticallyAssignOrderToFreeAGVController</text><line style="stroke:#A80036;stroke-width:1.5;" x1="324" x2="611" y1="175" y2="175"/><line style="stroke:#A80036;stroke-width:1.5;" x1="324" x2="611" y1="183" y2="183"/><ellipse cx="334" cy="194" fill="#84BE84" rx="3" ry="3" style="stroke:#038048;stroke-width:1.0;"/><text fill="#000000" font-family="sans-serif" font-size="11" lengthAdjust="spacing" textLength="103" x="343" y="198.4189">getOrdersToAssign()</text><ellipse cx="334" cy="207.8359" fill="#84BE84" rx="3" ry="3" style="stroke:#038048;stroke-width:1.0;"/><text fill="#000000" font-family="sans-serif" font-size="11" lengthAdjust="spacing" textLength="97" x="343" y="212.2549">getAGVsAvailable()</text><ellipse cx="334" cy="221.6719" fill="#84BE84" rx="3" ry="3" style="stroke:#038048;stroke-width:1.0;"/><text fill="#000000" font-family="sans-serif" font-size="11" lengthAdjust="spacing" textLength="95" x="343" y="226.0908">updateOrder(order)</text><ellipse cx="334" cy="235.5078" fill="#84BE84" rx="3" ry="3" style="stroke:#038048;stroke-width:1.0;"/><text fill="#000000" font-family="sans-serif" font-size="11" lengthAdjust="spacing" textLength="83" x="343" y="239.9268">updateAGV(agv)</text><!--MD5=[e8c189551b7885b999ad7cefb30fc2a3]
class PersistenceContext--><rect codeLine="14" fill="#FEFECE" filter="url(#f1nowx1v60wg79)" height="61.8359" id="PersistenceContext" style="stroke:#A80036;stroke-width:1.5;" width="139" x="155" y="306"/><ellipse cx="170" cy="322" fill="#ADD1B2" rx="11" ry="11" style="stroke:#A80036;stroke-width:1.0;"/><path d="M172,318.5 Q172.2031,318 172.4375,317.75 Q172.6719,317.5 172.9375,317.5 Q173.4063,317.5 173.7031,317.7813 Q174,318.0625 174,318.7188 L174,320.2813 Q174,320.9375 173.7188,321.2188 Q173.4375,321.5 173,321.5 Q172.6094,321.5 172.3594,321.3281 Q172.1094,321.1563 172,320.7031 Q171.9531,320.3906 171.7813,320.2188 Q171.4688,319.8906 170.9063,319.7031 Q170.3438,319.5 169.7813,319.5 Q169.0781,319.5 168.4844,319.7813 Q167.9063,320.0625 167.4531,320.6875 Q167,321.3125 167,322.1719 L167,323.0938 Q167,324.125 167.8438,324.8125 Q168.6875,325.5 170.1875,325.5 Q171.0781,325.5 171.7031,325.2969 Q172.0625,325.1875 172.4688,324.8281 Q172.7344,324.625 172.875,324.5625 Q173.0156,324.5 173.1875,324.5 Q173.5156,324.5 173.75,324.7656 Q174,325.0156 174,325.375 Q174,325.7188 173.6563,326.125 Q173.1563,326.7188 172.3594,327.0469 Q171.3125,327.5 170.0313,327.5 Q168.5313,327.5 167.3281,326.9063 Q166.3594,326.4375 165.6719,325.4219 Q165,324.4063 165,323.2031 L165,322.1094 Q165,320.8594 165.5938,319.7656 Q166.2031,318.6719 167.25,318.0938 Q168.3125,317.5 169.5,317.5 Q170.2188,317.5 170.8438,317.75 Q171.4688,318 172,318.5 Z " fill="#000000"/><text fill="#000000" font-family="sans-serif" font-size="12" lengthAdjust="spacing" textLength="107" x="184" y="326.9102">PersistenceContext</text><line style="stroke:#A80036;stroke-width:1.5;" x1="156" x2="293" y1="338" y2="338"/><line style="stroke:#A80036;stroke-width:1.5;" x1="156" x2="293" y1="346" y2="346"/><ellipse cx="166" cy="357" fill="#84BE84" rx="3" ry="3" style="stroke:#038048;stroke-width:1.0;"/><text fill="#000000" font-family="sans-serif" font-size="11" lengthAdjust="spacing" textLength="65" x="175" y="361.4189">repositories()</text><!--MD5=[48590afff58a68e2fcba47824d6f8a11]
class RepositoryFactory--><rect codeLine="18" fill="#FEFECE" filter="url(#f1nowx1v60wg79)" height="61.8359" id="RepositoryFactory" style="stroke:#A80036;stroke-width:1.5;" width="130" x="159.5" y="428"/><ellipse cx="174.5" cy="444" fill="#ADD1B2" rx="11" ry="11" style="stroke:#A80036;stroke-width:1.0;"/><path d="M176.5,440.5 Q176.7031,440 176.9375,439.75 Q177.1719,439.5 177.4375,439.5 Q177.9063,439.5 178.2031,439.7813 Q178.5,440.0625 178.5,440.7188 L178.5,442.2813 Q178.5,442.9375 178.2188,443.2188 Q177.9375,443.5 177.5,443.5 Q177.1094,443.5 176.8594,443.3281 Q176.6094,443.1563 176.5,442.7031 Q176.4531,442.3906 176.2813,442.2188 Q175.9688,441.8906 175.4063,441.7031 Q174.8438,441.5 174.2813,441.5 Q173.5781,441.5 172.9844,441.7813 Q172.4063,442.0625 171.9531,442.6875 Q171.5,443.3125 171.5,444.1719 L171.5,445.0938 Q171.5,446.125 172.3438,446.8125 Q173.1875,447.5 174.6875,447.5 Q175.5781,447.5 176.2031,447.2969 Q176.5625,447.1875 176.9688,446.8281 Q177.2344,446.625 177.375,446.5625 Q177.5156,446.5 177.6875,446.5 Q178.0156,446.5 178.25,446.7656 Q178.5,447.0156 178.5,447.375 Q178.5,447.7188 178.1563,448.125 Q177.6563,448.7188 176.8594,449.0469 Q175.8125,449.5 174.5313,449.5 Q173.0313,449.5 171.8281,448.9063 Q170.8594,448.4375 170.1719,447.4219 Q169.5,446.4063 169.5,445.2031 L169.5,444.1094 Q169.5,442.8594 170.0938,441.7656 Q170.7031,440.6719 171.75,440.0938 Q172.8125,439.5 174,439.5 Q174.7188,439.5 175.3438,439.75 Q175.9688,440 176.5,440.5 Z " fill="#000000"/><text fill="#000000" font-family="sans-serif" font-size="12" lengthAdjust="spacing" textLength="98" x="188.5" y="448.9102">RepositoryFactory</text><line style="stroke:#A80036;stroke-width:1.5;" x1="160.5" x2="288.5" y1="460" y2="460"/><line style="stroke:#A80036;stroke-width:1.5;" x1="160.5" x2="288.5" y1="468" y2="468"/><ellipse cx="170.5" cy="479" fill="#84BE84" rx="3" ry="3" style="stroke:#038048;stroke-width:1.0;"/><text fill="#000000" font-family="sans-serif" font-size="11" lengthAdjust="spacing" textLength="39" x="179.5" y="483.4189">create()</text><!--MD5=[a47aae9a185d1ab845eea61ac3f47c15]
class TheOrder--><rect codeLine="31" fill="#FEFECE" filter="url(#f1nowx1v60wg79)" height="61.8359" id="TheOrder" style="stroke:#A80036;stroke-width:1.5;" width="110" x="329.5" y="306"/><ellipse cx="356.2" cy="322" fill="#ADD1B2" rx="11" ry="11" style="stroke:#A80036;stroke-width:1.0;"/><path d="M358.2,318.5 Q358.4031,318 358.6375,317.75 Q358.8719,317.5 359.1375,317.5 Q359.6063,317.5 359.9031,317.7813 Q360.2,318.0625 360.2,318.7188 L360.2,320.2813 Q360.2,320.9375 359.9188,321.2188 Q359.6375,321.5 359.2,321.5 Q358.8094,321.5 358.5594,321.3281 Q358.3094,321.1563 358.2,320.7031 Q358.1531,320.3906 357.9813,320.2188 Q357.6688,319.8906 357.1063,319.7031 Q356.5438,319.5 355.9813,319.5 Q355.2781,319.5 354.6844,319.7813 Q354.1063,320.0625 353.6531,320.6875 Q353.2,321.3125 353.2,322.1719 L353.2,323.0938 Q353.2,324.125 354.0438,324.8125 Q354.8875,325.5 356.3875,325.5 Q357.2781,325.5 357.9031,325.2969 Q358.2625,325.1875 358.6688,324.8281 Q358.9344,324.625 359.075,324.5625 Q359.2156,324.5 359.3875,324.5 Q359.7156,324.5 359.95,324.7656 Q360.2,325.0156 360.2,325.375 Q360.2,325.7188 359.8563,326.125 Q359.3563,326.7188 358.5594,327.0469 Q357.5125,327.5 356.2313,327.5 Q354.7313,327.5 353.5281,326.9063 Q352.5594,326.4375 351.8719,325.4219 Q351.2,324.4063 351.2,323.2031 L351.2,322.1094 Q351.2,320.8594 351.7938,319.7656 Q352.4031,318.6719 353.45,318.0938 Q354.5125,317.5 355.7,317.5 Q356.4188,317.5 357.0438,317.75 Q357.6688,318 358.2,318.5 Z " fill="#000000"/><text fill="#000000" font-family="sans-serif" font-size="12" lengthAdjust="spacing" textLength="52" x="372.8" y="326.9102">TheOrder</text><line style="stroke:#A80036;stroke-width:1.5;" x1="330.5" x2="438.5" y1="338" y2="338"/><line style="stroke:#A80036;stroke-width:1.5;" x1="330.5" x2="438.5" y1="346" y2="346"/><ellipse cx="340.5" cy="357" fill="#84BE84" rx="3" ry="3" style="stroke:#038048;stroke-width:1.0;"/><text fill="#000000" font-family="sans-serif" font-size="11" lengthAdjust="spacing" textLength="84" x="349.5" y="361.4189">setStatus(status)</text><!--MD5=[53b2c06ade5903185ca3326dce80e141]
class AGV--><rect codeLine="35" fill="#FEFECE" filter="url(#f1nowx1v60wg79)" height="61.8359" id="AGV" style="stroke:#A80036;stroke-width:1.5;" width="154" x="474.5" y="306"/><ellipse cx="535.75" cy="322" fill="#ADD1B2" rx="11" ry="11" style="stroke:#A80036;stroke-width:1.0;"/><path d="M537.75,318.5 Q537.9531,318 538.1875,317.75 Q538.4219,317.5 538.6875,317.5 Q539.1563,317.5 539.4531,317.7813 Q539.75,318.0625 539.75,318.7188 L539.75,320.2813 Q539.75,320.9375 539.4688,321.2188 Q539.1875,321.5 538.75,321.5 Q538.3594,321.5 538.1094,321.3281 Q537.8594,321.1563 537.75,320.7031 Q537.7031,320.3906 537.5313,320.2188 Q537.2188,319.8906 536.6563,319.7031 Q536.0938,319.5 535.5313,319.5 Q534.8281,319.5 534.2344,319.7813 Q533.6563,320.0625 533.2031,320.6875 Q532.75,321.3125 532.75,322.1719 L532.75,323.0938 Q532.75,324.125 533.5938,324.8125 Q534.4375,325.5 535.9375,325.5 Q536.8281,325.5 537.4531,325.2969 Q537.8125,325.1875 538.2188,324.8281 Q538.4844,324.625 538.625,324.5625 Q538.7656,324.5 538.9375,324.5 Q539.2656,324.5 539.5,324.7656 Q539.75,325.0156 539.75,325.375 Q539.75,325.7188 539.4063,326.125 Q538.9063,326.7188 538.1094,327.0469 Q537.0625,327.5 535.7813,327.5 Q534.2813,327.5 533.0781,326.9063 Q532.1094,326.4375 531.4219,325.4219 Q530.75,324.4063 530.75,323.2031 L530.75,322.1094 Q530.75,320.8594 531.3438,319.7656 Q531.9531,318.6719 533,318.0938 Q534.0625,317.5 535.25,317.5 Q535.9688,317.5 536.5938,317.75 Q537.2188,318 537.75,318.5 Z " fill="#000000"/><text fill="#000000" font-family="sans-serif" font-size="12" lengthAdjust="spacing" textLength="23" x="556.25" y="326.9102">AGV</text><line style="stroke:#A80036;stroke-width:1.5;" x1="475.5" x2="627.5" y1="338" y2="338"/><line style="stroke:#A80036;stroke-width:1.5;" x1="475.5" x2="627.5" y1="346" y2="346"/><ellipse cx="485.5" cy="357" fill="#84BE84" rx="3" ry="3" style="stroke:#038048;stroke-width:1.0;"/><text fill="#000000" font-family="sans-serif" font-size="11" lengthAdjust="spacing" textLength="128" x="494.5" y="361.4189">setTaskStatus(taskStatus)</text><!--MD5=[1d65eb01825e4bfd50e3fe76bc4aa14f]
class TheTask--><rect codeLine="39" fill="#FEFECE" filter="url(#f1nowx1v60wg79)" height="61.8359" id="TheTask" style="stroke:#A80036;stroke-width:1.5;" width="80" x="663.5" y="306"/><ellipse cx="678.5" cy="322" fill="#ADD1B2" rx="11" ry="11" style="stroke:#A80036;stroke-width:1.0;"/><path d="M680.5,318.5 Q680.7031,318 680.9375,317.75 Q681.1719,317.5 681.4375,317.5 Q681.9063,317.5 682.2031,317.7813 Q682.5,318.0625 682.5,318.7188 L682.5,320.2813 Q682.5,320.9375 682.2188,321.2188 Q681.9375,321.5 681.5,321.5 Q681.1094,321.5 680.8594,321.3281 Q680.6094,321.1563 680.5,320.7031 Q680.4531,320.3906 680.2813,320.2188 Q679.9688,319.8906 679.4063,319.7031 Q678.8438,319.5 678.2813,319.5 Q677.5781,319.5 676.9844,319.7813 Q676.4063,320.0625 675.9531,320.6875 Q675.5,321.3125 675.5,322.1719 L675.5,323.0938 Q675.5,324.125 676.3438,324.8125 Q677.1875,325.5 678.6875,325.5 Q679.5781,325.5 680.2031,325.2969 Q680.5625,325.1875 680.9688,324.8281 Q681.2344,324.625 681.375,324.5625 Q681.5156,324.5 681.6875,324.5 Q682.0156,324.5 682.25,324.7656 Q682.5,325.0156 682.5,325.375 Q682.5,325.7188 682.1563,326.125 Q681.6563,326.7188 680.8594,327.0469 Q679.8125,327.5 678.5313,327.5 Q677.0313,327.5 675.8281,326.9063 Q674.8594,326.4375 674.1719,325.4219 Q673.5,324.4063 673.5,323.2031 L673.5,322.1094 Q673.5,320.8594 674.0938,319.7656 Q674.7031,318.6719 675.75,318.0938 Q676.8125,317.5 678,317.5 Q678.7188,317.5 679.3438,317.75 Q679.9688,318 680.5,318.5 Z " fill="#000000"/><text fill="#000000" font-family="sans-serif" font-size="12" lengthAdjust="spacing" textLength="48" x="692.5" y="326.9102">TheTask</text><line style="stroke:#A80036;stroke-width:1.5;" x1="664.5" x2="742.5" y1="338" y2="338"/><line style="stroke:#A80036;stroke-width:1.5;" x1="664.5" x2="742.5" y1="346" y2="346"/><ellipse cx="674.5" cy="357" fill="#84BE84" rx="3" ry="3" style="stroke:#038048;stroke-width:1.0;"/><text fill="#000000" font-family="sans-serif" font-size="11" lengthAdjust="spacing" textLength="39" x="683.5" y="361.4189">create()</text><!--MD5=[b14633ee0d7b14f837dcbcedc5c4696b]
link TcpSrvSum to AutomaticallyAssignOrderToFreeAGVController--><path codeLine="43" d="M467.5,83.22 C467.5,99.76 467.5,119.57 467.5,137.82 " fill="none" id="TcpSrvSum-to-AutomaticallyAssignOrderToFreeAGVController" style="stroke:#A80036;stroke-width:1.0;"/><polygon fill="#A80036" points="467.5,142.92,471.5,133.92,467.5,137.92,463.5,133.92,467.5,142.92" style="stroke:#A80036;stroke-width:1.0;"/><!--MD5=[4e88cd7701a989f9d47e1fc0d34b5ea7]
link AutomaticallyAssignOrderToFreeAGVController to PersistenceContext--><path codeLine="45" d="M380.11,246.03 C347.18,265.07 310.61,286.21 281.19,303.22 " fill="none" id="AutomaticallyAssignOrderToFreeAGVController-to-PersistenceContext" style="stroke:#A80036;stroke-width:1.0;"/><polygon fill="#A80036" points="276.54,305.91,286.3341,304.8726,280.8697,303.4093,282.333,297.945,276.54,305.91" style="stroke:#A80036;stroke-width:1.0;"/><!--MD5=[754b775031405e096442b27febffa290]
link PersistenceContext to RepositoryFactory--><path codeLine="47" d="M224.5,368.28 C224.5,384.77 224.5,405.26 224.5,422.49 " fill="none" id="PersistenceContext-to-RepositoryFactory" style="stroke:#A80036;stroke-width:1.0;"/><polygon fill="#A80036" points="224.5,427.73,228.5,418.73,224.5,422.73,220.5,418.73,224.5,427.73" style="stroke:#A80036;stroke-width:1.0;"/><!--MD5=[4961dc0a1f38b4bb8bde6c7779428d74]
link RepositoryFactory to OrderRepository--><path codeLine="49" d="M182.69,490.15 C158.23,507.79 127.65,529.84 104.3,546.69 " fill="none" id="RepositoryFactory-to-OrderRepository" style="stroke:#A80036;stroke-width:1.0;"/><polygon fill="#A80036" points="100.02,549.77,109.6586,547.7458,104.0741,546.8436,104.9763,541.2591,100.02,549.77" style="stroke:#A80036;stroke-width:1.0;"/><!--MD5=[d05eaea78b8765320ad56e3795dd7d42]
link RepositoryFactory to AGVRepository--><path codeLine="50" d="M224.5,490.15 C224.5,506.99 224.5,527.84 224.5,544.35 " fill="none" id="RepositoryFactory-to-AGVRepository" style="stroke:#A80036;stroke-width:1.0;"/><polygon fill="#A80036" points="224.5,549.77,228.5,540.77,224.5,544.77,220.5,540.77,224.5,549.77" style="stroke:#A80036;stroke-width:1.0;"/><!--MD5=[8982f41bad9004a09ffb6c14ad72077a]
link RepositoryFactory to TaskRepository--><path codeLine="51" d="M265.5,490.15 C289.5,507.79 319.49,529.84 342.39,546.69 " fill="none" id="RepositoryFactory-to-TaskRepository" style="stroke:#A80036;stroke-width:1.0;"/><polygon fill="#A80036" points="346.58,549.77,341.6918,541.2199,342.5493,546.8113,336.9579,547.6689,346.58,549.77" style="stroke:#A80036;stroke-width:1.0;"/><!--MD5=[2cb02dff4d8b371c0f2caf4c07ba109b]
link AutomaticallyAssignOrderToFreeAGVController to TheOrder--><path codeLine="53" d="M437.54,246.22 C426.75,264.47 414.85,284.63 405.05,301.22 " fill="none" id="AutomaticallyAssignOrderToFreeAGVController-to-TheOrder" style="stroke:#A80036;stroke-width:1.0;"/><polygon fill="#A80036" points="402.34,305.79,410.3642,300.0793,404.8851,301.4862,403.4781,296.0071,402.34,305.79" style="stroke:#A80036;stroke-width:1.0;"/><!--MD5=[3c570df852116bf0d0abdb752b57006a]
link AutomaticallyAssignOrderToFreeAGVController to AGV--><path codeLine="54" d="M497.83,246.22 C508.74,264.47 520.79,284.63 530.7,301.22 " fill="none" id="AutomaticallyAssignOrderToFreeAGVController-to-AGV" style="stroke:#A80036;stroke-width:1.0;"/><polygon fill="#A80036" points="533.44,305.79,532.2539,296.0128,530.8738,301.4988,525.3879,300.1187,533.44,305.79" style="stroke:#A80036;stroke-width:1.0;"/><!--MD5=[6c01c14cdee269e7896296a6ad9fabfc]
link AutomaticallyAssignOrderToFreeAGVController to TheTask--><path codeLine="55" d="M552.37,246.03 C588.39,267.47 628.9,291.58 658.9,309.45 " fill="none" id="AutomaticallyAssignOrderToFreeAGVController-to-TheTask" style="stroke:#A80036;stroke-width:1.0;"/><polygon fill="#A80036" points="663.25,312.04,657.559,304.0018,658.9525,309.4843,653.47,310.8778,663.25,312.04" style="stroke:#A80036;stroke-width:1.0;"/><!--MD5=[096235828219a1489e7f771277f88c5e]
@startuml

class TcpSrvSum{
+main(args)
+run()
}

class AutomaticallyAssignOrderToFreeAGVController{
+getOrdersToAssign()
+getAGVsAvailable()
+updateOrder(order)
+updateAGV(agv)
}

class PersistenceContext{
+repositories()
}

class RepositoryFactory{
+create()
}

database OrderRepository{
}

database AGVRepository{
}

database TaskRepository{
}

class TheOrder{
+setStatus(status)
}

class AGV{
+setTaskStatus(taskStatus)
}

class TheTask{
+create()
}

TcpSrvSum - -> AutomaticallyAssignOrderToFreeAGVController

AutomaticallyAssignOrderToFreeAGVController - -> PersistenceContext

PersistenceContext - -> RepositoryFactory

RepositoryFactory - -> OrderRepository
RepositoryFactory - -> AGVRepository
RepositoryFactory - -> TaskRepository

AutomaticallyAssignOrderToFreeAGVController - -> TheOrder
AutomaticallyAssignOrderToFreeAGVController - -> AGV
AutomaticallyAssignOrderToFreeAGVController - -> TheTask

@enduml

PlantUML version 1.2021.11(Sat Oct 02 14:26:11 BST 2021)
(GPL source distribution)
Java Runtime: OpenJDK Runtime Environment
JVM: OpenJDK 64-Bit Server VM
Default Encoding: Cp1252
Language: pt
Country: PT
--></g></svg>