<?xml version="1.0" encoding="UTF-8" standalone="no"?><svg xmlns="http://www.w3.org/2000/svg" xmlns:xlink="http://www.w3.org/1999/xlink" contentScriptType="application/ecmascript" contentStyleType="text/css" height="453px" preserveAspectRatio="none" style="width:564px;height:453px;background:#FFFFFF;" version="1.1" viewBox="0 0 564 453" width="564px" zoomAndPan="magnify"><defs><filter height="300%" id="fejms9q6s7urb" width="300%" x="-1" y="-1"><feGaussianBlur result="blurOut" stdDeviation="2.0"/><feColorMatrix in="blurOut" result="blurOut2" type="matrix" values="0 0 0 0 0 0 0 0 0 0 0 0 0 0 0 0 0 0 .4 0"/><feOffset dx="4.0" dy="4.0" in="blurOut2" result="blurOut3"/><feBlend in="SourceGraphic" in2="blurOut3" mode="normal"/></filter></defs><g><!--MD5=[435c65a0bab2a1d04bc88e370aaa4382]
entity OrderRepository--><path d="M6,410 C6,400 68.5,400 68.5,400 C68.5,400 131,400 131,410 L131,436.6094 C131,446.6094 68.5,446.6094 68.5,446.6094 C68.5,446.6094 6,446.6094 6,436.6094 L6,410 " fill="#FFFFFF" filter="url(#fejms9q6s7urb)" style="stroke:#000000;stroke-width:1.5;"/><path d="M6,410 C6,420 68.5,420 68.5,420 C68.5,420 131,420 131,410 " fill="none" style="stroke:#000000;stroke-width:1.5;"/><text fill="#000000" font-family="sans-serif" font-size="14" lengthAdjust="spacing" textLength="105" x="16" y="438.5332">OrderRepository</text><!--MD5=[02c3ccaf14906c81f7b0d47d0408c730]
entity AGVRepository--><path d="M166,410 C166,400 224.5,400 224.5,400 C224.5,400 283,400 283,410 L283,436.6094 C283,446.6094 224.5,446.6094 224.5,446.6094 C224.5,446.6094 166,446.6094 166,436.6094 L166,410 " fill="#FFFFFF" filter="url(#fejms9q6s7urb)" style="stroke:#000000;stroke-width:1.5;"/><path d="M166,410 C166,420 224.5,420 224.5,420 C224.5,420 283,420 283,410 " fill="none" style="stroke:#000000;stroke-width:1.5;"/><text fill="#000000" font-family="sans-serif" font-size="14" lengthAdjust="spacing" textLength="97" x="176" y="438.5332">AGVRepository</text><!--MD5=[8a0afc88ac394218901fbe65e4df0a21]
class AutomaticallyAssignOrderToFreeAGVUI--><rect codeLine="2" fill="#FEFECE" filter="url(#fejms9q6s7urb)" height="48" id="AutomaticallyAssignOrderToFreeAGVUI" style="stroke:#A80036;stroke-width:1.5;" width="247" x="183" y="7"/><ellipse cx="198" cy="23" fill="#ADD1B2" rx="11" ry="11" style="stroke:#A80036;stroke-width:1.0;"/><path d="M200,19.5 Q200.2031,19 200.4375,18.75 Q200.6719,18.5 200.9375,18.5 Q201.4063,18.5 201.7031,18.7813 Q202,19.0625 202,19.7188 L202,21.2813 Q202,21.9375 201.7188,22.2188 Q201.4375,22.5 201,22.5 Q200.6094,22.5 200.3594,22.3281 Q200.1094,22.1563 200,21.7031 Q199.9531,21.3906 199.7813,21.2188 Q199.4688,20.8906 198.9063,20.7031 Q198.3438,20.5 197.7813,20.5 Q197.0781,20.5 196.4844,20.7813 Q195.9063,21.0625 195.4531,21.6875 Q195,22.3125 195,23.1719 L195,24.0938 Q195,25.125 195.8438,25.8125 Q196.6875,26.5 198.1875,26.5 Q199.0781,26.5 199.7031,26.2969 Q200.0625,26.1875 200.4688,25.8281 Q200.7344,25.625 200.875,25.5625 Q201.0156,25.5 201.1875,25.5 Q201.5156,25.5 201.75,25.7656 Q202,26.0156 202,26.375 Q202,26.7188 201.6563,27.125 Q201.1563,27.7188 200.3594,28.0469 Q199.3125,28.5 198.0313,28.5 Q196.5313,28.5 195.3281,27.9063 Q194.3594,27.4375 193.6719,26.4219 Q193,25.4063 193,24.2031 L193,23.1094 Q193,21.8594 193.5938,20.7656 Q194.2031,19.6719 195.25,19.0938 Q196.3125,18.5 197.5,18.5 Q198.2188,18.5 198.8438,18.75 Q199.4688,19 200,19.5 Z " fill="#000000"/><text fill="#000000" font-family="sans-serif" font-size="12" lengthAdjust="spacing" textLength="215" x="212" y="27.9102">AutomaticallyAssignOrderToFreeAGVUI</text><line style="stroke:#A80036;stroke-width:1.5;" x1="184" x2="429" y1="39" y2="39"/><line style="stroke:#A80036;stroke-width:1.5;" x1="184" x2="429" y1="47" y2="47"/><!--MD5=[54c8cac4b827b515a54c028da6a9b862]
class AutomaticallyAssignOrderToFreeAGVController--><rect codeLine="5" fill="#FEFECE" filter="url(#fejms9q6s7urb)" height="103.3438" id="AutomaticallyAssignOrderToFreeAGVController" style="stroke:#A80036;stroke-width:1.5;" width="289" x="162" y="115"/><ellipse cx="177" cy="131" fill="#ADD1B2" rx="11" ry="11" style="stroke:#A80036;stroke-width:1.0;"/><path d="M179,127.5 Q179.2031,127 179.4375,126.75 Q179.6719,126.5 179.9375,126.5 Q180.4063,126.5 180.7031,126.7813 Q181,127.0625 181,127.7188 L181,129.2813 Q181,129.9375 180.7188,130.2188 Q180.4375,130.5 180,130.5 Q179.6094,130.5 179.3594,130.3281 Q179.1094,130.1563 179,129.7031 Q178.9531,129.3906 178.7813,129.2188 Q178.4688,128.8906 177.9063,128.7031 Q177.3438,128.5 176.7813,128.5 Q176.0781,128.5 175.4844,128.7813 Q174.9063,129.0625 174.4531,129.6875 Q174,130.3125 174,131.1719 L174,132.0938 Q174,133.125 174.8438,133.8125 Q175.6875,134.5 177.1875,134.5 Q178.0781,134.5 178.7031,134.2969 Q179.0625,134.1875 179.4688,133.8281 Q179.7344,133.625 179.875,133.5625 Q180.0156,133.5 180.1875,133.5 Q180.5156,133.5 180.75,133.7656 Q181,134.0156 181,134.375 Q181,134.7188 180.6563,135.125 Q180.1563,135.7188 179.3594,136.0469 Q178.3125,136.5 177.0313,136.5 Q175.5313,136.5 174.3281,135.9063 Q173.3594,135.4375 172.6719,134.4219 Q172,133.4063 172,132.2031 L172,131.1094 Q172,129.8594 172.5938,128.7656 Q173.2031,127.6719 174.25,127.0938 Q175.3125,126.5 176.5,126.5 Q177.2188,126.5 177.8438,126.75 Q178.4688,127 179,127.5 Z " fill="#000000"/><text fill="#000000" font-family="sans-serif" font-size="12" lengthAdjust="spacing" textLength="257" x="191" y="135.9102">AutomaticallyAssignOrderToFreeAGVController</text><line style="stroke:#A80036;stroke-width:1.5;" x1="163" x2="450" y1="147" y2="147"/><line style="stroke:#A80036;stroke-width:1.5;" x1="163" x2="450" y1="155" y2="155"/><ellipse cx="173" cy="166" fill="#84BE84" rx="3" ry="3" style="stroke:#038048;stroke-width:1.0;"/><text fill="#000000" font-family="sans-serif" font-size="11" lengthAdjust="spacing" textLength="103" x="182" y="170.4189">getOrdersToAssign()</text><ellipse cx="173" cy="179.8359" fill="#84BE84" rx="3" ry="3" style="stroke:#038048;stroke-width:1.0;"/><text fill="#000000" font-family="sans-serif" font-size="11" lengthAdjust="spacing" textLength="97" x="182" y="184.2549">getAGVsAvailable()</text><ellipse cx="173" cy="193.6719" fill="#84BE84" rx="3" ry="3" style="stroke:#038048;stroke-width:1.0;"/><text fill="#000000" font-family="sans-serif" font-size="11" lengthAdjust="spacing" textLength="95" x="182" y="198.0908">updateOrder(order)</text><ellipse cx="173" cy="207.5078" fill="#84BE84" rx="3" ry="3" style="stroke:#038048;stroke-width:1.0;"/><text fill="#000000" font-family="sans-serif" font-size="11" lengthAdjust="spacing" textLength="83" x="182" y="211.9268">updateAGV(agv)</text><!--MD5=[e8c189551b7885b999ad7cefb30fc2a3]
class PersistenceContext--><rect codeLine="12" fill="#FEFECE" filter="url(#fejms9q6s7urb)" height="61.8359" id="PersistenceContext" style="stroke:#A80036;stroke-width:1.5;" width="139" x="77" y="278"/><ellipse cx="92" cy="294" fill="#ADD1B2" rx="11" ry="11" style="stroke:#A80036;stroke-width:1.0;"/><path d="M94,290.5 Q94.2031,290 94.4375,289.75 Q94.6719,289.5 94.9375,289.5 Q95.4063,289.5 95.7031,289.7813 Q96,290.0625 96,290.7188 L96,292.2813 Q96,292.9375 95.7188,293.2188 Q95.4375,293.5 95,293.5 Q94.6094,293.5 94.3594,293.3281 Q94.1094,293.1563 94,292.7031 Q93.9531,292.3906 93.7813,292.2188 Q93.4688,291.8906 92.9063,291.7031 Q92.3438,291.5 91.7813,291.5 Q91.0781,291.5 90.4844,291.7813 Q89.9063,292.0625 89.4531,292.6875 Q89,293.3125 89,294.1719 L89,295.0938 Q89,296.125 89.8438,296.8125 Q90.6875,297.5 92.1875,297.5 Q93.0781,297.5 93.7031,297.2969 Q94.0625,297.1875 94.4688,296.8281 Q94.7344,296.625 94.875,296.5625 Q95.0156,296.5 95.1875,296.5 Q95.5156,296.5 95.75,296.7656 Q96,297.0156 96,297.375 Q96,297.7188 95.6563,298.125 Q95.1563,298.7188 94.3594,299.0469 Q93.3125,299.5 92.0313,299.5 Q90.5313,299.5 89.3281,298.9063 Q88.3594,298.4375 87.6719,297.4219 Q87,296.4063 87,295.2031 L87,294.1094 Q87,292.8594 87.5938,291.7656 Q88.2031,290.6719 89.25,290.0938 Q90.3125,289.5 91.5,289.5 Q92.2188,289.5 92.8438,289.75 Q93.4688,290 94,290.5 Z " fill="#000000"/><text fill="#000000" font-family="sans-serif" font-size="12" lengthAdjust="spacing" textLength="107" x="106" y="298.9102">PersistenceContext</text><line style="stroke:#A80036;stroke-width:1.5;" x1="78" x2="215" y1="310" y2="310"/><line style="stroke:#A80036;stroke-width:1.5;" x1="78" x2="215" y1="318" y2="318"/><ellipse cx="88" cy="329" fill="#84BE84" rx="3" ry="3" style="stroke:#038048;stroke-width:1.0;"/><text fill="#000000" font-family="sans-serif" font-size="11" lengthAdjust="spacing" textLength="65" x="97" y="333.4189">repositories()</text><!--MD5=[a47aae9a185d1ab845eea61ac3f47c15]
class TheOrder--><rect codeLine="22" fill="#FEFECE" filter="url(#fejms9q6s7urb)" height="61.8359" id="TheOrder" style="stroke:#A80036;stroke-width:1.5;" width="110" x="251.5" y="278"/><ellipse cx="278.2" cy="294" fill="#ADD1B2" rx="11" ry="11" style="stroke:#A80036;stroke-width:1.0;"/><path d="M280.2,290.5 Q280.4031,290 280.6375,289.75 Q280.8719,289.5 281.1375,289.5 Q281.6063,289.5 281.9031,289.7813 Q282.2,290.0625 282.2,290.7188 L282.2,292.2813 Q282.2,292.9375 281.9188,293.2188 Q281.6375,293.5 281.2,293.5 Q280.8094,293.5 280.5594,293.3281 Q280.3094,293.1563 280.2,292.7031 Q280.1531,292.3906 279.9813,292.2188 Q279.6688,291.8906 279.1063,291.7031 Q278.5438,291.5 277.9813,291.5 Q277.2781,291.5 276.6844,291.7813 Q276.1063,292.0625 275.6531,292.6875 Q275.2,293.3125 275.2,294.1719 L275.2,295.0938 Q275.2,296.125 276.0438,296.8125 Q276.8875,297.5 278.3875,297.5 Q279.2781,297.5 279.9031,297.2969 Q280.2625,297.1875 280.6688,296.8281 Q280.9344,296.625 281.075,296.5625 Q281.2156,296.5 281.3875,296.5 Q281.7156,296.5 281.95,296.7656 Q282.2,297.0156 282.2,297.375 Q282.2,297.7188 281.8563,298.125 Q281.3563,298.7188 280.5594,299.0469 Q279.5125,299.5 278.2313,299.5 Q276.7313,299.5 275.5281,298.9063 Q274.5594,298.4375 273.8719,297.4219 Q273.2,296.4063 273.2,295.2031 L273.2,294.1094 Q273.2,292.8594 273.7938,291.7656 Q274.4031,290.6719 275.45,290.0938 Q276.5125,289.5 277.7,289.5 Q278.4188,289.5 279.0438,289.75 Q279.6688,290 280.2,290.5 Z " fill="#000000"/><text fill="#000000" font-family="sans-serif" font-size="12" lengthAdjust="spacing" textLength="52" x="294.8" y="298.9102">TheOrder</text><line style="stroke:#A80036;stroke-width:1.5;" x1="252.5" x2="360.5" y1="310" y2="310"/><line style="stroke:#A80036;stroke-width:1.5;" x1="252.5" x2="360.5" y1="318" y2="318"/><ellipse cx="262.5" cy="329" fill="#84BE84" rx="3" ry="3" style="stroke:#038048;stroke-width:1.0;"/><text fill="#000000" font-family="sans-serif" font-size="11" lengthAdjust="spacing" textLength="84" x="271.5" y="333.4189">setStatus(status)</text><!--MD5=[53b2c06ade5903185ca3326dce80e141]
class AGV--><rect codeLine="26" fill="#FEFECE" filter="url(#fejms9q6s7urb)" height="61.8359" id="AGV" style="stroke:#A80036;stroke-width:1.5;" width="154" x="396.5" y="278"/><ellipse cx="457.75" cy="294" fill="#ADD1B2" rx="11" ry="11" style="stroke:#A80036;stroke-width:1.0;"/><path d="M459.75,290.5 Q459.9531,290 460.1875,289.75 Q460.4219,289.5 460.6875,289.5 Q461.1563,289.5 461.4531,289.7813 Q461.75,290.0625 461.75,290.7188 L461.75,292.2813 Q461.75,292.9375 461.4688,293.2188 Q461.1875,293.5 460.75,293.5 Q460.3594,293.5 460.1094,293.3281 Q459.8594,293.1563 459.75,292.7031 Q459.7031,292.3906 459.5313,292.2188 Q459.2188,291.8906 458.6563,291.7031 Q458.0938,291.5 457.5313,291.5 Q456.8281,291.5 456.2344,291.7813 Q455.6563,292.0625 455.2031,292.6875 Q454.75,293.3125 454.75,294.1719 L454.75,295.0938 Q454.75,296.125 455.5938,296.8125 Q456.4375,297.5 457.9375,297.5 Q458.8281,297.5 459.4531,297.2969 Q459.8125,297.1875 460.2188,296.8281 Q460.4844,296.625 460.625,296.5625 Q460.7656,296.5 460.9375,296.5 Q461.2656,296.5 461.5,296.7656 Q461.75,297.0156 461.75,297.375 Q461.75,297.7188 461.4063,298.125 Q460.9063,298.7188 460.1094,299.0469 Q459.0625,299.5 457.7813,299.5 Q456.2813,299.5 455.0781,298.9063 Q454.1094,298.4375 453.4219,297.4219 Q452.75,296.4063 452.75,295.2031 L452.75,294.1094 Q452.75,292.8594 453.3438,291.7656 Q453.9531,290.6719 455,290.0938 Q456.0625,289.5 457.25,289.5 Q457.9688,289.5 458.5938,289.75 Q459.2188,290 459.75,290.5 Z " fill="#000000"/><text fill="#000000" font-family="sans-serif" font-size="12" lengthAdjust="spacing" textLength="23" x="478.25" y="298.9102">AGV</text><line style="stroke:#A80036;stroke-width:1.5;" x1="397.5" x2="549.5" y1="310" y2="310"/><line style="stroke:#A80036;stroke-width:1.5;" x1="397.5" x2="549.5" y1="318" y2="318"/><ellipse cx="407.5" cy="329" fill="#84BE84" rx="3" ry="3" style="stroke:#038048;stroke-width:1.0;"/><text fill="#000000" font-family="sans-serif" font-size="11" lengthAdjust="spacing" textLength="128" x="416.5" y="333.4189">setTaskStatus(taskStatus)</text><!--MD5=[359c1da6cbbbc192a5c2c38e78d07b81]
link AutomaticallyAssignOrderToFreeAGVUI to AutomaticallyAssignOrderToFreeAGVController--><path codeLine="30" d="M306.5,55.25 C306.5,70.28 306.5,90.51 306.5,109.53 " fill="none" id="AutomaticallyAssignOrderToFreeAGVUI-to-AutomaticallyAssignOrderToFreeAGVController" style="stroke:#A80036;stroke-width:1.0;"/><polygon fill="#A80036" points="306.5,114.86,310.5,105.86,306.5,109.86,302.5,105.86,306.5,114.86" style="stroke:#A80036;stroke-width:1.0;"/><!--MD5=[4e88cd7701a989f9d47e1fc0d34b5ea7]
link AutomaticallyAssignOrderToFreeAGVController to PersistenceContext--><path codeLine="32" d="M248.74,218.22 C227.42,236.94 203.82,257.67 184.67,274.48 " fill="none" id="AutomaticallyAssignOrderToFreeAGVController-to-PersistenceContext" style="stroke:#A80036;stroke-width:1.0;"/><polygon fill="#A80036" points="180.9,277.79,190.3017,274.8561,184.6567,274.4904,185.0224,268.8454,180.9,277.79" style="stroke:#A80036;stroke-width:1.0;"/><!--MD5=[5c4a3ed0ccdb276e7182323ed7d53bba]
link PersistenceContext to OrderRepository--><path codeLine="34" d="M125.6,340.15 C113.62,357.43 98.71,378.93 87.13,395.63 " fill="none" id="PersistenceContext-to-OrderRepository" style="stroke:#A80036;stroke-width:1.0;"/><polygon fill="#A80036" points="84.26,399.77,92.679,394.6593,87.112,395.6632,86.1081,390.0961,84.26,399.77" style="stroke:#A80036;stroke-width:1.0;"/><!--MD5=[cb1c82c5b332ac4a77b1ac29a1afc04f]
link PersistenceContext to AGVRepository--><path codeLine="35" d="M167.4,340.15 C179.38,357.43 194.29,378.93 205.87,395.63 " fill="none" id="PersistenceContext-to-AGVRepository" style="stroke:#A80036;stroke-width:1.0;"/><polygon fill="#A80036" points="208.74,399.77,206.8919,390.0961,205.888,395.6632,200.321,394.6593,208.74,399.77" style="stroke:#A80036;stroke-width:1.0;"/><!--MD5=[2cb02dff4d8b371c0f2caf4c07ba109b]
link AutomaticallyAssignOrderToFreeAGVController to TheOrder--><path codeLine="37" d="M306.5,218.22 C306.5,236.32 306.5,256.29 306.5,272.79 " fill="none" id="AutomaticallyAssignOrderToFreeAGVController-to-TheOrder" style="stroke:#A80036;stroke-width:1.0;"/><polygon fill="#A80036" points="306.5,277.79,310.5,268.79,306.5,272.79,302.5,268.79,306.5,277.79" style="stroke:#A80036;stroke-width:1.0;"/><!--MD5=[3c570df852116bf0d0abdb752b57006a]
link AutomaticallyAssignOrderToFreeAGVController to AGV--><path codeLine="38" d="M366.79,218.22 C389.04,236.94 413.67,257.67 433.66,274.48 " fill="none" id="AutomaticallyAssignOrderToFreeAGVController-to-AGV" style="stroke:#A80036;stroke-width:1.0;"/><polygon fill="#A80036" points="437.6,277.79,433.3148,268.9223,433.7836,274.5596,428.1462,275.0285,437.6,277.79" style="stroke:#A80036;stroke-width:1.0;"/><!--MD5=[24ed3fd77beff351fe6c08322509c5f7]
@startuml

class AutomaticallyAssignOrderToFreeAGVUI{
}

class AutomaticallyAssignOrderToFreeAGVController{
+getOrdersToAssign()
+getAGVsAvailable()
+updateOrder(order)
+updateAGV(agv)
}

class PersistenceContext{
+repositories()
}

database OrderRepository{
}

database AGVRepository{
}

class TheOrder{
+setStatus(status)
}

class AGV{
+setTaskStatus(taskStatus)
}

AutomaticallyAssignOrderToFreeAGVUI - -> AutomaticallyAssignOrderToFreeAGVController

AutomaticallyAssignOrderToFreeAGVController - -> PersistenceContext

PersistenceContext - -> OrderRepository
PersistenceContext - -> AGVRepository

AutomaticallyAssignOrderToFreeAGVController - -> TheOrder
AutomaticallyAssignOrderToFreeAGVController - -> AGV

@enduml

PlantUML version 1.2021.11(Sat Oct 02 14:26:11 BST 2021)
(GPL source distribution)
Java Runtime: OpenJDK Runtime Environment
JVM: OpenJDK 64-Bit Server VM
Default Encoding: Cp1252
Language: pt
Country: PT
--></g></svg>