<?xml version="1.0" encoding="UTF-8" standalone="no"?><svg xmlns="http://www.w3.org/2000/svg" xmlns:xlink="http://www.w3.org/1999/xlink" contentScriptType="application/ecmascript" contentStyleType="text/css" height="440px" preserveAspectRatio="none" style="width:757px;height:440px;background:#FFFFFF;" version="1.1" viewBox="0 0 757 440" width="757px" zoomAndPan="magnify"><defs><filter height="300%" id="f1kog856ganfrw" width="300%" x="-1" y="-1"><feGaussianBlur result="blurOut" stdDeviation="2.0"/><feColorMatrix in="blurOut" result="blurOut2" type="matrix" values="0 0 0 0 0 0 0 0 0 0 0 0 0 0 0 0 0 0 .4 0"/><feOffset dx="4.0" dy="4.0" in="blurOut2" result="blurOut3"/><feBlend in="SourceGraphic" in2="blurOut3" mode="normal"/></filter></defs><g><!--MD5=[435c65a0bab2a1d04bc88e370aaa4382]
entity OrderRepository--><path d="M6,397 C6,387 68.5,387 68.5,387 C68.5,387 131,387 131,397 L131,423.6094 C131,433.6094 68.5,433.6094 68.5,433.6094 C68.5,433.6094 6,433.6094 6,423.6094 L6,397 " fill="#FFFFFF" filter="url(#f1kog856ganfrw)" style="stroke:#000000;stroke-width:1.5;"/><path d="M6,397 C6,407 68.5,407 68.5,407 C68.5,407 131,407 131,397 " fill="none" style="stroke:#000000;stroke-width:1.5;"/><text fill="#000000" font-family="sans-serif" font-size="14" lengthAdjust="spacing" textLength="105" x="16" y="425.5332">OrderRepository</text><!--MD5=[02c3ccaf14906c81f7b0d47d0408c730]
entity AGVRepository--><path d="M166,397 C166,387 224.5,387 224.5,387 C224.5,387 283,387 283,397 L283,423.6094 C283,433.6094 224.5,433.6094 224.5,433.6094 C224.5,433.6094 166,433.6094 166,423.6094 L166,397 " fill="#FFFFFF" filter="url(#f1kog856ganfrw)" style="stroke:#000000;stroke-width:1.5;"/><path d="M166,397 C166,407 224.5,407 224.5,407 C224.5,407 283,407 283,397 " fill="none" style="stroke:#000000;stroke-width:1.5;"/><text fill="#000000" font-family="sans-serif" font-size="14" lengthAdjust="spacing" textLength="97" x="176" y="425.5332">AGVRepository</text><!--MD5=[4796114f7023b488b818675d85ea7191]
entity TaskRepository--><path d="M318,397 C318,387 377.5,387 377.5,387 C377.5,387 437,387 437,397 L437,423.6094 C437,433.6094 377.5,433.6094 377.5,433.6094 C377.5,433.6094 318,433.6094 318,423.6094 L318,397 " fill="#FFFFFF" filter="url(#f1kog856ganfrw)" style="stroke:#000000;stroke-width:1.5;"/><path d="M318,397 C318,407 377.5,407 377.5,407 C377.5,407 437,407 437,397 " fill="none" style="stroke:#000000;stroke-width:1.5;"/><text fill="#000000" font-family="sans-serif" font-size="14" lengthAdjust="spacing" textLength="99" x="328" y="425.5332">TaskRepository</text><!--MD5=[ca48ba2b2721fd6e9a002e16be14b362]
class TcpSrvAgvManager--><rect codeLine="2" fill="#FEFECE" filter="url(#f1kog856ganfrw)" height="75.6719" id="TcpSrvAgvManager" style="stroke:#A80036;stroke-width:1.5;" width="136" x="399.5" y="7"/><ellipse cx="414.5" cy="23" fill="#ADD1B2" rx="11" ry="11" style="stroke:#A80036;stroke-width:1.0;"/><path d="M416.5,19.5 Q416.7031,19 416.9375,18.75 Q417.1719,18.5 417.4375,18.5 Q417.9063,18.5 418.2031,18.7813 Q418.5,19.0625 418.5,19.7188 L418.5,21.2813 Q418.5,21.9375 418.2188,22.2188 Q417.9375,22.5 417.5,22.5 Q417.1094,22.5 416.8594,22.3281 Q416.6094,22.1563 416.5,21.7031 Q416.4531,21.3906 416.2813,21.2188 Q415.9688,20.8906 415.4063,20.7031 Q414.8438,20.5 414.2813,20.5 Q413.5781,20.5 412.9844,20.7813 Q412.4063,21.0625 411.9531,21.6875 Q411.5,22.3125 411.5,23.1719 L411.5,24.0938 Q411.5,25.125 412.3438,25.8125 Q413.1875,26.5 414.6875,26.5 Q415.5781,26.5 416.2031,26.2969 Q416.5625,26.1875 416.9688,25.8281 Q417.2344,25.625 417.375,25.5625 Q417.5156,25.5 417.6875,25.5 Q418.0156,25.5 418.25,25.7656 Q418.5,26.0156 418.5,26.375 Q418.5,26.7188 418.1563,27.125 Q417.6563,27.7188 416.8594,28.0469 Q415.8125,28.5 414.5313,28.5 Q413.0313,28.5 411.8281,27.9063 Q410.8594,27.4375 410.1719,26.4219 Q409.5,25.4063 409.5,24.2031 L409.5,23.1094 Q409.5,21.8594 410.0938,20.7656 Q410.7031,19.6719 411.75,19.0938 Q412.8125,18.5 414,18.5 Q414.7188,18.5 415.3438,18.75 Q415.9688,19 416.5,19.5 Z " fill="#000000"/><text fill="#000000" font-family="sans-serif" font-size="12" lengthAdjust="spacing" textLength="104" x="428.5" y="27.9102">TcpSrvAgvManager</text><line style="stroke:#A80036;stroke-width:1.5;" x1="400.5" x2="534.5" y1="39" y2="39"/><line style="stroke:#A80036;stroke-width:1.5;" x1="400.5" x2="534.5" y1="47" y2="47"/><ellipse cx="410.5" cy="58" fill="#84BE84" rx="3" ry="3" style="stroke:#038048;stroke-width:1.0;"/><text fill="#000000" font-family="sans-serif" font-size="11" lengthAdjust="spacing" textLength="52" x="419.5" y="62.4189">main(args)</text><ellipse cx="410.5" cy="71.8359" fill="#84BE84" rx="3" ry="3" style="stroke:#038048;stroke-width:1.0;"/><text fill="#000000" font-family="sans-serif" font-size="11" lengthAdjust="spacing" textLength="24" x="419.5" y="76.2549">run()</text><!--MD5=[e8c189551b7885b999ad7cefb30fc2a3]
class PersistenceContext--><rect codeLine="7" fill="#FEFECE" filter="url(#f1kog856ganfrw)" height="61.8359" id="PersistenceContext" style="stroke:#A80036;stroke-width:1.5;" width="139" x="155" y="143"/><ellipse cx="170" cy="159" fill="#ADD1B2" rx="11" ry="11" style="stroke:#A80036;stroke-width:1.0;"/><path d="M172,155.5 Q172.2031,155 172.4375,154.75 Q172.6719,154.5 172.9375,154.5 Q173.4063,154.5 173.7031,154.7813 Q174,155.0625 174,155.7188 L174,157.2813 Q174,157.9375 173.7188,158.2188 Q173.4375,158.5 173,158.5 Q172.6094,158.5 172.3594,158.3281 Q172.1094,158.1563 172,157.7031 Q171.9531,157.3906 171.7813,157.2188 Q171.4688,156.8906 170.9063,156.7031 Q170.3438,156.5 169.7813,156.5 Q169.0781,156.5 168.4844,156.7813 Q167.9063,157.0625 167.4531,157.6875 Q167,158.3125 167,159.1719 L167,160.0938 Q167,161.125 167.8438,161.8125 Q168.6875,162.5 170.1875,162.5 Q171.0781,162.5 171.7031,162.2969 Q172.0625,162.1875 172.4688,161.8281 Q172.7344,161.625 172.875,161.5625 Q173.0156,161.5 173.1875,161.5 Q173.5156,161.5 173.75,161.7656 Q174,162.0156 174,162.375 Q174,162.7188 173.6563,163.125 Q173.1563,163.7188 172.3594,164.0469 Q171.3125,164.5 170.0313,164.5 Q168.5313,164.5 167.3281,163.9063 Q166.3594,163.4375 165.6719,162.4219 Q165,161.4063 165,160.2031 L165,159.1094 Q165,157.8594 165.5938,156.7656 Q166.2031,155.6719 167.25,155.0938 Q168.3125,154.5 169.5,154.5 Q170.2188,154.5 170.8438,154.75 Q171.4688,155 172,155.5 Z " fill="#000000"/><text fill="#000000" font-family="sans-serif" font-size="12" lengthAdjust="spacing" textLength="107" x="184" y="163.9102">PersistenceContext</text><line style="stroke:#A80036;stroke-width:1.5;" x1="156" x2="293" y1="175" y2="175"/><line style="stroke:#A80036;stroke-width:1.5;" x1="156" x2="293" y1="183" y2="183"/><ellipse cx="166" cy="194" fill="#84BE84" rx="3" ry="3" style="stroke:#038048;stroke-width:1.0;"/><text fill="#000000" font-family="sans-serif" font-size="11" lengthAdjust="spacing" textLength="65" x="175" y="198.4189">repositories()</text><!--MD5=[48590afff58a68e2fcba47824d6f8a11]
class RepositoryFactory--><rect codeLine="11" fill="#FEFECE" filter="url(#f1kog856ganfrw)" height="61.8359" id="RepositoryFactory" style="stroke:#A80036;stroke-width:1.5;" width="130" x="159.5" y="265"/><ellipse cx="174.5" cy="281" fill="#ADD1B2" rx="11" ry="11" style="stroke:#A80036;stroke-width:1.0;"/><path d="M176.5,277.5 Q176.7031,277 176.9375,276.75 Q177.1719,276.5 177.4375,276.5 Q177.9063,276.5 178.2031,276.7813 Q178.5,277.0625 178.5,277.7188 L178.5,279.2813 Q178.5,279.9375 178.2188,280.2188 Q177.9375,280.5 177.5,280.5 Q177.1094,280.5 176.8594,280.3281 Q176.6094,280.1563 176.5,279.7031 Q176.4531,279.3906 176.2813,279.2188 Q175.9688,278.8906 175.4063,278.7031 Q174.8438,278.5 174.2813,278.5 Q173.5781,278.5 172.9844,278.7813 Q172.4063,279.0625 171.9531,279.6875 Q171.5,280.3125 171.5,281.1719 L171.5,282.0938 Q171.5,283.125 172.3438,283.8125 Q173.1875,284.5 174.6875,284.5 Q175.5781,284.5 176.2031,284.2969 Q176.5625,284.1875 176.9688,283.8281 Q177.2344,283.625 177.375,283.5625 Q177.5156,283.5 177.6875,283.5 Q178.0156,283.5 178.25,283.7656 Q178.5,284.0156 178.5,284.375 Q178.5,284.7188 178.1563,285.125 Q177.6563,285.7188 176.8594,286.0469 Q175.8125,286.5 174.5313,286.5 Q173.0313,286.5 171.8281,285.9063 Q170.8594,285.4375 170.1719,284.4219 Q169.5,283.4063 169.5,282.2031 L169.5,281.1094 Q169.5,279.8594 170.0938,278.7656 Q170.7031,277.6719 171.75,277.0938 Q172.8125,276.5 174,276.5 Q174.7188,276.5 175.3438,276.75 Q175.9688,277 176.5,277.5 Z " fill="#000000"/><text fill="#000000" font-family="sans-serif" font-size="12" lengthAdjust="spacing" textLength="98" x="188.5" y="285.9102">RepositoryFactory</text><line style="stroke:#A80036;stroke-width:1.5;" x1="160.5" x2="288.5" y1="297" y2="297"/><line style="stroke:#A80036;stroke-width:1.5;" x1="160.5" x2="288.5" y1="305" y2="305"/><ellipse cx="170.5" cy="316" fill="#84BE84" rx="3" ry="3" style="stroke:#038048;stroke-width:1.0;"/><text fill="#000000" font-family="sans-serif" font-size="11" lengthAdjust="spacing" textLength="39" x="179.5" y="320.4189">create()</text><!--MD5=[a47aae9a185d1ab845eea61ac3f47c15]
class TheOrder--><rect codeLine="24" fill="#FEFECE" filter="url(#f1kog856ganfrw)" height="61.8359" id="TheOrder" style="stroke:#A80036;stroke-width:1.5;" width="110" x="329.5" y="143"/><ellipse cx="356.2" cy="159" fill="#ADD1B2" rx="11" ry="11" style="stroke:#A80036;stroke-width:1.0;"/><path d="M358.2,155.5 Q358.4031,155 358.6375,154.75 Q358.8719,154.5 359.1375,154.5 Q359.6063,154.5 359.9031,154.7813 Q360.2,155.0625 360.2,155.7188 L360.2,157.2813 Q360.2,157.9375 359.9188,158.2188 Q359.6375,158.5 359.2,158.5 Q358.8094,158.5 358.5594,158.3281 Q358.3094,158.1563 358.2,157.7031 Q358.1531,157.3906 357.9813,157.2188 Q357.6688,156.8906 357.1063,156.7031 Q356.5438,156.5 355.9813,156.5 Q355.2781,156.5 354.6844,156.7813 Q354.1063,157.0625 353.6531,157.6875 Q353.2,158.3125 353.2,159.1719 L353.2,160.0938 Q353.2,161.125 354.0438,161.8125 Q354.8875,162.5 356.3875,162.5 Q357.2781,162.5 357.9031,162.2969 Q358.2625,162.1875 358.6688,161.8281 Q358.9344,161.625 359.075,161.5625 Q359.2156,161.5 359.3875,161.5 Q359.7156,161.5 359.95,161.7656 Q360.2,162.0156 360.2,162.375 Q360.2,162.7188 359.8563,163.125 Q359.3563,163.7188 358.5594,164.0469 Q357.5125,164.5 356.2313,164.5 Q354.7313,164.5 353.5281,163.9063 Q352.5594,163.4375 351.8719,162.4219 Q351.2,161.4063 351.2,160.2031 L351.2,159.1094 Q351.2,157.8594 351.7938,156.7656 Q352.4031,155.6719 353.45,155.0938 Q354.5125,154.5 355.7,154.5 Q356.4188,154.5 357.0438,154.75 Q357.6688,155 358.2,155.5 Z " fill="#000000"/><text fill="#000000" font-family="sans-serif" font-size="12" lengthAdjust="spacing" textLength="52" x="372.8" y="163.9102">TheOrder</text><line style="stroke:#A80036;stroke-width:1.5;" x1="330.5" x2="438.5" y1="175" y2="175"/><line style="stroke:#A80036;stroke-width:1.5;" x1="330.5" x2="438.5" y1="183" y2="183"/><ellipse cx="340.5" cy="194" fill="#84BE84" rx="3" ry="3" style="stroke:#038048;stroke-width:1.0;"/><text fill="#000000" font-family="sans-serif" font-size="11" lengthAdjust="spacing" textLength="84" x="349.5" y="198.4189">setStatus(status)</text><!--MD5=[53b2c06ade5903185ca3326dce80e141]
class AGV--><rect codeLine="28" fill="#FEFECE" filter="url(#f1kog856ganfrw)" height="61.8359" id="AGV" style="stroke:#A80036;stroke-width:1.5;" width="154" x="474.5" y="143"/><ellipse cx="535.75" cy="159" fill="#ADD1B2" rx="11" ry="11" style="stroke:#A80036;stroke-width:1.0;"/><path d="M537.75,155.5 Q537.9531,155 538.1875,154.75 Q538.4219,154.5 538.6875,154.5 Q539.1563,154.5 539.4531,154.7813 Q539.75,155.0625 539.75,155.7188 L539.75,157.2813 Q539.75,157.9375 539.4688,158.2188 Q539.1875,158.5 538.75,158.5 Q538.3594,158.5 538.1094,158.3281 Q537.8594,158.1563 537.75,157.7031 Q537.7031,157.3906 537.5313,157.2188 Q537.2188,156.8906 536.6563,156.7031 Q536.0938,156.5 535.5313,156.5 Q534.8281,156.5 534.2344,156.7813 Q533.6563,157.0625 533.2031,157.6875 Q532.75,158.3125 532.75,159.1719 L532.75,160.0938 Q532.75,161.125 533.5938,161.8125 Q534.4375,162.5 535.9375,162.5 Q536.8281,162.5 537.4531,162.2969 Q537.8125,162.1875 538.2188,161.8281 Q538.4844,161.625 538.625,161.5625 Q538.7656,161.5 538.9375,161.5 Q539.2656,161.5 539.5,161.7656 Q539.75,162.0156 539.75,162.375 Q539.75,162.7188 539.4063,163.125 Q538.9063,163.7188 538.1094,164.0469 Q537.0625,164.5 535.7813,164.5 Q534.2813,164.5 533.0781,163.9063 Q532.1094,163.4375 531.4219,162.4219 Q530.75,161.4063 530.75,160.2031 L530.75,159.1094 Q530.75,157.8594 531.3438,156.7656 Q531.9531,155.6719 533,155.0938 Q534.0625,154.5 535.25,154.5 Q535.9688,154.5 536.5938,154.75 Q537.2188,155 537.75,155.5 Z " fill="#000000"/><text fill="#000000" font-family="sans-serif" font-size="12" lengthAdjust="spacing" textLength="23" x="556.25" y="163.9102">AGV</text><line style="stroke:#A80036;stroke-width:1.5;" x1="475.5" x2="627.5" y1="175" y2="175"/><line style="stroke:#A80036;stroke-width:1.5;" x1="475.5" x2="627.5" y1="183" y2="183"/><ellipse cx="485.5" cy="194" fill="#84BE84" rx="3" ry="3" style="stroke:#038048;stroke-width:1.0;"/><text fill="#000000" font-family="sans-serif" font-size="11" lengthAdjust="spacing" textLength="128" x="494.5" y="198.4189">setTaskStatus(taskStatus)</text><!--MD5=[1d65eb01825e4bfd50e3fe76bc4aa14f]
class TheTask--><rect codeLine="32" fill="#FEFECE" filter="url(#f1kog856ganfrw)" height="61.8359" id="TheTask" style="stroke:#A80036;stroke-width:1.5;" width="80" x="663.5" y="143"/><ellipse cx="678.5" cy="159" fill="#ADD1B2" rx="11" ry="11" style="stroke:#A80036;stroke-width:1.0;"/><path d="M680.5,155.5 Q680.7031,155 680.9375,154.75 Q681.1719,154.5 681.4375,154.5 Q681.9063,154.5 682.2031,154.7813 Q682.5,155.0625 682.5,155.7188 L682.5,157.2813 Q682.5,157.9375 682.2188,158.2188 Q681.9375,158.5 681.5,158.5 Q681.1094,158.5 680.8594,158.3281 Q680.6094,158.1563 680.5,157.7031 Q680.4531,157.3906 680.2813,157.2188 Q679.9688,156.8906 679.4063,156.7031 Q678.8438,156.5 678.2813,156.5 Q677.5781,156.5 676.9844,156.7813 Q676.4063,157.0625 675.9531,157.6875 Q675.5,158.3125 675.5,159.1719 L675.5,160.0938 Q675.5,161.125 676.3438,161.8125 Q677.1875,162.5 678.6875,162.5 Q679.5781,162.5 680.2031,162.2969 Q680.5625,162.1875 680.9688,161.8281 Q681.2344,161.625 681.375,161.5625 Q681.5156,161.5 681.6875,161.5 Q682.0156,161.5 682.25,161.7656 Q682.5,162.0156 682.5,162.375 Q682.5,162.7188 682.1563,163.125 Q681.6563,163.7188 680.8594,164.0469 Q679.8125,164.5 678.5313,164.5 Q677.0313,164.5 675.8281,163.9063 Q674.8594,163.4375 674.1719,162.4219 Q673.5,161.4063 673.5,160.2031 L673.5,159.1094 Q673.5,157.8594 674.0938,156.7656 Q674.7031,155.6719 675.75,155.0938 Q676.8125,154.5 678,154.5 Q678.7188,154.5 679.3438,154.75 Q679.9688,155 680.5,155.5 Z " fill="#000000"/><text fill="#000000" font-family="sans-serif" font-size="12" lengthAdjust="spacing" textLength="48" x="692.5" y="163.9102">TheTask</text><line style="stroke:#A80036;stroke-width:1.5;" x1="664.5" x2="742.5" y1="175" y2="175"/><line style="stroke:#A80036;stroke-width:1.5;" x1="664.5" x2="742.5" y1="183" y2="183"/><ellipse cx="674.5" cy="194" fill="#84BE84" rx="3" ry="3" style="stroke:#038048;stroke-width:1.0;"/><text fill="#000000" font-family="sans-serif" font-size="11" lengthAdjust="spacing" textLength="39" x="683.5" y="198.4189">create()</text><!--MD5=[3530a4b6eaf4970e324cdd1c6edbde55]
link TcpSrvAgvManager to PersistenceContext--><path codeLine="36" d="M399.49,81.55 C364.15,100.02 321.26,122.43 286.8,140.44 " fill="none" id="TcpSrvAgvManager-to-PersistenceContext" style="stroke:#A80036;stroke-width:1.0;"/><polygon fill="#A80036" points="282.2,142.84,292.0299,142.2297,286.6344,140.5301,288.3341,135.1346,282.2,142.84" style="stroke:#A80036;stroke-width:1.0;"/><!--MD5=[754b775031405e096442b27febffa290]
link PersistenceContext to RepositoryFactory--><path codeLine="38" d="M224.5,205.28 C224.5,221.77 224.5,242.26 224.5,259.49 " fill="none" id="PersistenceContext-to-RepositoryFactory" style="stroke:#A80036;stroke-width:1.0;"/><polygon fill="#A80036" points="224.5,264.73,228.5,255.73,224.5,259.73,220.5,255.73,224.5,264.73" style="stroke:#A80036;stroke-width:1.0;"/><!--MD5=[4961dc0a1f38b4bb8bde6c7779428d74]
link RepositoryFactory to OrderRepository--><path codeLine="40" d="M182.69,327.15 C158.23,344.79 127.65,366.84 104.3,383.69 " fill="none" id="RepositoryFactory-to-OrderRepository" style="stroke:#A80036;stroke-width:1.0;"/><polygon fill="#A80036" points="100.02,386.77,109.6586,384.7458,104.0741,383.8436,104.9763,378.2591,100.02,386.77" style="stroke:#A80036;stroke-width:1.0;"/><!--MD5=[d05eaea78b8765320ad56e3795dd7d42]
link RepositoryFactory to AGVRepository--><path codeLine="41" d="M224.5,327.15 C224.5,343.99 224.5,364.84 224.5,381.35 " fill="none" id="RepositoryFactory-to-AGVRepository" style="stroke:#A80036;stroke-width:1.0;"/><polygon fill="#A80036" points="224.5,386.77,228.5,377.77,224.5,381.77,220.5,377.77,224.5,386.77" style="stroke:#A80036;stroke-width:1.0;"/><!--MD5=[8982f41bad9004a09ffb6c14ad72077a]
link RepositoryFactory to TaskRepository--><path codeLine="42" d="M265.5,327.15 C289.5,344.79 319.49,366.84 342.39,383.69 " fill="none" id="RepositoryFactory-to-TaskRepository" style="stroke:#A80036;stroke-width:1.0;"/><polygon fill="#A80036" points="346.58,386.77,341.6918,378.2199,342.5493,383.8113,336.9579,384.6689,346.58,386.77" style="stroke:#A80036;stroke-width:1.0;"/><!--MD5=[3c2eab83c629b61c53785ad0c57ab528]
link TcpSrvAgvManager to TheOrder--><path codeLine="44" d="M443.27,83.08 C431.8,100.62 418.19,121.45 406.96,138.64 " fill="none" id="TcpSrvAgvManager-to-TheOrder" style="stroke:#A80036;stroke-width:1.0;"/><polygon fill="#A80036" points="404.16,142.93,412.4385,137.5946,406.9005,138.7479,405.7472,133.2099,404.16,142.93" style="stroke:#A80036;stroke-width:1.0;"/><!--MD5=[c1e76d441b9aa27fd52dec027911917e]
link TcpSrvAgvManager to AGV--><path codeLine="45" d="M492.02,83.08 C503.63,100.62 517.4,121.45 528.77,138.64 " fill="none" id="TcpSrvAgvManager-to-AGV" style="stroke:#A80036;stroke-width:1.0;"/><polygon fill="#A80036" points="531.61,142.93,529.9844,133.2162,528.853,138.7588,523.3104,137.6274,531.61,142.93" style="stroke:#A80036;stroke-width:1.0;"/><!--MD5=[12b73549b48b4ab6b690a65d5ab9efe6]
link TcpSrvAgvManager to TheTask--><path codeLine="46" d="M535.76,82.73 C575.37,104.05 624.12,130.28 658.84,148.97 " fill="none" id="TcpSrvAgvManager-to-TheTask" style="stroke:#A80036;stroke-width:1.0;"/><polygon fill="#A80036" points="663.43,151.44,657.4052,143.6489,659.0286,149.0678,653.6096,150.6912,663.43,151.44" style="stroke:#A80036;stroke-width:1.0;"/><!--MD5=[0e3dc81a526733c9e4e400c63a8030ab]
@startuml

class TcpSrvAgvManager{
+main(args)
+run()
}

class PersistenceContext{
+repositories()
}

class RepositoryFactory{
+create()
}

database OrderRepository{
}

database AGVRepository{
}

database TaskRepository{
}

class TheOrder{
+setStatus(status)
}

class AGV{
+setTaskStatus(taskStatus)
}

class TheTask{
+create()
}

TcpSrvAgvManager - -> PersistenceContext

PersistenceContext - -> RepositoryFactory

RepositoryFactory - -> OrderRepository
RepositoryFactory - -> AGVRepository
RepositoryFactory - -> TaskRepository

TcpSrvAgvManager - -> TheOrder
TcpSrvAgvManager - -> AGV
TcpSrvAgvManager - -> TheTask

@enduml

PlantUML version 1.2021.11(Sat Oct 02 14:26:11 BST 2021)
(GPL source distribution)
Java Runtime: OpenJDK Runtime Environment
JVM: OpenJDK 64-Bit Server VM
Default Encoding: Cp1252
Language: pt
Country: PT
--></g></svg>