<?xml version="1.0" encoding="UTF-8" standalone="no"?><svg xmlns="http://www.w3.org/2000/svg" xmlns:xlink="http://www.w3.org/1999/xlink" contentScriptType="application/ecmascript" contentStyleType="text/css" height="636px" preserveAspectRatio="none" style="width:764px;height:636px;" version="1.1" viewBox="0 0 764 636" width="764px" zoomAndPan="magnify"><defs><filter height="300%" id="f1uwm92klzu4pe" width="300%" x="-1" y="-1"><feGaussianBlur result="blurOut" stdDeviation="2.0"/><feColorMatrix in="blurOut" result="blurOut2" type="matrix" values="0 0 0 0 0 0 0 0 0 0 0 0 0 0 0 0 0 0 .4 0"/><feOffset dx="4.0" dy="4.0" in="blurOut2" result="blurOut3"/><feBlend in="SourceGraphic" in2="blurOut3" mode="normal"/></filter></defs><g><!--MD5=[71152100d89f377ebd8dc97f1c2b0d02]
class RegisterClientUI--><rect codeLine="48" fill="#FEFECE" filter="url(#f1uwm92klzu4pe)" height="70.0234" id="RegisterClientUI" style="stroke:#A80036;stroke-width:1.5;" width="123" x="481.5" y="7"/><ellipse cx="496.5" cy="27.0938" fill="#ADD1B2" rx="11" ry="11" style="stroke:#A80036;stroke-width:1.0;"/><path d="M498.5,23.5938 Q498.7031,23.0938 498.9375,22.8438 Q499.1719,22.5938 499.4375,22.5938 Q499.9063,22.5938 500.2031,22.875 Q500.5,23.1563 500.5,23.8125 L500.5,25.375 Q500.5,26.0313 500.2188,26.3125 Q499.9375,26.5938 499.5,26.5938 Q499.1094,26.5938 498.8594,26.4219 Q498.6094,26.25 498.5,25.7969 Q498.4531,25.4844 498.2813,25.3125 Q497.9688,24.9844 497.4063,24.7969 Q496.8438,24.5938 496.2813,24.5938 Q495.5781,24.5938 494.9844,24.875 Q494.4063,25.1563 493.9531,25.7813 Q493.5,26.4063 493.5,27.2656 L493.5,28.1875 Q493.5,29.2188 494.3438,29.9063 Q495.1875,30.5938 496.6875,30.5938 Q497.5781,30.5938 498.2031,30.3906 Q498.5625,30.2813 498.9688,29.9219 Q499.2344,29.7188 499.375,29.6563 Q499.5156,29.5938 499.6875,29.5938 Q500.0156,29.5938 500.25,29.8594 Q500.5,30.1094 500.5,30.4688 Q500.5,30.8125 500.1563,31.2188 Q499.6563,31.8125 498.8594,32.1406 Q497.8125,32.5938 496.5313,32.5938 Q495.0313,32.5938 493.8281,32 Q492.8594,31.5313 492.1719,30.5156 Q491.5,29.5 491.5,28.2969 L491.5,27.2031 Q491.5,25.9531 492.0938,24.8594 Q492.7031,23.7656 493.75,23.1875 Q494.8125,22.5938 496,22.5938 Q496.7188,22.5938 497.3438,22.8438 Q497.9688,23.0938 498.5,23.5938 Z " fill="#000000"/><text fill="#000000" font-family="sans-serif" font-size="12" font-style="italic" lengthAdjust="spacing" textLength="82" x="515" y="24.457">«presentation»</text><text fill="#000000" font-family="sans-serif" font-size="12" lengthAdjust="spacing" textLength="91" x="510.5" y="39.5508">RegisterClientUI</text><line style="stroke:#A80036;stroke-width:1.5;" x1="482.5" x2="603.5" y1="47.1875" y2="47.1875"/><line style="stroke:#A80036;stroke-width:1.5;" x1="482.5" x2="603.5" y1="55.1875" y2="55.1875"/><text fill="#000000" font-family="sans-serif" font-size="11" lengthAdjust="spacing" textLength="55" x="487.5" y="70.6064">#doShow()</text><!--MD5=[1a7fda4a36185bcd740bdf14b2b3a45e]
class RegisterClientController--><rect codeLine="44" fill="#FEFECE" filter="url(#f1uwm92klzu4pe)" height="70.0234" id="RegisterClientController" style="stroke:#A80036;stroke-width:1.5;" width="466" x="7" y="217.5"/><ellipse cx="169.25" cy="237.5938" fill="#ADD1B2" rx="11" ry="11" style="stroke:#A80036;stroke-width:1.0;"/><path d="M171.25,234.0938 Q171.4531,233.5938 171.6875,233.3438 Q171.9219,233.0938 172.1875,233.0938 Q172.6563,233.0938 172.9531,233.375 Q173.25,233.6563 173.25,234.3125 L173.25,235.875 Q173.25,236.5313 172.9688,236.8125 Q172.6875,237.0938 172.25,237.0938 Q171.8594,237.0938 171.6094,236.9219 Q171.3594,236.75 171.25,236.2969 Q171.2031,235.9844 171.0313,235.8125 Q170.7188,235.4844 170.1563,235.2969 Q169.5938,235.0938 169.0313,235.0938 Q168.3281,235.0938 167.7344,235.375 Q167.1563,235.6563 166.7031,236.2813 Q166.25,236.9063 166.25,237.7656 L166.25,238.6875 Q166.25,239.7188 167.0938,240.4063 Q167.9375,241.0938 169.4375,241.0938 Q170.3281,241.0938 170.9531,240.8906 Q171.3125,240.7813 171.7188,240.4219 Q171.9844,240.2188 172.125,240.1563 Q172.2656,240.0938 172.4375,240.0938 Q172.7656,240.0938 173,240.3594 Q173.25,240.6094 173.25,240.9688 Q173.25,241.3125 172.9063,241.7188 Q172.4063,242.3125 171.6094,242.6406 Q170.5625,243.0938 169.2813,243.0938 Q167.7813,243.0938 166.5781,242.5 Q165.6094,242.0313 164.9219,241.0156 Q164.25,240 164.25,238.7969 L164.25,237.7031 Q164.25,236.4531 164.8438,235.3594 Q165.4531,234.2656 166.5,233.6875 Q167.5625,233.0938 168.75,233.0938 Q169.4688,233.0938 170.0938,233.3438 Q170.7188,233.5938 171.25,234.0938 Z " fill="#000000"/><text fill="#000000" font-family="sans-serif" font-size="12" font-style="italic" lengthAdjust="spacing" textLength="74" x="219.25" y="234.957">«application»</text><text fill="#000000" font-family="sans-serif" font-size="12" lengthAdjust="spacing" textLength="133" x="189.75" y="250.0508">RegisterClientController</text><line style="stroke:#A80036;stroke-width:1.5;" x1="8" x2="472" y1="257.6875" y2="257.6875"/><line style="stroke:#A80036;stroke-width:1.5;" x1="8" x2="472" y1="265.6875" y2="265.6875"/><text fill="#000000" font-family="sans-serif" font-size="11" lengthAdjust="spacing" textLength="454" x="13" y="281.1064">+registerClient(firstNames, surnames, email, phoneNumber, vat, addresses, birthDate, gender)</text><!--MD5=[ed6624c6556d5e7b1bd23032162d20b7]
class Client--><rect codeLine="10" fill="#FEFECE" filter="url(#f1uwm92klzu4pe)" height="194.5469" id="Client" style="stroke:#A80036;stroke-width:1.5;" width="284" x="401" y="428"/><ellipse cx="512.75" cy="448.0938" fill="#ADD1B2" rx="11" ry="11" style="stroke:#A80036;stroke-width:1.0;"/><path d="M514.75,444.5938 Q514.9531,444.0938 515.1875,443.8438 Q515.4219,443.5938 515.6875,443.5938 Q516.1563,443.5938 516.4531,443.875 Q516.75,444.1563 516.75,444.8125 L516.75,446.375 Q516.75,447.0313 516.4688,447.3125 Q516.1875,447.5938 515.75,447.5938 Q515.3594,447.5938 515.1094,447.4219 Q514.8594,447.25 514.75,446.7969 Q514.7031,446.4844 514.5313,446.3125 Q514.2188,445.9844 513.6563,445.7969 Q513.0938,445.5938 512.5313,445.5938 Q511.8281,445.5938 511.2344,445.875 Q510.6563,446.1563 510.2031,446.7813 Q509.75,447.4063 509.75,448.2656 L509.75,449.1875 Q509.75,450.2188 510.5938,450.9063 Q511.4375,451.5938 512.9375,451.5938 Q513.8281,451.5938 514.4531,451.3906 Q514.8125,451.2813 515.2188,450.9219 Q515.4844,450.7188 515.625,450.6563 Q515.7656,450.5938 515.9375,450.5938 Q516.2656,450.5938 516.5,450.8594 Q516.75,451.1094 516.75,451.4688 Q516.75,451.8125 516.4063,452.2188 Q515.9063,452.8125 515.1094,453.1406 Q514.0625,453.5938 512.7813,453.5938 Q511.2813,453.5938 510.0781,453 Q509.1094,452.5313 508.4219,451.5156 Q507.75,450.5 507.75,449.2969 L507.75,448.2031 Q507.75,446.9531 508.3438,445.8594 Q508.9531,444.7656 510,444.1875 Q511.0625,443.5938 512.25,443.5938 Q512.9688,443.5938 513.5938,443.8438 Q514.2188,444.0938 514.75,444.5938 Z " fill="#000000"/><text fill="#000000" font-family="sans-serif" font-size="12" font-style="italic" lengthAdjust="spacing" textLength="56" x="531.25" y="445.457">«domain»</text><text fill="#000000" font-family="sans-serif" font-size="12" lengthAdjust="spacing" textLength="32" x="543.25" y="460.5508">Client</text><line style="stroke:#A80036;stroke-width:1.5;" x1="402" x2="684" y1="468.1875" y2="468.1875"/><text fill="#000000" font-family="sans-serif" font-size="11" lengthAdjust="spacing" textLength="158" x="407" y="483.6064">-String clientsCitizenCardNumber</text><text fill="#000000" font-family="sans-serif" font-size="11" lengthAdjust="spacing" textLength="90" x="407" y="497.4424">-String nhsNumber</text><text fill="#000000" font-family="sans-serif" font-size="11" lengthAdjust="spacing" textLength="72" x="407" y="511.2783">-Date birthDate</text><text fill="#000000" font-family="sans-serif" font-size="11" lengthAdjust="spacing" textLength="53" x="407" y="525.1143">-String sex</text><text fill="#000000" font-family="sans-serif" font-size="11" lengthAdjust="spacing" textLength="83" x="407" y="538.9502">-String tinNumber</text><text fill="#000000" font-family="sans-serif" font-size="11" lengthAdjust="spacing" textLength="59" x="407" y="552.7861">-String email</text><text fill="#000000" font-family="sans-serif" font-size="11" lengthAdjust="spacing" textLength="61" x="407" y="566.6221">-String name</text><text fill="#000000" font-family="sans-serif" font-size="11" lengthAdjust="spacing" textLength="102" x="407" y="580.458">-String phoneNumber</text><line style="stroke:#A80036;stroke-width:1.5;" x1="402" x2="684" y1="586.875" y2="586.875"/><text fill="#000000" font-family="sans-serif" font-size="11" lengthAdjust="spacing" textLength="269" x="407" y="602.2939">+Client(clientsCitizenCardNumber, nhsNumber, birthDate</text><text fill="#000000" font-family="sans-serif" font-size="11" lengthAdjust="spacing" textLength="220" x="407" y="616.1299">, sex, tinNumber, email, name, phoneNumber )</text><!--MD5=[50517cd8d76fa284d183a993d38d0bc5]
class ClientRepository--><rect codeLine="22" fill="#FEFECE" filter="url(#f1uwm92klzu4pe)" height="70.0234" id="ClientRepository" style="stroke:#A80036;stroke-width:1.5;" width="123" x="178.5" y="490.5"/><ellipse cx="193.5" cy="510.5938" fill="#ADD1B2" rx="11" ry="11" style="stroke:#A80036;stroke-width:1.0;"/><path d="M195.5,507.0938 Q195.7031,506.5938 195.9375,506.3438 Q196.1719,506.0938 196.4375,506.0938 Q196.9063,506.0938 197.2031,506.375 Q197.5,506.6563 197.5,507.3125 L197.5,508.875 Q197.5,509.5313 197.2188,509.8125 Q196.9375,510.0938 196.5,510.0938 Q196.1094,510.0938 195.8594,509.9219 Q195.6094,509.75 195.5,509.2969 Q195.4531,508.9844 195.2813,508.8125 Q194.9688,508.4844 194.4063,508.2969 Q193.8438,508.0938 193.2813,508.0938 Q192.5781,508.0938 191.9844,508.375 Q191.4063,508.6563 190.9531,509.2813 Q190.5,509.9063 190.5,510.7656 L190.5,511.6875 Q190.5,512.7188 191.3438,513.4063 Q192.1875,514.0938 193.6875,514.0938 Q194.5781,514.0938 195.2031,513.8906 Q195.5625,513.7813 195.9688,513.4219 Q196.2344,513.2188 196.375,513.1563 Q196.5156,513.0938 196.6875,513.0938 Q197.0156,513.0938 197.25,513.3594 Q197.5,513.6094 197.5,513.9688 Q197.5,514.3125 197.1563,514.7188 Q196.6563,515.3125 195.8594,515.6406 Q194.8125,516.0938 193.5313,516.0938 Q192.0313,516.0938 190.8281,515.5 Q189.8594,515.0313 189.1719,514.0156 Q188.5,513 188.5,511.7969 L188.5,510.7031 Q188.5,509.4531 189.0938,508.3594 Q189.7031,507.2656 190.75,506.6875 Q191.8125,506.0938 193,506.0938 Q193.7188,506.0938 194.3438,506.3438 Q194.9688,506.5938 195.5,507.0938 Z " fill="#000000"/><text fill="#000000" font-family="sans-serif" font-size="12" font-style="italic" lengthAdjust="spacing" textLength="68" x="219" y="507.957">«repository»</text><text fill="#000000" font-family="sans-serif" font-size="12" lengthAdjust="spacing" textLength="91" x="207.5" y="523.0508">ClientRepository</text><line style="stroke:#A80036;stroke-width:1.5;" x1="179.5" x2="300.5" y1="530.6875" y2="530.6875"/><line style="stroke:#A80036;stroke-width:1.5;" x1="179.5" x2="300.5" y1="538.6875" y2="538.6875"/><text fill="#000000" font-family="sans-serif" font-size="11" lengthAdjust="spacing" textLength="86" x="184.5" y="554.1064">+save(newClient)</text><!--MD5=[9f4370a08c17b73d6022f342818566e2]
class ClientBuilder--><rect codeLine="27" fill="#FEFECE" filter="url(#f1uwm92klzu4pe)" height="194.5469" id="ClientBuilder" style="stroke:#A80036;stroke-width:1.5;" width="114" x="636" y="155"/><ellipse cx="655.95" cy="175.0938" fill="#ADD1B2" rx="11" ry="11" style="stroke:#A80036;stroke-width:1.0;"/><path d="M657.95,171.5938 Q658.1531,171.0938 658.3875,170.8438 Q658.6219,170.5938 658.8875,170.5938 Q659.3563,170.5938 659.6531,170.875 Q659.95,171.1563 659.95,171.8125 L659.95,173.375 Q659.95,174.0313 659.6688,174.3125 Q659.3875,174.5938 658.95,174.5938 Q658.5594,174.5938 658.3094,174.4219 Q658.0594,174.25 657.95,173.7969 Q657.9031,173.4844 657.7313,173.3125 Q657.4188,172.9844 656.8563,172.7969 Q656.2938,172.5938 655.7313,172.5938 Q655.0281,172.5938 654.4344,172.875 Q653.8563,173.1563 653.4031,173.7813 Q652.95,174.4063 652.95,175.2656 L652.95,176.1875 Q652.95,177.2188 653.7938,177.9063 Q654.6375,178.5938 656.1375,178.5938 Q657.0281,178.5938 657.6531,178.3906 Q658.0125,178.2813 658.4188,177.9219 Q658.6844,177.7188 658.825,177.6563 Q658.9656,177.5938 659.1375,177.5938 Q659.4656,177.5938 659.7,177.8594 Q659.95,178.1094 659.95,178.4688 Q659.95,178.8125 659.6063,179.2188 Q659.1063,179.8125 658.3094,180.1406 Q657.2625,180.5938 655.9813,180.5938 Q654.4813,180.5938 653.2781,180 Q652.3094,179.5313 651.6219,178.5156 Q650.95,177.5 650.95,176.2969 L650.95,175.2031 Q650.95,173.9531 651.5438,172.8594 Q652.1531,171.7656 653.2,171.1875 Q654.2625,170.5938 655.45,170.5938 Q656.1688,170.5938 656.7938,170.8438 Q657.4188,171.0938 657.95,171.5938 Z " fill="#000000"/><text fill="#000000" font-family="sans-serif" font-size="12" font-style="italic" lengthAdjust="spacing" textLength="53" x="680.05" y="172.457">«builder»</text><text fill="#000000" font-family="sans-serif" font-size="12" lengthAdjust="spacing" textLength="71" x="671.05" y="187.5508">ClientBuilder</text><line style="stroke:#A80036;stroke-width:1.5;" x1="637" x2="749" y1="195.1875" y2="195.1875"/><line style="stroke:#A80036;stroke-width:1.5;" x1="637" x2="749" y1="203.1875" y2="203.1875"/><text fill="#000000" font-family="sans-serif" font-size="11" lengthAdjust="spacing" textLength="57" x="642" y="218.6064">+withVAT()</text><text fill="#000000" font-family="sans-serif" font-size="11" lengthAdjust="spacing" textLength="59" x="642" y="232.4424">+withEmail()</text><text fill="#000000" font-family="sans-serif" font-size="11" lengthAdjust="spacing" textLength="102" x="642" y="246.2783">+withPhoneNumber()</text><text fill="#000000" font-family="sans-serif" font-size="11" lengthAdjust="spacing" textLength="46" x="642" y="260.1143">+named()</text><text fill="#000000" font-family="sans-serif" font-size="11" lengthAdjust="spacing" textLength="89" x="642" y="273.9502">+withAddresses()</text><text fill="#000000" font-family="sans-serif" font-size="11" lengthAdjust="spacing" textLength="77" x="642" y="287.7861">+withAddress()</text><text fill="#000000" font-family="sans-serif" font-size="11" lengthAdjust="spacing" textLength="80" x="642" y="301.6221">+buildOrThrow()</text><text fill="#000000" font-family="sans-serif" font-size="11" lengthAdjust="spacing" textLength="79" x="642" y="315.458">+withBirthDate()</text><text fill="#000000" font-family="sans-serif" font-size="11" lengthAdjust="spacing" textLength="71" x="642" y="329.2939">+withGender()</text><text fill="#000000" font-family="sans-serif" font-size="11" lengthAdjust="spacing" textLength="36" x="642" y="343.1299">+build()</text><!--MD5=[98d2d934d445daef8d5bcbeea20c1f70]
link RegisterClientUI to RegisterClientController--><path codeLine="53" d="M487.86,77.15 C472.87,86.65 456.72,97.08 442,107 C389.56,142.33 330.91,184.61 290.37,214.27 " fill="none" id="RegisterClientUI-to-RegisterClientController" style="stroke:#A80036;stroke-width:1.0;"/><polygon fill="#A80036" points="286.01,217.46,295.6321,215.3589,290.0407,214.5013,290.8982,208.9099,286.01,217.46" style="stroke:#A80036;stroke-width:1.0;"/><text fill="#000000" font-family="sans-serif" font-size="13" lengthAdjust="spacing" textLength="73" x="443" y="121.4951">theController</text><!--MD5=[ed103a8ea2b4d350bb3452ad82ebe4da]
link RegisterClientController to Client--><path codeLine="54" d="M278.07,287.55 C316.41,321.84 377.42,376.41 431.24,424.54 " fill="none" id="RegisterClientController-to-Client" style="stroke:#A80036;stroke-width:1.0;"/><polygon fill="#A80036" points="435.1,428,431.0499,419.0224,431.3701,424.6702,425.7223,424.9903,435.1,428" style="stroke:#A80036;stroke-width:1.0;"/><text fill="#000000" font-family="sans-serif" font-size="13" lengthAdjust="spacing" textLength="56" x="401" y="394.4951">newClient</text><!--MD5=[a0584be5259757c605c5c63f81a157d7]
link RegisterClientController to ClientRepository--><path codeLine="55" d="M240,287.55 C240,337.95 240,432.18 240,485.36 " fill="none" id="RegisterClientController-to-ClientRepository" style="stroke:#A80036;stroke-width:1.0;"/><polygon fill="#A80036" points="240,490.38,244,481.38,240,485.38,236,481.38,240,490.38" style="stroke:#A80036;stroke-width:1.0;"/><text fill="#000000" font-family="sans-serif" font-size="13" lengthAdjust="spacing" textLength="93" x="241" y="394.4951">clientRepository</text><!--MD5=[eb82c0ae412ea4793b3ce4b4f13dbb08]
link RegisterClientUI to Client--><path codeLine="59" d="M543,77.24 C543,148.3 543,314.2 543,422.75 " fill="none" id="RegisterClientUI-to-Client" style="stroke:#A80036;stroke-width:1.0;stroke-dasharray:7.0,7.0;"/><polygon fill="#A80036" points="543,427.88,547,418.88,543,422.88,539,418.88,543,427.88" style="stroke:#A80036;stroke-width:1.0;"/><text fill="#000000" font-family="sans-serif" font-size="13" lengthAdjust="spacing" textLength="56" x="544" y="257.9951">newClient</text><!--MD5=[8c440798e6cc41a7fca2b3bfdfdce304]
link ClientBuilder to Client--><path codeLine="61" d="M639.48,350.19 C626.33,373.94 612.22,399.44 598.96,423.39 " fill="none" id="ClientBuilder-to-Client" style="stroke:#A80036;stroke-width:1.0;"/><polygon fill="#A80036" points="596.5,427.85,604.3526,421.9055,598.9173,423.4732,597.3496,418.0379,596.5,427.85" style="stroke:#A80036;stroke-width:1.0;"/><text fill="#000000" font-family="sans-serif" font-size="13" lengthAdjust="spacing" textLength="51" x="623" y="394.4951">theClient</text><!--MD5=[6d149c23703c47810c132bc98bcc2017]
link RegisterClientUI to ClientBuilder--><path codeLine="62" d="M567.77,77.43 C585.45,102 610.02,136.16 632.72,167.71 " fill="none" id="RegisterClientUI-to-ClientBuilder" style="stroke:#A80036;stroke-width:1.0;stroke-dasharray:7.0,7.0;"/><polygon fill="#A80036" points="635.76,171.94,633.7581,162.2967,632.843,167.8791,627.2607,166.9639,635.76,171.94" style="stroke:#A80036;stroke-width:1.0;"/><!--MD5=[ee568e780518af49f24a36fb50bc855f]
@startuml
skinparam classAttributeIconSize 0


class RegisterClientUI <<presentation>>
class RegisterClientController <<application>>
class Client <<domain>>
class ClientRepository <<repository>>
class ClientBuilder <<builder>>

class Client {
-String clientsCitizenCardNumber
-String nhsNumber
-Date birthDate
-String sex
-String tinNumber
-String email
-String name
-String phoneNumber
+Client(clientsCitizenCardNumber, nhsNumber, birthDate \n, sex, tinNumber, email, name, phoneNumber )
}

class ClientRepository{
+save(newClient)
}


class ClientBuilder {
+withVAT()
+withEmail()
+withPhoneNumber()
+named()
+withAddresses()
+withAddress()
+buildOrThrow()
+withBirthDate()
+withGender()
+build()
}





class RegisterClientController {
  +registerClient(firstNames, surnames, email, phoneNumber, vat, addresses, birthDate, gender)
}

class RegisterClientUI {
    #doShow()

}

RegisterClientUI - -> RegisterClientController : theController
RegisterClientController - -> Client : newClient
RegisterClientController - -> ClientRepository : clientRepository



RegisterClientUI ..> Client : newClient

ClientBuilder - -> Client : theClient
RegisterClientUI ..> ClientBuilder

@enduml

PlantUML version 1.2021.4(Sun Apr 04 09:49:39 BST 2021)
(GPL source distribution)
Java Runtime: OpenJDK Runtime Environment
JVM: OpenJDK 64-Bit Server VM
Default Encoding: Cp1252
Language: pt
Country: PT
--></g></svg>