<?xml version="1.0" encoding="UTF-8" standalone="no"?><svg xmlns="http://www.w3.org/2000/svg" xmlns:xlink="http://www.w3.org/1999/xlink" contentScriptType="application/ecmascript" contentStyleType="text/css" height="548.8px" preserveAspectRatio="none" style="width:396px;height:548px;" version="1.1" viewBox="0 0 396 548" width="396.8px" zoomAndPan="magnify"><defs><filter height="300%" id="f1k9a6xmzaos63" width="300%" x="-1" y="-1"><feGaussianBlur result="blurOut" stdDeviation="1.6000000000000003"/><feColorMatrix in="blurOut" result="blurOut2" type="matrix" values="0 0 0 0 0 0 0 0 0 0 0 0 0 0 0 0 0 0 .4 0"/><feOffset dx="3.2000000000000006" dy="3.2000000000000006" in="blurOut2" result="blurOut3"/><feBlend in="SourceGraphic" in2="blurOut3" mode="normal"/></filter></defs><g><!--MD5=[bbb6963d23f13b4d5eb4a124d7bc24fa]
cluster <<aggregate>> Costumer--><polygon fill="#FFFFFF" filter="url(#f1k9a6xmzaos63)" points="39.2,288.8,184.8,288.8,190.4,307.6875,383.2,307.6875,383.2,543.2,39.2,543.2,39.2,288.8" style="stroke:#000000;stroke-width:1.2000000000000002;"/><line style="stroke:#000000;stroke-width:1.2000000000000002;" x1="39.2" x2="190.4" y1="307.6875" y2="307.6875"/><text fill="#000000" font-family="sans-serif" font-size="11.2" font-weight="bold" lengthAdjust="spacing" textLength="140.8" x="42.4" y="302.0266">&lt;&lt;aggregate&gt;&gt; Costumer</text><!--MD5=[db53c58abe70499843a85815d88add8b]
cluster <<aggregate>> Employee--><polygon fill="#FFFFFF" filter="url(#f1k9a6xmzaos63)" points="157.6,139.2,303.2,139.2,308.8,158.0875,311.2,158.0875,311.2,248.8,157.6,248.8,157.6,139.2" style="stroke:#000000;stroke-width:1.2000000000000002;"/><line style="stroke:#000000;stroke-width:1.2000000000000002;" x1="157.6" x2="308.8" y1="158.0875" y2="158.0875"/><text fill="#000000" font-family="sans-serif" font-size="11.2" font-weight="bold" lengthAdjust="spacing" textLength="140.8" x="160.8" y="152.4266">&lt;&lt;aggregate&gt;&gt; Employee</text><!--MD5=[597c9b6a35d8038d4b40fd8870ba90aa]
cluster <<aggregate>> User--><polygon fill="#FFFFFF" filter="url(#f1k9a6xmzaos63)" points="12.8,4.8,130.4,4.8,136,23.6875,138.4,23.6875,138.4,234,12.8,234,12.8,4.8" style="stroke:#000000;stroke-width:1.2000000000000002;"/><line style="stroke:#000000;stroke-width:1.2000000000000002;" x1="12.8" x2="136" y1="23.6875" y2="23.6875"/><text fill="#000000" font-family="sans-serif" font-size="11.2" font-weight="bold" lengthAdjust="spacing" textLength="112.8" x="16" y="18.0266">&lt;&lt;aggregate&gt;&gt; User</text><!--MD5=[4ef588c4d1404d1058d28903bdac637c]
class Costumer--><rect codeLine="14" fill="#F5F5DC" filter="url(#f1k9a6xmzaos63)" height="112.3688" id="Costumer" style="stroke:#A80036;stroke-width:1.2000000000000002;" width="91.2" x="165.6" y="317.6"/><ellipse cx="187.32" cy="339.7125" fill="#ADD1B2" rx="8.8" ry="8.8" style="stroke:#A80036;stroke-width:0.8000000000000002;"/><path d="M186.12,340.5125 L186.12,342.1125 L189.32,342.1125 L189.32,341.3125 L189.32,340.925 L189.82,340.5125 L190.12,340.5125 L190.42,340.5125 L190.92,340.925 L190.92,341.3125 L190.92,343.7125 L184.52,343.7125 L184.1325,343.7125 L183.72,343.2125 L183.72,342.9125 L183.72,342.6125 L184.1325,342.1125 L184.52,342.1125 L184.52,342.1125 L184.52,337.3125 L184.52,337.3125 L184.1325,337.3125 L183.72,336.8125 L183.72,336.5125 L183.72,336.2125 L184.1325,335.7125 L184.52,335.7125 L190.92,335.7125 L190.92,338.1125 L190.92,338.5 L190.42,338.9125 L190.12,338.9125 L189.82,338.9125 L189.32,338.5 L189.32,338.1125 L189.32,337.3125 L186.12,337.3125 L186.12,338.9125 L186.92,338.9125 L186.92,338.525 L186.92,338.525 L187.42,338.1125 L187.72,338.1125 L188.02,338.1125 L188.52,338.525 L188.52,338.9125 L188.52,340.5125 L188.52,340.9 L188.02,341.3125 L188.02,341.3125 L187.72,341.3125 L187.42,341.3125 L186.92,340.9 L186.92,340.9 L186.92,340.5125 L186.12,340.5125 Z " fill="#000000"/><text fill="#000000" font-family="sans-serif" font-size="9.6" font-style="italic" lengthAdjust="spacing" textLength="34.4" x="205.48" y="331.5656">«entity»</text><text fill="#000000" font-family="sans-serif" font-size="9.6" font-style="italic" lengthAdjust="spacing" textLength="28" x="208.68" y="343.6406">«root»</text><text fill="#000000" font-family="sans-serif" font-size="9.6" lengthAdjust="spacing" textLength="44" x="200.68" y="355.7156">Costumer</text><line style="stroke:#A80036;stroke-width:1.2000000000000002;" x1="166.4" x2="256" y1="361.825" y2="361.825"/><text fill="#000000" font-family="sans-serif" font-size="8.8" lengthAdjust="spacing" textLength="47.2" x="170.4" y="374.1602">-CostumerID</text><text fill="#000000" font-family="sans-serif" font-size="8.8" lengthAdjust="spacing" textLength="49.6" x="170.4" y="385.2289">-«VO» Name</text><text fill="#000000" font-family="sans-serif" font-size="8.8" lengthAdjust="spacing" textLength="45.6" x="170.4" y="396.2977">-«VO» VAT</text><text fill="#000000" font-family="sans-serif" font-size="8.8" lengthAdjust="spacing" textLength="47.2" x="170.4" y="407.3664">-«VO» Email</text><text fill="#000000" font-family="sans-serif" font-size="8.8" lengthAdjust="spacing" textLength="81.6" x="170.4" y="418.4352">-«VO» PhoneNumber</text><line style="stroke:#A80036;stroke-width:1.2000000000000002;" x1="166.4" x2="256" y1="423.5688" y2="423.5688"/><!--MD5=[0f39e4cb6f03951afbf6d14bd2505654]
class Address--><rect codeLine="26" fill="#F5F5DC" filter="url(#f1k9a6xmzaos63)" height="38.55" id="Address" style="stroke:#A80036;stroke-width:1.2000000000000002;" width="87.2" x="52.4" y="492"/><ellipse cx="64.4" cy="508.075" fill="#FF8B40" rx="8.8" ry="8.8" style="stroke:#A80036;stroke-width:0.8000000000000002;"/><path d="M64.4,510.7 L65.625,506.275 L65.625,506.275 L65.2125,506.275 L64.8,505.775 L64.8,505.475 L64.8,505.175 L65.2125,504.675 L65.625,504.675 L67.125,504.675 L67.5875,504.675 L68,505.175 L68,505.475 L68,505.775 L67.5875,506.275 L67.5875,506.275 L67.225,506.275 L65.35,512.675 L63.45,512.675 L61.475,506.275 L61.2125,506.275 L61.2125,506.275 L60.8,505.775 L60.8,505.475 L60.8,505.175 L61.2125,504.675 L61.675,504.675 L63.175,504.675 L63.5875,504.675 L64,505.175 L64,505.475 L64,505.775 L63.5875,506.275 L63.175,506.275 L63.175,506.275 L64.4,510.7 Z " fill="#000000"/><text fill="#000000" font-family="sans-serif" font-size="9.6" font-style="italic" lengthAdjust="spacing" textLength="64.8" x="74" y="505.9656">«value object»</text><text fill="#000000" font-family="sans-serif" font-size="9.6" lengthAdjust="spacing" textLength="36.8" x="88" y="518.0406">Address</text><line style="stroke:#A80036;stroke-width:1.2000000000000002;" x1="53.2" x2="138.8" y1="524.15" y2="524.15"/><!--MD5=[ec957f90f125634d426aef890efece94]
class BirthDate--><rect codeLine="24" fill="#F5F5DC" filter="url(#f1k9a6xmzaos63)" height="38.55" id="BirthDate" style="stroke:#A80036;stroke-width:1.2000000000000002;" width="87.2" x="167.6" y="492"/><ellipse cx="179.6" cy="508.075" fill="#FF8B40" rx="8.8" ry="8.8" style="stroke:#A80036;stroke-width:0.8000000000000002;"/><path d="M179.6,510.7 L180.825,506.275 L180.825,506.275 L180.4125,506.275 L180,505.775 L180,505.475 L180,505.175 L180.4125,504.675 L180.825,504.675 L182.325,504.675 L182.7875,504.675 L183.2,505.175 L183.2,505.475 L183.2,505.775 L182.7875,506.275 L182.7875,506.275 L182.425,506.275 L180.55,512.675 L178.65,512.675 L176.675,506.275 L176.4125,506.275 L176.4125,506.275 L176,505.775 L176,505.475 L176,505.175 L176.4125,504.675 L176.875,504.675 L178.375,504.675 L178.7875,504.675 L179.2,505.175 L179.2,505.475 L179.2,505.775 L178.7875,506.275 L178.375,506.275 L178.375,506.275 L179.6,510.7 Z " fill="#000000"/><text fill="#000000" font-family="sans-serif" font-size="9.6" font-style="italic" lengthAdjust="spacing" textLength="64.8" x="189.2" y="505.9656">«value object»</text><text fill="#000000" font-family="sans-serif" font-size="9.6" lengthAdjust="spacing" textLength="40.8" x="201.2" y="518.0406">BirthDate</text><line style="stroke:#A80036;stroke-width:1.2000000000000002;" x1="168.4" x2="254" y1="524.15" y2="524.15"/><!--MD5=[a4ea2dcb44ebd57046df9af95d8b8c12]
class Gender--><rect codeLine="25" fill="#F5F5DC" filter="url(#f1k9a6xmzaos63)" height="38.55" id="Gender" style="stroke:#A80036;stroke-width:1.2000000000000002;" width="87.2" x="282.8" y="492"/><ellipse cx="294.8" cy="508.075" fill="#FF8B40" rx="8.8" ry="8.8" style="stroke:#A80036;stroke-width:0.8000000000000002;"/><path d="M294.8,510.7 L296.025,506.275 L296.025,506.275 L295.6125,506.275 L295.2,505.775 L295.2,505.475 L295.2,505.175 L295.6125,504.675 L296.025,504.675 L297.525,504.675 L297.9875,504.675 L298.4,505.175 L298.4,505.475 L298.4,505.775 L297.9875,506.275 L297.9875,506.275 L297.625,506.275 L295.75,512.675 L293.85,512.675 L291.875,506.275 L291.6125,506.275 L291.6125,506.275 L291.2,505.775 L291.2,505.475 L291.2,505.175 L291.6125,504.675 L292.075,504.675 L293.575,504.675 L293.9875,504.675 L294.4,505.175 L294.4,505.475 L294.4,505.775 L293.9875,506.275 L293.575,506.275 L293.575,506.275 L294.8,510.7 Z " fill="#000000"/><text fill="#000000" font-family="sans-serif" font-size="9.6" font-style="italic" lengthAdjust="spacing" textLength="64.8" x="304.4" y="505.9656">«value object»</text><text fill="#000000" font-family="sans-serif" font-size="9.6" lengthAdjust="spacing" textLength="32.8" x="320.4" y="518.0406">Gender</text><line style="stroke:#A80036;stroke-width:1.2000000000000002;" x1="283.6" x2="369.2" y1="524.15" y2="524.15"/><!--MD5=[7421f545a0d8420c5bec41e74b387d9c]
class Employee--><rect codeLine="32" fill="#F5F5DC" filter="url(#f1k9a6xmzaos63)" height="68.0938" id="Employee" style="stroke:#A80036;stroke-width:1.2000000000000002;" width="81.6" x="170.4" y="168"/><ellipse cx="187.8" cy="190.1125" fill="#ADD1B2" rx="8.8" ry="8.8" style="stroke:#A80036;stroke-width:0.8000000000000002;"/><path d="M186.6,190.9125 L186.6,192.5125 L189.8,192.5125 L189.8,191.7125 L189.8,191.325 L190.3,190.9125 L190.6,190.9125 L190.9,190.9125 L191.4,191.325 L191.4,191.7125 L191.4,194.1125 L185,194.1125 L184.6125,194.1125 L184.2,193.6125 L184.2,193.3125 L184.2,193.0125 L184.6125,192.5125 L185,192.5125 L185,192.5125 L185,187.7125 L185,187.7125 L184.6125,187.7125 L184.2,187.2125 L184.2,186.9125 L184.2,186.6125 L184.6125,186.1125 L185,186.1125 L191.4,186.1125 L191.4,188.5125 L191.4,188.9 L190.9,189.3125 L190.6,189.3125 L190.3,189.3125 L189.8,188.9 L189.8,188.5125 L189.8,187.7125 L186.6,187.7125 L186.6,189.3125 L187.4,189.3125 L187.4,188.925 L187.4,188.925 L187.9,188.5125 L188.2,188.5125 L188.5,188.5125 L189,188.925 L189,189.3125 L189,190.9125 L189,191.3 L188.5,191.7125 L188.5,191.7125 L188.2,191.7125 L187.9,191.7125 L187.4,191.3 L187.4,191.3 L187.4,190.9125 L186.6,190.9125 Z " fill="#000000"/><text fill="#000000" font-family="sans-serif" font-size="9.6" font-style="italic" lengthAdjust="spacing" textLength="34.4" x="205" y="181.9656">«entity»</text><text fill="#000000" font-family="sans-serif" font-size="9.6" font-style="italic" lengthAdjust="spacing" textLength="28" x="208.2" y="194.0406">«root»</text><text fill="#000000" font-family="sans-serif" font-size="9.6" lengthAdjust="spacing" textLength="44" x="200.2" y="206.1156">Employee</text><line style="stroke:#A80036;stroke-width:1.2000000000000002;" x1="171.2" x2="251.2" y1="212.225" y2="212.225"/><text fill="#000000" font-family="sans-serif" font-size="8.8" lengthAdjust="spacing" textLength="72" x="175.2" y="224.5602">-«VO» EmployeeID</text><line style="stroke:#A80036;stroke-width:1.2000000000000002;" x1="171.2" x2="251.2" y1="229.6938" y2="229.6938"/><!--MD5=[3fd616f346a44cd59a91eb10b19e157c]
class User--><rect codeLine="44" fill="#F5F5DC" filter="url(#f1k9a6xmzaos63)" height="68.0938" id="User" style="stroke:#A80036;stroke-width:1.2000000000000002;" width="68.8" x="52" y="33.6"/><ellipse cx="69.4" cy="55.7125" fill="#ADD1B2" rx="8.8" ry="8.8" style="stroke:#A80036;stroke-width:0.8000000000000002;"/><path d="M68.2,56.5125 L68.2,58.1125 L71.4,58.1125 L71.4,57.3125 L71.4,56.925 L71.9,56.5125 L72.2,56.5125 L72.5,56.5125 L73,56.925 L73,57.3125 L73,59.7125 L66.6,59.7125 L66.2125,59.7125 L65.8,59.2125 L65.8,58.9125 L65.8,58.6125 L66.2125,58.1125 L66.6,58.1125 L66.6,58.1125 L66.6,53.3125 L66.6,53.3125 L66.2125,53.3125 L65.8,52.8125 L65.8,52.5125 L65.8,52.2125 L66.2125,51.7125 L66.6,51.7125 L73,51.7125 L73,54.1125 L73,54.5 L72.5,54.9125 L72.2,54.9125 L71.9,54.9125 L71.4,54.5 L71.4,54.1125 L71.4,53.3125 L68.2,53.3125 L68.2,54.9125 L69,54.9125 L69,54.525 L69,54.525 L69.5,54.1125 L69.8,54.1125 L70.1,54.1125 L70.6,54.525 L70.6,54.9125 L70.6,56.5125 L70.6,56.9 L70.1,57.3125 L70.1,57.3125 L69.8,57.3125 L69.5,57.3125 L69,56.9 L69,56.9 L69,56.5125 L68.2,56.5125 Z " fill="#000000"/><text fill="#000000" font-family="sans-serif" font-size="9.6" font-style="italic" lengthAdjust="spacing" textLength="34.4" x="80.2" y="47.5656">«entity»</text><text fill="#000000" font-family="sans-serif" font-size="9.6" font-style="italic" lengthAdjust="spacing" textLength="28" x="83.4" y="59.6406">«root»</text><text fill="#000000" font-family="sans-serif" font-size="9.6" lengthAdjust="spacing" textLength="21.6" x="86.6" y="71.7156">User</text><line style="stroke:#A80036;stroke-width:1.2000000000000002;" x1="52.8" x2="120" y1="77.825" y2="77.825"/><text fill="#000000" font-family="sans-serif" font-size="8.8" lengthAdjust="spacing" textLength="59.2" x="56.8" y="90.1602">-«VO» isActive</text><line style="stroke:#A80036;stroke-width:1.2000000000000002;" x1="52.8" x2="120" y1="95.2938" y2="95.2938"/><!--MD5=[a3638c1e5b65d287ecad7f06f5c0f212]
class Role--><rect codeLine="50" fill="#F5F5DC" filter="url(#f1k9a6xmzaos63)" height="38.55" id="Role" style="stroke:#A80036;stroke-width:1.2000000000000002;" width="87.2" x="38" y="182.8"/><ellipse cx="50" cy="198.875" fill="#FF8B40" rx="8.8" ry="8.8" style="stroke:#A80036;stroke-width:0.8000000000000002;"/><path d="M50,201.5 L51.225,197.075 L51.225,197.075 L50.8125,197.075 L50.4,196.575 L50.4,196.275 L50.4,195.975 L50.8125,195.475 L51.225,195.475 L52.725,195.475 L53.1875,195.475 L53.6,195.975 L53.6,196.275 L53.6,196.575 L53.1875,197.075 L53.1875,197.075 L52.825,197.075 L50.95,203.475 L49.05,203.475 L47.075,197.075 L46.8125,197.075 L46.8125,197.075 L46.4,196.575 L46.4,196.275 L46.4,195.975 L46.8125,195.475 L47.275,195.475 L48.775,195.475 L49.1875,195.475 L49.6,195.975 L49.6,196.275 L49.6,196.575 L49.1875,197.075 L48.775,197.075 L48.775,197.075 L50,201.5 Z " fill="#000000"/><text fill="#000000" font-family="sans-serif" font-size="9.6" font-style="italic" lengthAdjust="spacing" textLength="64.8" x="59.6" y="196.7656">«value object»</text><text fill="#000000" font-family="sans-serif" font-size="9.6" lengthAdjust="spacing" textLength="20.8" x="81.6" y="208.8406">Role</text><line style="stroke:#A80036;stroke-width:1.2000000000000002;" x1="38.8" x2="124.4" y1="214.95" y2="214.95"/><!--MD5=[a3d97583f81ed0a4d7283e27f11f0bde]
link Employee to Costumer--><path codeLine="57" d="M211.2,236.184 C211.2,258.12 211.2,287.44 211.2,313.288 " fill="none" id="Employee-to-Costumer" style="stroke:#222222;stroke-width:0.8000000000000002;"/><polygon fill="#222222" points="211.2,317.408,214.4,310.208,211.2,313.408,208,310.208,211.2,317.408" style="stroke:#222222;stroke-width:0.8000000000000002;"/><text fill="#000000" font-family="sans-serif" font-size="10.4" lengthAdjust="spacing" textLength="48.8" x="212" y="273.1961">registers a</text><text fill="#000000" font-family="sans-serif" font-size="10.4" lengthAdjust="spacing" textLength="4" x="206.9938" y="308.9448">*</text><!--MD5=[872d8c377a896627a4bc10c79f2a98b2]
link Costumer to Address--><path codeLine="58" d="M165.336,428.544 C147.456,449.656 128,472.624 114.256,488.848 " fill="none" id="Costumer-to-Address" style="stroke:#222222;stroke-width:0.8000000000000002;"/><polygon fill="#222222" points="111.592,492,118.6862,488.5718,114.1763,488.9469,113.8012,484.437,111.592,492" style="stroke:#222222;stroke-width:0.8000000000000002;"/><text fill="#000000" font-family="sans-serif" font-size="10.4" lengthAdjust="spacing" textLength="16.8" x="144" y="465.1961">has</text><text fill="#000000" font-family="sans-serif" font-size="10.4" lengthAdjust="spacing" textLength="16" x="97.5375" y="483.4529">1..*</text><!--MD5=[eea65289f68fb4479ac4929b798fd6e0]
link Costumer to BirthDate--><path codeLine="59" d="M211.2,429.72 C211.2,449.968 211.2,471.776 211.2,487.608 " fill="none" id="Costumer-to-BirthDate" style="stroke:#222222;stroke-width:0.8000000000000002;"/><polygon fill="#222222" points="211.2,491.704,214.4,484.504,211.2,487.704,208,484.504,211.2,491.704" style="stroke:#222222;stroke-width:0.8000000000000002;"/><text fill="#000000" font-family="sans-serif" font-size="10.4" lengthAdjust="spacing" textLength="17.6" x="191.455" y="483.4039">0..1</text><!--MD5=[0eb9801704286601b7e3de491eb749e6]
link Costumer to Gender--><path codeLine="60" d="M257.064,428.544 C274.944,449.656 294.4,472.624 308.144,488.848 " fill="none" id="Costumer-to-Gender" style="stroke:#222222;stroke-width:0.8000000000000002;"/><polygon fill="#222222" points="310.808,492,308.5988,484.437,308.2237,488.9469,303.7138,488.5718,310.808,492" style="stroke:#222222;stroke-width:0.8000000000000002;"/><text fill="#000000" font-family="sans-serif" font-size="10.4" lengthAdjust="spacing" textLength="17.6" x="286.9576" y="483.4529">0..1</text><!--MD5=[70c37dc9bfbc8656942103c36f1181e4]
link User to Role--><path codeLine="64" d="M85.192,101.912 C84.328,125.824 83.184,157.36 82.424,178.408 " fill="none" id="User-to-Role" style="stroke:#222222;stroke-width:0.8000000000000002;"/><polygon fill="#222222" points="82.28,182.472,85.745,175.3957,82.4285,178.4748,79.3494,175.1582,82.28,182.472" style="stroke:#222222;stroke-width:0.8000000000000002;"/><text fill="#000000" font-family="sans-serif" font-size="10.4" lengthAdjust="spacing" textLength="16" x="64.4958" y="174.1641">1..*</text><!--MD5=[1e9705534ea2f5f3045e58998aa20e5a]
reverse link User to Employee--><path codeLine="69" d="M120.824,105.032 C139.32,124.712 161.944,148.792 179.936,167.928 " fill="none" id="User-backto-Employee" style="stroke:#222222;stroke-width:0.8000000000000002;"/><polygon fill="#222222" points="117.896,101.912,120.5004,109.3482,120.6375,104.8248,125.1609,104.9619,117.896,101.912" style="stroke:#222222;stroke-width:0.8000000000000002;"/><text fill="#000000" font-family="sans-serif" font-size="10.4" lengthAdjust="spacing" textLength="5.6" x="116.6901" y="118.9565">1</text><!--MD5=[e1c92d187ea94b0dddac7a378c28d96c]
@startuml

skinparam classAttributeIconSize 0
hide empty attributes
skinparam classBackgroundColor beige
skinparam ArrowColor #222222

package "<<aggregate>> Costumer" {
    entity Costumer
    class Address
    class BirthDate
    class Gender
}

entity Costumer <<entity>> <<root>> {
    - CostumerID
    - <<VO>> Name
    - <<VO>> VAT
    - <<VO>> Email
    - <<VO>> PhoneNumber
    /'- <<VO>> BirthDate'/ /'optional'/
    /'- <<VO>> Gender'/ /'optional'/
}

class BirthDate <<(V,#FF8B40) value object>> {}
class Gender <<(V,#FF8B40) value object>> {}
class Address <<(V,#FF8B40) value object>> {}

package "<<aggregate>> Employee" {
    entity Employee
}

entity Employee <<entity>> <<root>> {
    - <<VO>> EmployeeID
}

package "<<aggregate>> User" {
    entity User
    class Role
    /'class Name
    class Password
    class Email'/
}

entity User <<entity>> <<root>> {
    - <<VO>> isActive
}



class Role <<(V,#FF8B40) value object>> {}
/'class Password <<(V,#FF8B40) value object>> {}
class Name <<(V,#FF8B40) value object>> {}
class Email <<(V,#FF8B40) value object>> {}'/


/'Salesclerk - -> "*" Costumer'/
Employee - -> "*" Costumer : registers a
Costumer - -> "1..*" Address : has
Costumer - -> "0..1" BirthDate
Costumer - -> "0..1" Gender

/'User "0..1" <- - Costumer'/

User - -> "1..*" Role
/'User - -> "1" Password
User - -> "1" Name
User - -> "1" Email'/

User "1" <- - Employee


@enduml

@startuml

skinparam classAttributeIconSize 0
hide empty attributes
skinparam classBackgroundColor beige
skinparam ArrowColor #222222

package "<<aggregate>> Costumer" {
    entity Costumer
    class Address
    class BirthDate
    class Gender
}

entity Costumer <<entity>> <<root>> {
    - CostumerID
    - <<VO>> Name
    - <<VO>> VAT
    - <<VO>> Email
    - <<VO>> PhoneNumber
}

class BirthDate <<(V,#FF8B40) value object>> {}
class Gender <<(V,#FF8B40) value object>> {}
class Address <<(V,#FF8B40) value object>> {}

package "<<aggregate>> Employee" {
    entity Employee
}

entity Employee <<entity>> <<root>> {
    - <<VO>> EmployeeID
}

package "<<aggregate>> User" {
    entity User
    class Role
}

entity User <<entity>> <<root>> {
    - <<VO>> isActive
}



class Role <<(V,#FF8B40) value object>> {}


Employee - -> "*" Costumer : registers a
Costumer - -> "1..*" Address : has
Costumer - -> "0..1" BirthDate
Costumer - -> "0..1" Gender


User - -> "1..*" Role

User "1" <- - Employee


@enduml

PlantUML version 1.2021.4(Sun Apr 04 09:49:39 BST 2021)
(GPL source distribution)
Java Runtime: OpenJDK Runtime Environment
JVM: OpenJDK 64-Bit Server VM
Default Encoding: Cp1252
Language: pt
Country: PT
--></g></svg>