<?xml version="1.0" encoding="UTF-8" standalone="no"?><svg xmlns="http://www.w3.org/2000/svg" xmlns:xlink="http://www.w3.org/1999/xlink" contentScriptType="application/ecmascript" contentStyleType="text/css" height="1128px" preserveAspectRatio="none" style="width:1617px;height:1128px;" version="1.1" viewBox="0 0 1617 1128" width="1617px" zoomAndPan="magnify"><defs><filter height="300%" id="f1rhpkl7ylj6bm" width="300%" x="-1" y="-1"><feGaussianBlur result="blurOut" stdDeviation="2.0"/><feColorMatrix in="blurOut" result="blurOut2" type="matrix" values="0 0 0 0 0 0 0 0 0 0 0 0 0 0 0 0 0 0 .4 0"/><feOffset dx="4.0" dy="4.0" in="blurOut2" result="blurOut3"/><feBlend in="SourceGraphic" in2="blurOut3" mode="normal"/></filter></defs><g><rect fill="#FFFFFF" filter="url(#f1rhpkl7ylj6bm)" height="923.4922" style="stroke:#A80036;stroke-width:1.0;" width="10" x="64" y="99.6094"/><rect fill="#FFFFFF" filter="url(#f1rhpkl7ylj6bm)" height="487.625" style="stroke:#A80036;stroke-width:1.0;" width="10" x="297" y="138.3125"/><rect fill="#FFFFFF" filter="url(#f1rhpkl7ylj6bm)" height="30" style="stroke:#A80036;stroke-width:1.0;" width="10" x="297" y="706.9922"/><rect fill="#FFFFFF" filter="url(#f1rhpkl7ylj6bm)" height="255.7578" style="stroke:#A80036;stroke-width:1.0;" width="10" x="297" y="767.3438"/><rect fill="#FFFFFF" filter="url(#f1rhpkl7ylj6bm)" height="396.5703" style="stroke:#A80036;stroke-width:1.0;" width="10" x="587" y="199.0156"/><rect fill="#FFFFFF" filter="url(#f1rhpkl7ylj6bm)" height="181.0547" style="stroke:#A80036;stroke-width:1.0;" width="10" x="587" y="797.6953"/><rect fill="#FFFFFF" filter="url(#f1rhpkl7ylj6bm)" height="335.8672" style="stroke:#A80036;stroke-width:1.0;" width="10" x="877" y="229.3672"/><rect fill="#FFFFFF" filter="url(#f1rhpkl7ylj6bm)" height="15" style="stroke:#A80036;stroke-width:1.0;" width="10" x="1016" y="527.8828"/><rect fill="#FFFFFF" filter="url(#f1rhpkl7ylj6bm)" height="30" style="stroke:#A80036;stroke-width:1.0;" width="10" x="1016" y="888.3984"/><rect fill="#FFFFFF" filter="url(#f1rhpkl7ylj6bm)" height="60.7031" style="stroke:#A80036;stroke-width:1.0;" width="10" x="1243" y="259.7188"/><rect fill="#FFFFFF" filter="url(#f1rhpkl7ylj6bm)" height="60.7031" style="stroke:#A80036;stroke-width:1.0;" width="10" x="1390" y="350.7734"/><rect fill="#FFFFFF" filter="url(#f1rhpkl7ylj6bm)" height="30.3516" style="stroke:#A80036;stroke-width:1.0;" width="10" x="1522.5" y="441.8281"/><rect fill="#FFFFFF" filter="url(#f1rhpkl7ylj6bm)" height="30" style="stroke:#A80036;stroke-width:1.0;" width="10" x="1522.5" y="828.0469"/><rect fill="#FFFFFF" filter="url(#f1rhpkl7ylj6bm)" height="30" style="stroke:#A80036;stroke-width:1.0;" width="10" x="1522.5" y="948.75"/><rect fill="#FFFFFF" filter="url(#f1rhpkl7ylj6bm)" height="48.7031" style="stroke:#000000;stroke-width:2.0;" width="288" x="795" y="487.1797"/><rect fill="#FFFFFF" filter="url(#f1rhpkl7ylj6bm)" height="352.8125" style="stroke:#000000;stroke-width:2.0;" width="1593" x="10" y="640.9375"/><rect fill="#FFFFFF" filter="url(#f1rhpkl7ylj6bm)" height="320.4609" style="stroke:#000000;stroke-width:2.0;" width="1573" x="20" y="666.2891"/><line style="stroke:#A80036;stroke-width:1.0;stroke-dasharray:5.0,5.0;" x1="69" x2="69" y1="89.6094" y2="1041.1016"/><line style="stroke:#A80036;stroke-width:1.0;stroke-dasharray:5.0,5.0;" x1="302" x2="302" y1="89.6094" y2="1041.1016"/><line style="stroke:#A80036;stroke-width:1.0;stroke-dasharray:5.0,5.0;" x1="592" x2="592" y1="89.6094" y2="1041.1016"/><line style="stroke:#A80036;stroke-width:1.0;stroke-dasharray:5.0,5.0;" x1="882" x2="882" y1="89.6094" y2="1041.1016"/><line style="stroke:#A80036;stroke-width:1.0;stroke-dasharray:5.0,5.0;" x1="1021" x2="1021" y1="89.6094" y2="1041.1016"/><line style="stroke:#A80036;stroke-width:1.0;stroke-dasharray:5.0,5.0;" x1="1125" x2="1125" y1="89.6094" y2="1041.1016"/><line style="stroke:#A80036;stroke-width:1.0;stroke-dasharray:5.0,5.0;" x1="1248" x2="1248" y1="89.6094" y2="1041.1016"/><line style="stroke:#A80036;stroke-width:1.0;stroke-dasharray:5.0,5.0;" x1="1395" x2="1395" y1="89.6094" y2="1041.1016"/><line style="stroke:#A80036;stroke-width:1.0;stroke-dasharray:5.0,5.0;" x1="1527" x2="1527" y1="89.6094" y2="1041.1016"/><text fill="#000000" font-family="sans-serif" font-size="14" lengthAdjust="spacing" textLength="72" x="30" y="86.5332">Sales Clerk</text><ellipse cx="69" cy="15" fill="#FEFECE" filter="url(#f1rhpkl7ylj6bm)" rx="8" ry="8" style="stroke:#A80036;stroke-width:2.0;"/><path d="M69,23 L69,50 M56,31 L82,31 M69,50 L56,65 M69,50 L82,65 " fill="none" filter="url(#f1rhpkl7ylj6bm)" style="stroke:#A80036;stroke-width:2.0;"/><text fill="#000000" font-family="sans-serif" font-size="14" lengthAdjust="spacing" textLength="72" x="30" y="1054.6348">Sales Clerk</text><ellipse cx="69" cy="1067.7109" fill="#FEFECE" filter="url(#f1rhpkl7ylj6bm)" rx="8" ry="8" style="stroke:#A80036;stroke-width:2.0;"/><path d="M69,1075.7109 L69,1102.7109 M56,1083.7109 L82,1083.7109 M69,1102.7109 L56,1117.7109 M69,1102.7109 L82,1117.7109 " fill="none" filter="url(#f1rhpkl7ylj6bm)" style="stroke:#A80036;stroke-width:2.0;"/><rect fill="#FEFECE" filter="url(#f1rhpkl7ylj6bm)" height="49.2188" style="stroke:#A80036;stroke-width:1.5;" width="206" x="197" y="35.3906"/><text fill="#000000" font-family="sans-serif" font-size="14" font-style="italic" lengthAdjust="spacing" textLength="95" x="252.5" y="56.9238">«presentation»</text><text fill="#000000" font-family="sans-serif" font-size="14" lengthAdjust="spacing" textLength="192" x="204" y="74.5332">ViewOrdersSentToCustomerUI</text><rect fill="#FEFECE" filter="url(#f1rhpkl7ylj6bm)" height="49.2188" style="stroke:#A80036;stroke-width:1.5;" width="206" x="197" y="1040.1016"/><text fill="#000000" font-family="sans-serif" font-size="14" font-style="italic" lengthAdjust="spacing" textLength="95" x="252.5" y="1061.6348">«presentation»</text><text fill="#000000" font-family="sans-serif" font-size="14" lengthAdjust="spacing" textLength="192" x="204" y="1079.2441">ViewOrdersSentToCustomerUI</text><rect fill="#FEFECE" filter="url(#f1rhpkl7ylj6bm)" height="49.2188" style="stroke:#A80036;stroke-width:1.5;" width="256" x="462" y="35.3906"/><text fill="#000000" font-family="sans-serif" font-size="14" font-style="italic" lengthAdjust="spacing" textLength="84" x="548" y="56.9238">«application»</text><text fill="#000000" font-family="sans-serif" font-size="14" lengthAdjust="spacing" textLength="242" x="469" y="74.5332">ViewOrdersSentToCustomerController</text><rect fill="#FEFECE" filter="url(#f1rhpkl7ylj6bm)" height="49.2188" style="stroke:#A80036;stroke-width:1.5;" width="256" x="462" y="1040.1016"/><text fill="#000000" font-family="sans-serif" font-size="14" font-style="italic" lengthAdjust="spacing" textLength="84" x="548" y="1061.6348">«application»</text><text fill="#000000" font-family="sans-serif" font-size="14" lengthAdjust="spacing" textLength="242" x="469" y="1079.2441">ViewOrdersSentToCustomerController</text><rect fill="#FEFECE" filter="url(#f1rhpkl7ylj6bm)" height="49.2188" style="stroke:#A80036;stroke-width:1.5;" width="150" x="805" y="35.3906"/><text fill="#000000" font-family="sans-serif" font-size="14" font-style="italic" lengthAdjust="spacing" textLength="84" x="838" y="56.9238">«application»</text><text fill="#000000" font-family="sans-serif" font-size="14" lengthAdjust="spacing" textLength="136" x="812" y="74.5332">ListOrderDTOService</text><rect fill="#FEFECE" filter="url(#f1rhpkl7ylj6bm)" height="49.2188" style="stroke:#A80036;stroke-width:1.5;" width="150" x="805" y="1040.1016"/><text fill="#000000" font-family="sans-serif" font-size="14" font-style="italic" lengthAdjust="spacing" textLength="84" x="838" y="1061.6348">«application»</text><text fill="#000000" font-family="sans-serif" font-size="14" lengthAdjust="spacing" textLength="136" x="812" y="1079.2441">ListOrderDTOService</text><rect fill="#FEFECE" filter="url(#f1rhpkl7ylj6bm)" height="49.2188" style="stroke:#A80036;stroke-width:1.5;" width="100" x="969" y="35.3906"/><text fill="#000000" font-family="sans-serif" font-size="14" font-style="italic" lengthAdjust="spacing" textLength="62" x="988" y="56.9238">«domain»</text><text fill="#000000" font-family="sans-serif" font-size="14" lengthAdjust="spacing" textLength="86" x="976" y="74.5332">ProductOrder</text><rect fill="#FEFECE" filter="url(#f1rhpkl7ylj6bm)" height="49.2188" style="stroke:#A80036;stroke-width:1.5;" width="100" x="969" y="1040.1016"/><text fill="#000000" font-family="sans-serif" font-size="14" font-style="italic" lengthAdjust="spacing" textLength="62" x="988" y="1061.6348">«domain»</text><text fill="#000000" font-family="sans-serif" font-size="14" lengthAdjust="spacing" textLength="86" x="976" y="1079.2441">ProductOrder</text><rect fill="#FEFECE" filter="url(#f1rhpkl7ylj6bm)" height="49.2188" style="stroke:#A80036;stroke-width:1.5;" width="81" x="1083" y="35.3906"/><text fill="#000000" font-family="sans-serif" font-size="14" font-style="italic" lengthAdjust="spacing" textLength="36" x="1105.5" y="56.9238">«dto»</text><text fill="#000000" font-family="sans-serif" font-size="14" lengthAdjust="spacing" textLength="67" x="1090" y="74.5332">OrderDTO</text><rect fill="#FEFECE" filter="url(#f1rhpkl7ylj6bm)" height="49.2188" style="stroke:#A80036;stroke-width:1.5;" width="81" x="1083" y="1040.1016"/><text fill="#000000" font-family="sans-serif" font-size="14" font-style="italic" lengthAdjust="spacing" textLength="36" x="1105.5" y="1061.6348">«dto»</text><text fill="#000000" font-family="sans-serif" font-size="14" lengthAdjust="spacing" textLength="67" x="1090" y="1079.2441">OrderDTO</text><rect fill="#FEFECE" filter="url(#f1rhpkl7ylj6bm)" height="49.2188" style="stroke:#A80036;stroke-width:1.5;" width="136" x="1178" y="35.3906"/><text fill="#000000" font-family="sans-serif" font-size="14" font-style="italic" lengthAdjust="spacing" textLength="89" x="1201.5" y="56.9238">«persistence»</text><text fill="#000000" font-family="sans-serif" font-size="14" lengthAdjust="spacing" textLength="122" x="1185" y="74.5332">PersistenceContext</text><rect fill="#FEFECE" filter="url(#f1rhpkl7ylj6bm)" height="49.2188" style="stroke:#A80036;stroke-width:1.5;" width="136" x="1178" y="1040.1016"/><text fill="#000000" font-family="sans-serif" font-size="14" font-style="italic" lengthAdjust="spacing" textLength="89" x="1201.5" y="1061.6348">«persistence»</text><text fill="#000000" font-family="sans-serif" font-size="14" lengthAdjust="spacing" textLength="122" x="1185" y="1079.2441">PersistenceContext</text><rect fill="#FEFECE" filter="url(#f1rhpkl7ylj6bm)" height="49.2188" style="stroke:#A80036;stroke-width:1.5;" width="130" x="1328" y="35.3906"/><text fill="#000000" font-family="sans-serif" font-size="14" font-style="italic" lengthAdjust="spacing" textLength="59" x="1363.5" y="56.9238">«factory»</text><text fill="#000000" font-family="sans-serif" font-size="14" lengthAdjust="spacing" textLength="116" x="1335" y="74.5332">RepositoryFactory</text><rect fill="#FEFECE" filter="url(#f1rhpkl7ylj6bm)" height="49.2188" style="stroke:#A80036;stroke-width:1.5;" width="130" x="1328" y="1040.1016"/><text fill="#000000" font-family="sans-serif" font-size="14" font-style="italic" lengthAdjust="spacing" textLength="59" x="1363.5" y="1061.6348">«factory»</text><text fill="#000000" font-family="sans-serif" font-size="14" lengthAdjust="spacing" textLength="116" x="1335" y="1079.2441">RepositoryFactory</text><text fill="#000000" font-family="sans-serif" font-size="14" font-style="italic" lengthAdjust="spacing" textLength="79" x="1485" y="68.9238">«repository»</text><text fill="#000000" font-family="sans-serif" font-size="14" lengthAdjust="spacing" textLength="105" x="1472" y="86.5332">OrderRepository</text><path d="M1509.5,18.3906 C1509.5,8.3906 1527.5,8.3906 1527.5,8.3906 C1527.5,8.3906 1545.5,8.3906 1545.5,18.3906 L1545.5,44.3906 C1545.5,54.3906 1527.5,54.3906 1527.5,54.3906 C1527.5,54.3906 1509.5,54.3906 1509.5,44.3906 L1509.5,18.3906 " fill="#FEFECE" filter="url(#f1rhpkl7ylj6bm)" style="stroke:#000000;stroke-width:1.5;"/><path d="M1509.5,18.3906 C1509.5,28.3906 1527.5,28.3906 1527.5,28.3906 C1527.5,28.3906 1545.5,28.3906 1545.5,18.3906 " fill="none" style="stroke:#000000;stroke-width:1.5;"/><text fill="#000000" font-family="sans-serif" font-size="14" font-style="italic" lengthAdjust="spacing" textLength="79" x="1485" y="1054.6348">«repository»</text><text fill="#000000" font-family="sans-serif" font-size="14" lengthAdjust="spacing" textLength="105" x="1472" y="1072.2441">OrderRepository</text><path d="M1509.5,1085.3203 C1509.5,1075.3203 1527.5,1075.3203 1527.5,1075.3203 C1527.5,1075.3203 1545.5,1075.3203 1545.5,1085.3203 L1545.5,1111.3203 C1545.5,1121.3203 1527.5,1121.3203 1527.5,1121.3203 C1527.5,1121.3203 1509.5,1121.3203 1509.5,1111.3203 L1509.5,1085.3203 " fill="#FEFECE" filter="url(#f1rhpkl7ylj6bm)" style="stroke:#000000;stroke-width:1.5;"/><path d="M1509.5,1085.3203 C1509.5,1095.3203 1527.5,1095.3203 1527.5,1095.3203 C1527.5,1095.3203 1545.5,1095.3203 1545.5,1085.3203 " fill="none" style="stroke:#000000;stroke-width:1.5;"/><rect fill="#FFFFFF" filter="url(#f1rhpkl7ylj6bm)" height="923.4922" style="stroke:#A80036;stroke-width:1.0;" width="10" x="64" y="99.6094"/><rect fill="#FFFFFF" filter="url(#f1rhpkl7ylj6bm)" height="487.625" style="stroke:#A80036;stroke-width:1.0;" width="10" x="297" y="138.3125"/><rect fill="#FFFFFF" filter="url(#f1rhpkl7ylj6bm)" height="30" style="stroke:#A80036;stroke-width:1.0;" width="10" x="297" y="706.9922"/><rect fill="#FFFFFF" filter="url(#f1rhpkl7ylj6bm)" height="255.7578" style="stroke:#A80036;stroke-width:1.0;" width="10" x="297" y="767.3438"/><rect fill="#FFFFFF" filter="url(#f1rhpkl7ylj6bm)" height="396.5703" style="stroke:#A80036;stroke-width:1.0;" width="10" x="587" y="199.0156"/><rect fill="#FFFFFF" filter="url(#f1rhpkl7ylj6bm)" height="181.0547" style="stroke:#A80036;stroke-width:1.0;" width="10" x="587" y="797.6953"/><rect fill="#FFFFFF" filter="url(#f1rhpkl7ylj6bm)" height="335.8672" style="stroke:#A80036;stroke-width:1.0;" width="10" x="877" y="229.3672"/><rect fill="#FFFFFF" filter="url(#f1rhpkl7ylj6bm)" height="15" style="stroke:#A80036;stroke-width:1.0;" width="10" x="1016" y="527.8828"/><rect fill="#FFFFFF" filter="url(#f1rhpkl7ylj6bm)" height="30" style="stroke:#A80036;stroke-width:1.0;" width="10" x="1016" y="888.3984"/><rect fill="#FFFFFF" filter="url(#f1rhpkl7ylj6bm)" height="60.7031" style="stroke:#A80036;stroke-width:1.0;" width="10" x="1243" y="259.7188"/><rect fill="#FFFFFF" filter="url(#f1rhpkl7ylj6bm)" height="60.7031" style="stroke:#A80036;stroke-width:1.0;" width="10" x="1390" y="350.7734"/><rect fill="#FFFFFF" filter="url(#f1rhpkl7ylj6bm)" height="30.3516" style="stroke:#A80036;stroke-width:1.0;" width="10" x="1522.5" y="441.8281"/><rect fill="#FFFFFF" filter="url(#f1rhpkl7ylj6bm)" height="30" style="stroke:#A80036;stroke-width:1.0;" width="10" x="1522.5" y="828.0469"/><rect fill="#FFFFFF" filter="url(#f1rhpkl7ylj6bm)" height="30" style="stroke:#A80036;stroke-width:1.0;" width="10" x="1522.5" y="948.75"/><polygon fill="#A80036" points="285,134.3125,295,138.3125,285,142.3125,289,138.3125" style="stroke:#A80036;stroke-width:1.0;"/><line style="stroke:#A80036;stroke-width:1.0;" x1="74" x2="291" y1="138.3125" y2="138.3125"/><text fill="#000000" font-family="sans-serif" font-size="13" font-weight="bold" lengthAdjust="spacing" textLength="7" x="81" y="125.2803">1</text><text fill="#000000" font-family="sans-serif" font-size="13" lengthAdjust="spacing" textLength="178" x="92" y="117.1045">quer visualizar as encomendas</text><text fill="#000000" font-family="sans-serif" font-size="13" lengthAdjust="spacing" textLength="181" x="92" y="133.4561">no estado Dispatched for Client</text><polygon fill="#A80036" points="580,164.6641,590,168.6641,580,172.6641,584,168.6641" style="stroke:#A80036;stroke-width:1.0;"/><line style="stroke:#A80036;stroke-width:1.0;" x1="307" x2="586" y1="168.6641" y2="168.6641"/><text fill="#000000" font-family="sans-serif" font-size="13" font-weight="bold" lengthAdjust="spacing" textLength="7" x="314" y="163.8076">2</text><text fill="#000000" font-family="sans-serif" font-size="13" lengthAdjust="spacing" textLength="36" x="325" y="163.8076">create</text><polygon fill="#A80036" points="575,195.0156,585,199.0156,575,203.0156,579,199.0156" style="stroke:#A80036;stroke-width:1.0;"/><line style="stroke:#A80036;stroke-width:1.0;" x1="307" x2="581" y1="199.0156" y2="199.0156"/><text fill="#000000" font-family="sans-serif" font-size="13" font-weight="bold" lengthAdjust="spacing" textLength="7" x="314" y="194.1592">3</text><text fill="#000000" font-family="sans-serif" font-size="13" lengthAdjust="spacing" textLength="250" x="325" y="194.1592">getOrdersDispatchedForCustomerDelivery()</text><polygon fill="#A80036" points="865,225.3672,875,229.3672,865,233.3672,869,229.3672" style="stroke:#A80036;stroke-width:1.0;"/><line style="stroke:#A80036;stroke-width:1.0;" x1="597" x2="871" y1="229.3672" y2="229.3672"/><text fill="#000000" font-family="sans-serif" font-size="13" font-weight="bold" lengthAdjust="spacing" textLength="7" x="604" y="224.5107">4</text><text fill="#000000" font-family="sans-serif" font-size="13" lengthAdjust="spacing" textLength="250" x="615" y="224.5107">getOrdersDispatchedForCustomerDelivery()</text><polygon fill="#A80036" points="1231,255.7188,1241,259.7188,1231,263.7188,1235,259.7188" style="stroke:#A80036;stroke-width:1.0;"/><line style="stroke:#A80036;stroke-width:1.0;" x1="887" x2="1237" y1="259.7188" y2="259.7188"/><text fill="#000000" font-family="sans-serif" font-size="13" font-weight="bold" lengthAdjust="spacing" textLength="7" x="894" y="254.8623">5</text><text fill="#000000" font-family="sans-serif" font-size="13" lengthAdjust="spacing" textLength="75" x="905" y="254.8623">repositories()</text><polygon fill="#A80036" points="1383,286.0703,1393,290.0703,1383,294.0703,1387,290.0703" style="stroke:#A80036;stroke-width:1.0;"/><line style="stroke:#A80036;stroke-width:1.0;" x1="1253" x2="1389" y1="290.0703" y2="290.0703"/><text fill="#000000" font-family="sans-serif" font-size="13" font-weight="bold" lengthAdjust="spacing" textLength="7" x="1260" y="285.2139">6</text><text fill="#000000" font-family="sans-serif" font-size="13" lengthAdjust="spacing" textLength="36" x="1271" y="285.2139">create</text><polygon fill="#A80036" points="898,316.4219,888,320.4219,898,324.4219,894,320.4219" style="stroke:#A80036;stroke-width:1.0;"/><line style="stroke:#A80036;stroke-width:1.0;" x1="892" x2="1247" y1="320.4219" y2="320.4219"/><text fill="#000000" font-family="sans-serif" font-size="13" font-weight="bold" lengthAdjust="spacing" textLength="7" x="904" y="315.5654">7</text><text fill="#000000" font-family="sans-serif" font-size="13" lengthAdjust="spacing" textLength="39" x="915" y="315.5654">factory</text><polygon fill="#A80036" points="1378,346.7734,1388,350.7734,1378,354.7734,1382,350.7734" style="stroke:#A80036;stroke-width:1.0;"/><line style="stroke:#A80036;stroke-width:1.0;" x1="887" x2="1384" y1="350.7734" y2="350.7734"/><text fill="#000000" font-family="sans-serif" font-size="13" font-weight="bold" lengthAdjust="spacing" textLength="7" x="894" y="345.917">8</text><text fill="#000000" font-family="sans-serif" font-size="13" lengthAdjust="spacing" textLength="44" x="905" y="345.917">orders()</text><polygon fill="#A80036" points="1515.5,377.125,1525.5,381.125,1515.5,385.125,1519.5,381.125" style="stroke:#A80036;stroke-width:1.0;"/><line style="stroke:#A80036;stroke-width:1.0;" x1="1400" x2="1521.5" y1="381.125" y2="381.125"/><text fill="#000000" font-family="sans-serif" font-size="13" font-weight="bold" lengthAdjust="spacing" textLength="7" x="1407" y="376.2686">9</text><text fill="#000000" font-family="sans-serif" font-size="13" lengthAdjust="spacing" textLength="36" x="1418" y="376.2686">create</text><polygon fill="#A80036" points="898,407.4766,888,411.4766,898,415.4766,894,411.4766" style="stroke:#A80036;stroke-width:1.0;"/><line style="stroke:#A80036;stroke-width:1.0;" x1="892" x2="1394" y1="411.4766" y2="411.4766"/><text fill="#000000" font-family="sans-serif" font-size="13" font-weight="bold" lengthAdjust="spacing" textLength="14" x="904" y="406.6201">10</text><text fill="#000000" font-family="sans-serif" font-size="13" lengthAdjust="spacing" textLength="91" x="922" y="406.6201">orderRepository</text><polygon fill="#A80036" points="1510.5,437.8281,1520.5,441.8281,1510.5,445.8281,1514.5,441.8281" style="stroke:#A80036;stroke-width:1.0;"/><line style="stroke:#A80036;stroke-width:1.0;" x1="887" x2="1516.5" y1="441.8281" y2="441.8281"/><text fill="#000000" font-family="sans-serif" font-size="13" font-weight="bold" lengthAdjust="spacing" textLength="14" x="894" y="436.9717">11</text><text fill="#000000" font-family="sans-serif" font-size="13" lengthAdjust="spacing" textLength="252" x="912" y="436.9717">findOrdersDispatchedForCustomerDelivery()</text><polygon fill="#A80036" points="898,468.1797,888,472.1797,898,476.1797,894,472.1797" style="stroke:#A80036;stroke-width:1.0;"/><line style="stroke:#A80036;stroke-width:1.0;stroke-dasharray:2.0,2.0;" x1="892" x2="1526.5" y1="472.1797" y2="472.1797"/><text fill="#000000" font-family="sans-serif" font-size="13" font-weight="bold" lengthAdjust="spacing" textLength="14" x="904" y="467.3232">12</text><text fill="#000000" font-family="sans-serif" font-size="13" lengthAdjust="spacing" textLength="57" x="922" y="467.3232">ordersList</text><path d="M795,487.1797 L868,487.1797 L868,495.1797 L858,505.1797 L795,505.1797 L795,487.1797 " fill="#EEEEEE" style="stroke:#000000;stroke-width:1.0;"/><rect fill="none" height="48.7031" style="stroke:#000000;stroke-width:2.0;" width="288" x="795" y="487.1797"/><text fill="#000000" font-family="sans-serif" font-size="13" font-weight="bold" lengthAdjust="spacing" textLength="28" x="810" y="501.6748">loop</text><polygon fill="#A80036" points="1004,523.8828,1014,527.8828,1004,531.8828,1008,527.8828" style="stroke:#A80036;stroke-width:1.0;"/><line style="stroke:#A80036;stroke-width:1.0;" x1="887" x2="1010" y1="527.8828" y2="527.8828"/><text fill="#000000" font-family="sans-serif" font-size="13" font-weight="bold" lengthAdjust="spacing" textLength="14" x="894" y="523.0264">13</text><text fill="#000000" font-family="sans-serif" font-size="13" lengthAdjust="spacing" textLength="45" x="912" y="523.0264">toDTO()</text><polygon fill="#A80036" points="608,561.2344,598,565.2344,608,569.2344,604,565.2344" style="stroke:#A80036;stroke-width:1.0;"/><line style="stroke:#A80036;stroke-width:1.0;stroke-dasharray:2.0,2.0;" x1="602" x2="881" y1="565.2344" y2="565.2344"/><text fill="#000000" font-family="sans-serif" font-size="13" font-weight="bold" lengthAdjust="spacing" textLength="14" x="614" y="560.3779">14</text><text fill="#000000" font-family="sans-serif" font-size="13" lengthAdjust="spacing" textLength="83" x="632" y="560.3779">ordersListDTO</text><polygon fill="#A80036" points="318,591.5859,308,595.5859,318,599.5859,314,595.5859" style="stroke:#A80036;stroke-width:1.0;"/><line style="stroke:#A80036;stroke-width:1.0;stroke-dasharray:2.0,2.0;" x1="312" x2="591" y1="595.5859" y2="595.5859"/><text fill="#000000" font-family="sans-serif" font-size="13" font-weight="bold" lengthAdjust="spacing" textLength="14" x="324" y="590.7295">15</text><text fill="#000000" font-family="sans-serif" font-size="13" lengthAdjust="spacing" textLength="83" x="342" y="590.7295">ordersListDTO</text><polygon fill="#A80036" points="85,621.9375,75,625.9375,85,629.9375,81,625.9375" style="stroke:#A80036;stroke-width:1.0;"/><line style="stroke:#A80036;stroke-width:1.0;stroke-dasharray:2.0,2.0;" x1="79" x2="301" y1="625.9375" y2="625.9375"/><text fill="#000000" font-family="sans-serif" font-size="13" font-weight="bold" lengthAdjust="spacing" textLength="14" x="91" y="621.0811">16</text><text fill="#000000" font-family="sans-serif" font-size="13" lengthAdjust="spacing" textLength="175" x="109" y="621.0811">mostra a lista de encomendas</text><path d="M10,640.9375 L83,640.9375 L83,648.9375 L73,658.9375 L10,658.9375 L10,640.9375 " fill="#EEEEEE" style="stroke:#000000;stroke-width:1.0;"/><rect fill="none" height="352.8125" style="stroke:#000000;stroke-width:2.0;" width="1593" x="10" y="640.9375"/><text fill="#000000" font-family="sans-serif" font-size="13" font-weight="bold" lengthAdjust="spacing" textLength="28" x="25" y="655.4326">loop</text><text fill="#000000" font-family="sans-serif" font-size="11" font-weight="bold" lengthAdjust="spacing" textLength="284" x="98" y="654.3564">[enquanto desejar alterar o status de encomendas]</text><path d="M20,666.2891 L81,666.2891 L81,674.2891 L71,684.2891 L20,684.2891 L20,666.2891 " fill="#EEEEEE" style="stroke:#000000;stroke-width:1.0;"/><rect fill="none" height="320.4609" style="stroke:#000000;stroke-width:2.0;" width="1573" x="20" y="666.2891"/><text fill="#000000" font-family="sans-serif" font-size="13" font-weight="bold" lengthAdjust="spacing" textLength="16" x="35" y="680.7842">alt</text><text fill="#000000" font-family="sans-serif" font-size="11" font-weight="bold" lengthAdjust="spacing" textLength="132" x="96" y="679.708">[deseja alterar o status]</text><polygon fill="#A80036" points="85,702.9922,75,706.9922,85,710.9922,81,706.9922" style="stroke:#A80036;stroke-width:1.0;"/><line style="stroke:#A80036;stroke-width:1.0;stroke-dasharray:2.0,2.0;" x1="79" x2="296" y1="706.9922" y2="706.9922"/><text fill="#000000" font-family="sans-serif" font-size="13" font-weight="bold" lengthAdjust="spacing" textLength="14" x="91" y="702.1357">17</text><text fill="#000000" font-family="sans-serif" font-size="13" lengthAdjust="spacing" textLength="155" x="109" y="702.1357">solicita o id da encomenda</text><polygon fill="#A80036" points="285,763.3438,295,767.3438,285,771.3438,289,767.3438" style="stroke:#A80036;stroke-width:1.0;"/><line style="stroke:#A80036;stroke-width:1.0;" x1="74" x2="291" y1="767.3438" y2="767.3438"/><text fill="#000000" font-family="sans-serif" font-size="13" font-weight="bold" lengthAdjust="spacing" textLength="14" x="81" y="762.4873">18</text><text fill="#000000" font-family="sans-serif" font-size="13" lengthAdjust="spacing" textLength="71" x="99" y="762.4873">introduz o id</text><polygon fill="#A80036" points="575,793.6953,585,797.6953,575,801.6953,579,797.6953" style="stroke:#A80036;stroke-width:1.0;"/><line style="stroke:#A80036;stroke-width:1.0;" x1="307" x2="581" y1="797.6953" y2="797.6953"/><text fill="#000000" font-family="sans-serif" font-size="13" font-weight="bold" lengthAdjust="spacing" textLength="14" x="314" y="792.8389">19</text><text fill="#000000" font-family="sans-serif" font-size="13" lengthAdjust="spacing" textLength="226" x="332" y="792.8389">changeStatusToBeingDelivered(orderId)</text><polygon fill="#A80036" points="1510.5,824.0469,1520.5,828.0469,1510.5,832.0469,1514.5,828.0469" style="stroke:#A80036;stroke-width:1.0;"/><line style="stroke:#A80036;stroke-width:1.0;" x1="597" x2="1516.5" y1="828.0469" y2="828.0469"/><text fill="#000000" font-family="sans-serif" font-size="13" font-weight="bold" lengthAdjust="spacing" textLength="14" x="604" y="823.1904">20</text><text fill="#000000" font-family="sans-serif" font-size="13" lengthAdjust="spacing" textLength="179" x="622" y="823.1904">findByNumericIdentifier(orderId)</text><polygon fill="#A80036" points="1004,884.3984,1014,888.3984,1004,892.3984,1008,888.3984" style="stroke:#A80036;stroke-width:1.0;"/><line style="stroke:#A80036;stroke-width:1.0;" x1="597" x2="1010" y1="888.3984" y2="888.3984"/><text fill="#000000" font-family="sans-serif" font-size="13" font-weight="bold" lengthAdjust="spacing" textLength="14" x="604" y="883.542">21</text><text fill="#000000" font-family="sans-serif" font-size="13" lengthAdjust="spacing" textLength="187" x="622" y="883.542">changeStatusToBeingDelivered()</text><polygon fill="#A80036" points="1510.5,944.75,1520.5,948.75,1510.5,952.75,1514.5,948.75" style="stroke:#A80036;stroke-width:1.0;"/><line style="stroke:#A80036;stroke-width:1.0;stroke-dasharray:2.0,2.0;" x1="597" x2="1516.5" y1="948.75" y2="948.75"/><text fill="#000000" font-family="sans-serif" font-size="13" font-weight="bold" lengthAdjust="spacing" textLength="14" x="604" y="943.8936">22</text><text fill="#000000" font-family="sans-serif" font-size="13" lengthAdjust="spacing" textLength="63" x="622" y="943.8936">save(order)</text><polygon fill="#A80036" points="80,1019.1016,70,1023.1016,80,1027.1016,76,1023.1016" style="stroke:#A80036;stroke-width:1.0;"/><line style="stroke:#A80036;stroke-width:1.0;stroke-dasharray:2.0,2.0;" x1="74" x2="301" y1="1023.1016" y2="1023.1016"/><text fill="#000000" font-family="sans-serif" font-size="13" font-weight="bold" lengthAdjust="spacing" textLength="14" x="86" y="1018.2451">23</text><text fill="#000000" font-family="sans-serif" font-size="13" lengthAdjust="spacing" textLength="181" x="104" y="1018.2451">informa o sucesso da operação</text><!--MD5=[f75603f8db7b4cabcf92130977da07bc]
@startuml

autonumber
actor "Sales Clerk" as SC
participant ViewOrdersSentToCustomerUI as UI <<presentation>>
participant ViewOrdersSentToCustomerController as Controller <<application>>
participant ListOrderDTOService as serv <<application>>
participant "ProductOrder" as Domain <<domain>>
participant "OrderDTO" as DTO <<dto>>
participant PersistenceContext as Persistence <<persistence>>
participant RepositoryFactory as Factory <<factory>>
database OrderRepository as repository <<repository>>

activate SC
SC -> UI : quer visualizar as encomendas\nno estado Dispatched for Client
activate UI
UI -> Controller: create
UI -> Controller: getOrdersDispatchedForCustomerDelivery()
activate Controller
Controller -> serv: getOrdersDispatchedForCustomerDelivery()
activate serv
serv -> Persistence: repositories()
activate Persistence
Persistence -> Factory: create
Persistence -> serv: factory
deactivate Persistence
serv -> Factory: orders()
activate Factory
Factory -> repository: create
Factory -> serv: orderRepository
deactivate Factory
serv->repository:findOrdersDispatchedForCustomerDelivery()
activate repository
repository - -> serv: ordersList
deactivate repository
loop
serv -> Domain: toDTO()
activate Domain
end
deactivate Domain
serv - -> Controller: ordersListDTO
deactivate serv
Controller - -> UI: ordersListDTO
deactivate Controller
UI - -> SC : mostra a lista de encomendas
deactivate UI
loop enquanto desejar alterar o status de encomendas
/'SC -> UI : Pergunta se pretende alterar o status de alguma\nencomenda para Being Delivered
activate UI'/
alt deseja alterar o status
UI - -> SC : solicita o id da encomenda
activate UI
deactivate UI
SC -> UI : introduz o id
activate UI
UI -> Controller: changeStatusToBeingDelivered(orderId)
activate Controller
Controller->repository:findByNumericIdentifier(orderId)
activate repository
deactivate repository
Controller -> Domain: changeStatusToBeingDelivered()
activate Domain
deactivate Domain
Controller - -> repository: save(order)
activate repository
deactivate repository
deactivate Controller
end
end
UI - -> SC : informa o sucesso da operação
deactivate UI
deactivate SC

@enduml

@startuml

autonumber
actor "Sales Clerk" as SC
participant ViewOrdersSentToCustomerUI as UI <<presentation>>
participant ViewOrdersSentToCustomerController as Controller <<application>>
participant ListOrderDTOService as serv <<application>>
participant "ProductOrder" as Domain <<domain>>
participant "OrderDTO" as DTO <<dto>>
participant PersistenceContext as Persistence <<persistence>>
participant RepositoryFactory as Factory <<factory>>
database OrderRepository as repository <<repository>>

activate SC
SC -> UI : quer visualizar as encomendas\nno estado Dispatched for Client
activate UI
UI -> Controller: create
UI -> Controller: getOrdersDispatchedForCustomerDelivery()
activate Controller
Controller -> serv: getOrdersDispatchedForCustomerDelivery()
activate serv
serv -> Persistence: repositories()
activate Persistence
Persistence -> Factory: create
Persistence -> serv: factory
deactivate Persistence
serv -> Factory: orders()
activate Factory
Factory -> repository: create
Factory -> serv: orderRepository
deactivate Factory
serv->repository:findOrdersDispatchedForCustomerDelivery()
activate repository
repository - -> serv: ordersList
deactivate repository
loop
serv -> Domain: toDTO()
activate Domain
end
deactivate Domain
serv - -> Controller: ordersListDTO
deactivate serv
Controller - -> UI: ordersListDTO
deactivate Controller
UI - -> SC : mostra a lista de encomendas
deactivate UI
loop enquanto desejar alterar o status de encomendas
alt deseja alterar o status
UI - -> SC : solicita o id da encomenda
activate UI
deactivate UI
SC -> UI : introduz o id
activate UI
UI -> Controller: changeStatusToBeingDelivered(orderId)
activate Controller
Controller->repository:findByNumericIdentifier(orderId)
activate repository
deactivate repository
Controller -> Domain: changeStatusToBeingDelivered()
activate Domain
deactivate Domain
Controller - -> repository: save(order)
activate repository
deactivate repository
deactivate Controller
end
end
UI - -> SC : informa o sucesso da operação
deactivate UI
deactivate SC

@enduml

PlantUML version 1.2021.4(Sun Apr 04 09:49:39 BST 2021)
(GPL source distribution)
Java Runtime: OpenJDK Runtime Environment
JVM: OpenJDK 64-Bit Server VM
Default Encoding: Cp1252
Language: pt
Country: PT
--></g></svg>