<?xml version="1.0" encoding="UTF-8" standalone="no"?><svg xmlns="http://www.w3.org/2000/svg" xmlns:xlink="http://www.w3.org/1999/xlink" contentScriptType="application/ecmascript" contentStyleType="text/css" height="455.2px" preserveAspectRatio="none" style="width:344px;height:455px;" version="1.1" viewBox="0 0 344 455" width="344px" zoomAndPan="magnify"><defs><filter height="300%" id="f64ytr9s48wf4" width="300%" x="-1" y="-1"><feGaussianBlur result="blurOut" stdDeviation="0.8000000000000002"/><feColorMatrix in="blurOut" result="blurOut2" type="matrix" values="0 0 0 0 0 0 0 0 0 0 0 0 0 0 0 0 0 0 .4 0"/><feOffset dx="1.6000000000000003" dy="1.6000000000000003" in="blurOut2" result="blurOut3"/><feBlend in="SourceGraphic" in2="blurOut3" mode="normal"/></filter></defs><g><!--MD5=[435c65a0bab2a1d04bc88e370aaa4382]
entity OrderRepository--><path d="M11.572,410 C11.572,406 36.572,406 36.572,406 C36.572,406 61.572,406 61.572,410 L61.572,420.6438 C61.572,424.6438 36.572,424.6438 36.572,424.6438 C36.572,424.6438 11.572,424.6438 11.572,420.6438 L11.572,410 " fill="#FFFFFF" filter="url(#f64ytr9s48wf4)" style="stroke:#000000;stroke-width:0.6000000000000001;"/><path d="M11.572,410 C11.572,414 36.572,414 36.572,414 C36.572,414 61.572,414 61.572,410 " fill="none" style="stroke:#000000;stroke-width:0.6000000000000001;"/><text fill="#000000" font-family="sans-serif" font-size="5.6" lengthAdjust="spacing" textLength="42" x="15.572" y="421.4133">OrderRepository</text><!--MD5=[dfccfb5894388a46eaa5d679d3ea0882]
entity ClientRepository--><path d="M76.172,410 C76.172,406 100.972,406 100.972,406 C100.972,406 125.772,406 125.772,410 L125.772,420.6438 C125.772,424.6438 100.972,424.6438 100.972,424.6438 C100.972,424.6438 76.172,424.6438 76.172,420.6438 L76.172,410 " fill="#FFFFFF" filter="url(#f64ytr9s48wf4)" style="stroke:#000000;stroke-width:0.6000000000000001;"/><path d="M76.172,410 C76.172,414 100.972,414 100.972,414 C100.972,414 125.772,414 125.772,410 " fill="none" style="stroke:#000000;stroke-width:0.6000000000000001;"/><text fill="#000000" font-family="sans-serif" font-size="5.6" lengthAdjust="spacing" textLength="41.6" x="80.172" y="421.4133">ClientRepository</text><!--MD5=[f4ecc8f4bd9544a4e59fa7ea999fa228]
entity ProductRepository--><path d="M140.372,410 C140.372,406 167.772,406 167.772,406 C167.772,406 195.172,406 195.172,410 L195.172,420.6438 C195.172,424.6438 167.772,424.6438 167.772,424.6438 C167.772,424.6438 140.372,424.6438 140.372,420.6438 L140.372,410 " fill="#FFFFFF" filter="url(#f64ytr9s48wf4)" style="stroke:#000000;stroke-width:0.6000000000000001;"/><path d="M140.372,410 C140.372,414 167.772,414 167.772,414 C167.772,414 195.172,414 195.172,410 " fill="none" style="stroke:#000000;stroke-width:0.6000000000000001;"/><text fill="#000000" font-family="sans-serif" font-size="5.6" lengthAdjust="spacing" textLength="46.8" x="144.372" y="421.4133">ProductRepository</text><!--MD5=[c7e08fff4246c00604e92343bbd55e1a]
class RegisterClientOrderUI--><rect codeLine="60" fill="#FEFECE" filter="url(#f64ytr9s48wf4)" height="24.8094" id="RegisterClientOrderUI" style="stroke:#A80036;stroke-width:0.6000000000000001;" width="61.6" x="193.372" y="2.8"/><ellipse cx="199.372" cy="10.8375" fill="#ADD1B2" rx="4.4" ry="4.4" style="stroke:#A80036;stroke-width:0.4000000000000001;"/><path d="M200.172,9.4375 Q200.2533,9.2375 200.347,9.1375 Q200.4408,9.0375 200.547,9.0375 Q200.7345,9.0375 200.8533,9.15 Q200.972,9.2625 200.972,9.525 L200.972,10.15 Q200.972,10.4125 200.8595,10.525 Q200.747,10.6375 200.572,10.6375 Q200.4158,10.6375 200.3158,10.5688 Q200.2158,10.5 200.172,10.3188 Q200.1533,10.1938 200.0845,10.125 Q199.9595,9.9938 199.7345,9.9188 Q199.5095,9.8375 199.2845,9.8375 Q199.0033,9.8375 198.7658,9.95 Q198.5345,10.0625 198.3533,10.3125 Q198.172,10.5625 198.172,10.9063 L198.172,11.275 Q198.172,11.6875 198.5095,11.9625 Q198.847,12.2375 199.447,12.2375 Q199.8033,12.2375 200.0533,12.1563 Q200.197,12.1125 200.3595,11.9688 Q200.4658,11.8875 200.522,11.8625 Q200.5783,11.8375 200.647,11.8375 Q200.7783,11.8375 200.872,11.9438 Q200.972,12.0438 200.972,12.1875 Q200.972,12.325 200.8345,12.4875 Q200.6345,12.725 200.3158,12.8563 Q199.897,13.0375 199.3845,13.0375 Q198.7845,13.0375 198.3033,12.8 Q197.9158,12.6125 197.6408,12.2063 Q197.372,11.8 197.372,11.3188 L197.372,10.8813 Q197.372,10.3813 197.6095,9.9438 Q197.8533,9.5063 198.272,9.275 Q198.697,9.0375 199.172,9.0375 Q199.4595,9.0375 199.7095,9.1375 Q199.9595,9.2375 200.172,9.4375 Z " fill="#000000"/><text fill="#000000" font-family="sans-serif" font-size="4.8" font-style="italic" lengthAdjust="spacing" textLength="32.8" x="212.972" y="9.7828">«presentation»</text><text fill="#000000" font-family="sans-serif" font-size="4.8" lengthAdjust="spacing" textLength="48.8" x="204.972" y="15.8203">RegisterClientOrderUI</text><line style="stroke:#A80036;stroke-width:0.6000000000000001;" x1="193.772" x2="254.572" y1="18.875" y2="18.875"/><polygon fill="#FFFF44" points="197.772,21.275,199.372,22.875,197.772,24.475,196.172,22.875" style="stroke:#B38D22;stroke-width:0.4000000000000001;"/><text fill="#000000" font-family="sans-serif" font-size="4.4" lengthAdjust="spacing" textLength="19.6" x="201.372" y="25.0426">doShow()</text><!--MD5=[67c7b2b6e200fd5fbf3e0fb651d1ac94]
class RegisterClientOrderController--><rect codeLine="52" fill="#FEFECE" filter="url(#f64ytr9s48wf4)" height="46.9469" id="RegisterClientOrderController" style="stroke:#A80036;stroke-width:0.6000000000000001;" width="220.4" x="45.172" y="101.2"/><ellipse cx="120.872" cy="109.2375" fill="#ADD1B2" rx="4.4" ry="4.4" style="stroke:#A80036;stroke-width:0.4000000000000001;"/><path d="M121.672,107.8375 Q121.7533,107.6375 121.847,107.5375 Q121.9408,107.4375 122.047,107.4375 Q122.2345,107.4375 122.3533,107.55 Q122.472,107.6625 122.472,107.925 L122.472,108.55 Q122.472,108.8125 122.3595,108.925 Q122.247,109.0375 122.072,109.0375 Q121.9158,109.0375 121.8158,108.9688 Q121.7158,108.9 121.672,108.7188 Q121.6533,108.5938 121.5845,108.525 Q121.4595,108.3938 121.2345,108.3188 Q121.0095,108.2375 120.7845,108.2375 Q120.5033,108.2375 120.2658,108.35 Q120.0345,108.4625 119.8533,108.7125 Q119.672,108.9625 119.672,109.3063 L119.672,109.675 Q119.672,110.0875 120.0095,110.3625 Q120.347,110.6375 120.947,110.6375 Q121.3033,110.6375 121.5533,110.5563 Q121.697,110.5125 121.8595,110.3688 Q121.9658,110.2875 122.022,110.2625 Q122.0783,110.2375 122.147,110.2375 Q122.2783,110.2375 122.372,110.3438 Q122.472,110.4438 122.472,110.5875 Q122.472,110.725 122.3345,110.8875 Q122.1345,111.125 121.8158,111.2563 Q121.397,111.4375 120.8845,111.4375 Q120.2845,111.4375 119.8033,111.2 Q119.4158,111.0125 119.1408,110.6063 Q118.872,110.2 118.872,109.7188 L118.872,109.2813 Q118.872,108.7813 119.1095,108.3438 Q119.3533,107.9063 119.772,107.675 Q120.197,107.4375 120.672,107.4375 Q120.9595,107.4375 121.2095,107.5375 Q121.4595,107.6375 121.672,107.8375 Z " fill="#000000"/><text fill="#000000" font-family="sans-serif" font-size="4.8" font-style="italic" lengthAdjust="spacing" textLength="29.6" x="147.072" y="108.1828">«application»</text><text fill="#000000" font-family="sans-serif" font-size="4.8" lengthAdjust="spacing" textLength="65.6" x="129.072" y="114.2203">RegisterClientOrderController</text><line style="stroke:#A80036;stroke-width:0.6000000000000001;" x1="45.572" x2="265.172" y1="117.275" y2="117.275"/><ellipse cx="49.572" cy="121.675" fill="#84BE84" rx="1.2" ry="1.2" style="stroke:#038048;stroke-width:0.4000000000000001;"/><text fill="#000000" font-family="sans-serif" font-size="4.4" lengthAdjust="spacing" textLength="210" x="53.172" y="123.4426">registerOrder(addresses, shipment, payment, sourceChannel, interactionDate, additionalCommentText, items)</text><ellipse cx="49.572" cy="127.2094" fill="#84BE84" rx="1.2" ry="1.2" style="stroke:#038048;stroke-width:0.4000000000000001;"/><text fill="#000000" font-family="sans-serif" font-size="4.4" lengthAdjust="spacing" textLength="163.6" x="53.172" y="128.977">registerOrder(addresses, shipment, payment, sourceChannel, interactionDate, items)</text><ellipse cx="49.572" cy="132.7438" fill="#84BE84" rx="1.2" ry="1.2" style="stroke:#038048;stroke-width:0.4000000000000001;"/><text fill="#000000" font-family="sans-serif" font-size="4.4" lengthAdjust="spacing" textLength="46.4" x="53.172" y="134.5113">verifyClientById(clientId)</text><ellipse cx="49.572" cy="138.2781" fill="#84BE84" rx="1.2" ry="1.2" style="stroke:#038048;stroke-width:0.4000000000000001;"/><text fill="#000000" font-family="sans-serif" font-size="4.4" lengthAdjust="spacing" textLength="56.8" x="53.172" y="140.0457">fillOrderItems(items, setItems)</text><ellipse cx="49.572" cy="143.8125" fill="#84BE84" rx="1.2" ry="1.2" style="stroke:#038048;stroke-width:0.4000000000000001;"/><text fill="#000000" font-family="sans-serif" font-size="4.4" lengthAdjust="spacing" textLength="42" x="53.172" y="145.5801">verifyProductId(code)</text><!--MD5=[cf4d6237fcae255cd2e1656cf84a30e2]
class Order--><rect codeLine="14" fill="#FEFECE" filter="url(#f64ytr9s48wf4)" height="69.0844" id="Order" style="stroke:#A80036;stroke-width:0.6000000000000001;" width="60.8" x="204.572" y="179.2"/><ellipse cx="222.872" cy="187.2375" fill="#ADD1B2" rx="4.4" ry="4.4" style="stroke:#A80036;stroke-width:0.4000000000000001;"/><path d="M223.672,185.8375 Q223.7533,185.6375 223.847,185.5375 Q223.9408,185.4375 224.047,185.4375 Q224.2345,185.4375 224.3533,185.55 Q224.472,185.6625 224.472,185.925 L224.472,186.55 Q224.472,186.8125 224.3595,186.925 Q224.247,187.0375 224.072,187.0375 Q223.9158,187.0375 223.8158,186.9688 Q223.7158,186.9 223.672,186.7188 Q223.6533,186.5938 223.5845,186.525 Q223.4595,186.3938 223.2345,186.3188 Q223.0095,186.2375 222.7845,186.2375 Q222.5033,186.2375 222.2658,186.35 Q222.0345,186.4625 221.8533,186.7125 Q221.672,186.9625 221.672,187.3063 L221.672,187.675 Q221.672,188.0875 222.0095,188.3625 Q222.347,188.6375 222.947,188.6375 Q223.3033,188.6375 223.5533,188.5563 Q223.697,188.5125 223.8595,188.3688 Q223.9658,188.2875 224.022,188.2625 Q224.0783,188.2375 224.147,188.2375 Q224.2783,188.2375 224.372,188.3438 Q224.472,188.4438 224.472,188.5875 Q224.472,188.725 224.3345,188.8875 Q224.1345,189.125 223.8158,189.2563 Q223.397,189.4375 222.8845,189.4375 Q222.2845,189.4375 221.8033,189.2 Q221.4158,189.0125 221.1408,188.6063 Q220.872,188.2 220.872,187.7188 L220.872,187.2813 Q220.872,186.7813 221.1095,186.3438 Q221.3533,185.9063 221.772,185.675 Q222.197,185.4375 222.672,185.4375 Q222.9595,185.4375 223.2095,185.5375 Q223.4595,185.6375 223.672,185.8375 Z " fill="#000000"/><text fill="#000000" font-family="sans-serif" font-size="4.8" font-style="italic" lengthAdjust="spacing" textLength="22.4" x="230.272" y="186.1828">«domain»</text><text fill="#000000" font-family="sans-serif" font-size="4.8" lengthAdjust="spacing" textLength="12.4" x="235.272" y="192.2203">Order</text><line style="stroke:#A80036;stroke-width:0.6000000000000001;" x1="204.972" x2="264.972" y1="195.275" y2="195.275"/><rect fill="none" height="2.4" style="stroke:#C82930;stroke-width:0.4000000000000001;" width="2.4" x="207.772" y="198.475"/><text fill="#000000" font-family="sans-serif" font-size="4.4" lengthAdjust="spacing" textLength="14.4" x="212.572" y="201.4426">OrderId</text><rect fill="none" height="2.4" style="stroke:#C82930;stroke-width:0.4000000000000001;" width="2.4" x="207.772" y="204.0094"/><text fill="#000000" font-family="sans-serif" font-size="4.4" lengthAdjust="spacing" textLength="20.8" x="212.572" y="206.977">CreatedOn</text><rect fill="none" height="2.4" style="stroke:#C82930;stroke-width:0.4000000000000001;" width="2.4" x="207.772" y="209.5438"/><text fill="#000000" font-family="sans-serif" font-size="4.4" lengthAdjust="spacing" textLength="27.6" x="212.572" y="212.5113">BillingAddress</text><rect fill="none" height="2.4" style="stroke:#C82930;stroke-width:0.4000000000000001;" width="2.4" x="207.772" y="215.0781"/><text fill="#000000" font-family="sans-serif" font-size="4.4" lengthAdjust="spacing" textLength="32.4" x="212.572" y="218.0457">DeliveryAddress</text><rect fill="none" height="2.4" style="stroke:#C82930;stroke-width:0.4000000000000001;" width="2.4" x="207.772" y="220.6125"/><text fill="#000000" font-family="sans-serif" font-size="4.4" lengthAdjust="spacing" textLength="50.4" x="212.572" y="223.5801">TotalAmountWithoutTaxes</text><rect fill="none" height="2.4" style="stroke:#C82930;stroke-width:0.4000000000000001;" width="2.4" x="207.772" y="226.1469"/><text fill="#000000" font-family="sans-serif" font-size="4.4" lengthAdjust="spacing" textLength="44.4" x="212.572" y="229.1145">TotalAmountWithTaxes</text><rect fill="none" height="2.4" style="stroke:#C82930;stroke-width:0.4000000000000001;" width="2.4" x="207.772" y="231.6813"/><text fill="#000000" font-family="sans-serif" font-size="4.4" lengthAdjust="spacing" textLength="22.4" x="212.572" y="234.6488">TotalWeight</text><rect fill="none" height="2.4" style="stroke:#C82930;stroke-width:0.4000000000000001;" width="2.4" x="207.772" y="237.2156"/><text fill="#000000" font-family="sans-serif" font-size="4.4" lengthAdjust="spacing" textLength="23.6" x="212.572" y="240.1832">TotalVolume</text><rect fill="none" height="2.4" style="stroke:#C82930;stroke-width:0.4000000000000001;" width="2.4" x="207.772" y="242.75"/><text fill="#000000" font-family="sans-serif" font-size="4.4" lengthAdjust="spacing" textLength="12.4" x="212.572" y="245.7176">Status</text><!--MD5=[003718b22fee2486eeba0fa029a176b7]
class OrderItem--><rect codeLine="72" fill="#FEFECE" filter="url(#f64ytr9s48wf4)" height="30.3438" id="OrderItem" style="stroke:#A80036;stroke-width:0.6000000000000001;" width="34.8" x="224.772" y="308.2"/><ellipse cx="230.772" cy="316.2375" fill="#ADD1B2" rx="4.4" ry="4.4" style="stroke:#A80036;stroke-width:0.4000000000000001;"/><path d="M231.572,314.8375 Q231.6533,314.6375 231.747,314.5375 Q231.8408,314.4375 231.947,314.4375 Q232.1345,314.4375 232.2533,314.55 Q232.372,314.6625 232.372,314.925 L232.372,315.55 Q232.372,315.8125 232.2595,315.925 Q232.147,316.0375 231.972,316.0375 Q231.8158,316.0375 231.7158,315.9688 Q231.6158,315.9 231.572,315.7188 Q231.5533,315.5938 231.4845,315.525 Q231.3595,315.3938 231.1345,315.3188 Q230.9095,315.2375 230.6845,315.2375 Q230.4033,315.2375 230.1658,315.35 Q229.9345,315.4625 229.7533,315.7125 Q229.572,315.9625 229.572,316.3063 L229.572,316.675 Q229.572,317.0875 229.9095,317.3625 Q230.247,317.6375 230.847,317.6375 Q231.2033,317.6375 231.4533,317.5563 Q231.597,317.5125 231.7595,317.3688 Q231.8658,317.2875 231.922,317.2625 Q231.9783,317.2375 232.047,317.2375 Q232.1783,317.2375 232.272,317.3438 Q232.372,317.4438 232.372,317.5875 Q232.372,317.725 232.2345,317.8875 Q232.0345,318.125 231.7158,318.2563 Q231.297,318.4375 230.7845,318.4375 Q230.1845,318.4375 229.7033,318.2 Q229.3158,318.0125 229.0408,317.6063 Q228.772,317.2 228.772,316.7188 L228.772,316.2813 Q228.772,315.7813 229.0095,315.3438 Q229.2533,314.9063 229.672,314.675 Q230.097,314.4375 230.572,314.4375 Q230.8595,314.4375 231.1095,314.5375 Q231.3595,314.6375 231.572,314.8375 Z " fill="#000000"/><text fill="#000000" font-family="sans-serif" font-size="4.8" font-style="italic" lengthAdjust="spacing" textLength="22.4" x="236.172" y="315.1828">«domain»</text><text fill="#000000" font-family="sans-serif" font-size="4.8" lengthAdjust="spacing" textLength="22" x="236.372" y="321.2203">OrderItem</text><line style="stroke:#A80036;stroke-width:0.6000000000000001;" x1="225.172" x2="259.172" y1="324.275" y2="324.275"/><rect fill="none" height="2.4" style="stroke:#C82930;stroke-width:0.4000000000000001;" width="2.4" x="227.972" y="327.475"/><text fill="#000000" font-family="sans-serif" font-size="4.4" lengthAdjust="spacing" textLength="9.6" x="232.772" y="330.4426">code</text><rect fill="none" height="2.4" style="stroke:#C82930;stroke-width:0.4000000000000001;" width="2.4" x="227.972" y="333.0094"/><text fill="#000000" font-family="sans-serif" font-size="4.4" lengthAdjust="spacing" textLength="23.6" x="232.772" y="335.977">itemQuantity</text><!--MD5=[72136138052d025cffdce3c22fbd185f]
class Product--><rect codeLine="77" fill="#FEFECE" filter="url(#f64ytr9s48wf4)" height="69.0844" id="Product" style="stroke:#A80036;stroke-width:0.6000000000000001;" width="47.6" x="218.372" y="380.8"/><ellipse cx="230.672" cy="388.8375" fill="#ADD1B2" rx="4.4" ry="4.4" style="stroke:#A80036;stroke-width:0.4000000000000001;"/><path d="M231.472,387.4375 Q231.5533,387.2375 231.647,387.1375 Q231.7408,387.0375 231.847,387.0375 Q232.0345,387.0375 232.1533,387.15 Q232.272,387.2625 232.272,387.525 L232.272,388.15 Q232.272,388.4125 232.1595,388.525 Q232.047,388.6375 231.872,388.6375 Q231.7158,388.6375 231.6158,388.5688 Q231.5158,388.5 231.472,388.3188 Q231.4533,388.1938 231.3845,388.125 Q231.2595,387.9938 231.0345,387.9188 Q230.8095,387.8375 230.5845,387.8375 Q230.3033,387.8375 230.0658,387.95 Q229.8345,388.0625 229.6533,388.3125 Q229.472,388.5625 229.472,388.9063 L229.472,389.275 Q229.472,389.6875 229.8095,389.9625 Q230.147,390.2375 230.747,390.2375 Q231.1033,390.2375 231.3533,390.1563 Q231.497,390.1125 231.6595,389.9688 Q231.7658,389.8875 231.822,389.8625 Q231.8783,389.8375 231.947,389.8375 Q232.0783,389.8375 232.172,389.9438 Q232.272,390.0438 232.272,390.1875 Q232.272,390.325 232.1345,390.4875 Q231.9345,390.725 231.6158,390.8563 Q231.197,391.0375 230.6845,391.0375 Q230.0845,391.0375 229.6033,390.8 Q229.2158,390.6125 228.9408,390.2063 Q228.672,389.8 228.672,389.3188 L228.672,388.8813 Q228.672,388.3813 228.9095,387.9438 Q229.1533,387.5063 229.572,387.275 Q229.997,387.0375 230.472,387.0375 Q230.7595,387.0375 231.0095,387.1375 Q231.2595,387.2375 231.472,387.4375 Z " fill="#000000"/><text fill="#000000" font-family="sans-serif" font-size="4.8" font-style="italic" lengthAdjust="spacing" textLength="22.4" x="236.872" y="387.7828">«domain»</text><text fill="#000000" font-family="sans-serif" font-size="4.8" lengthAdjust="spacing" textLength="16.8" x="239.672" y="393.8203">Product</text><line style="stroke:#A80036;stroke-width:0.6000000000000001;" x1="218.772" x2="265.572" y1="396.875" y2="396.875"/><rect fill="none" height="2.4" style="stroke:#C82930;stroke-width:0.4000000000000001;" width="2.4" x="221.572" y="400.075"/><text fill="#000000" font-family="sans-serif" font-size="4.4" lengthAdjust="spacing" textLength="37.2" x="226.372" y="403.0426">UniqueInternalCode</text><rect fill="none" height="2.4" style="stroke:#C82930;stroke-width:0.4000000000000001;" width="2.4" x="221.572" y="405.6094"/><text fill="#000000" font-family="sans-serif" font-size="4.4" lengthAdjust="spacing" textLength="13.2" x="226.372" y="408.577">Weight</text><rect fill="none" height="2.4" style="stroke:#C82930;stroke-width:0.4000000000000001;" width="2.4" x="221.572" y="411.1438"/><text fill="#000000" font-family="sans-serif" font-size="4.4" lengthAdjust="spacing" textLength="14.4" x="226.372" y="414.1113">Volume</text><rect fill="none" height="2.4" style="stroke:#C82930;stroke-width:0.4000000000000001;" width="2.4" x="221.572" y="416.6781"/><text fill="#000000" font-family="sans-serif" font-size="4.4" lengthAdjust="spacing" textLength="30" x="226.372" y="419.6457">PriceWithTaxes</text><rect fill="none" height="2.4" style="stroke:#C82930;stroke-width:0.4000000000000001;" width="2.4" x="221.572" y="422.2125"/><text fill="#000000" font-family="sans-serif" font-size="4.4" lengthAdjust="spacing" textLength="36" x="226.372" y="425.1801">PriceWithoutTaxes</text><rect fill="none" height="2.4" style="stroke:#C82930;stroke-width:0.4000000000000001;" width="2.4" x="221.572" y="427.7469"/><text fill="#000000" font-family="sans-serif" font-size="4.4" lengthAdjust="spacing" textLength="16.4" x="226.372" y="430.7145">Payment</text><rect fill="none" height="2.4" style="stroke:#C82930;stroke-width:0.4000000000000001;" width="2.4" x="221.572" y="433.2813"/><text fill="#000000" font-family="sans-serif" font-size="4.4" lengthAdjust="spacing" textLength="17.6" x="226.372" y="436.2488">Shipment</text><rect fill="none" height="2.4" style="stroke:#C82930;stroke-width:0.4000000000000001;" width="2.4" x="221.572" y="438.8156"/><text fill="#000000" font-family="sans-serif" font-size="4.4" lengthAdjust="spacing" textLength="29.6" x="226.372" y="441.7832">SourceChannel</text><rect fill="none" height="2.4" style="stroke:#C82930;stroke-width:0.4000000000000001;" width="2.4" x="221.572" y="444.35"/><text fill="#000000" font-family="sans-serif" font-size="4.4" lengthAdjust="spacing" textLength="36.4" x="226.372" y="447.3176">AdditionalComment</text><!--MD5=[f51bef916b5385bd9d27aaa0cee735c0]
class ListProductService--><rect codeLine="26" fill="#FEFECE" filter="url(#f64ytr9s48wf4)" height="24.8094" id="ListProductService" style="stroke:#A80036;stroke-width:0.6000000000000001;" width="53.6" x="172.572" y="260.4"/><ellipse cx="178.572" cy="268.4375" fill="#ADD1B2" rx="4.4" ry="4.4" style="stroke:#A80036;stroke-width:0.4000000000000001;"/><path d="M179.372,267.0375 Q179.4533,266.8375 179.547,266.7375 Q179.6408,266.6375 179.747,266.6375 Q179.9345,266.6375 180.0533,266.75 Q180.172,266.8625 180.172,267.125 L180.172,267.75 Q180.172,268.0125 180.0595,268.125 Q179.947,268.2375 179.772,268.2375 Q179.6158,268.2375 179.5158,268.1688 Q179.4158,268.1 179.372,267.9188 Q179.3533,267.7938 179.2845,267.725 Q179.1595,267.5938 178.9345,267.5188 Q178.7095,267.4375 178.4845,267.4375 Q178.2033,267.4375 177.9658,267.55 Q177.7345,267.6625 177.5533,267.9125 Q177.372,268.1625 177.372,268.5063 L177.372,268.875 Q177.372,269.2875 177.7095,269.5625 Q178.047,269.8375 178.647,269.8375 Q179.0033,269.8375 179.2533,269.7563 Q179.397,269.7125 179.5595,269.5688 Q179.6658,269.4875 179.722,269.4625 Q179.7783,269.4375 179.847,269.4375 Q179.9783,269.4375 180.072,269.5438 Q180.172,269.6438 180.172,269.7875 Q180.172,269.925 180.0345,270.0875 Q179.8345,270.325 179.5158,270.4563 Q179.097,270.6375 178.5845,270.6375 Q177.9845,270.6375 177.5033,270.4 Q177.1158,270.2125 176.8408,269.8063 Q176.572,269.4 176.572,268.9188 L176.572,268.4813 Q176.572,267.9813 176.8095,267.5438 Q177.0533,267.1063 177.472,266.875 Q177.897,266.6375 178.372,266.6375 Q178.6595,266.6375 178.9095,266.7375 Q179.1595,266.8375 179.372,267.0375 Z " fill="#000000"/><text fill="#000000" font-family="sans-serif" font-size="4.8" font-style="italic" lengthAdjust="spacing" textLength="29.6" x="189.772" y="267.3828">«application»</text><text fill="#000000" font-family="sans-serif" font-size="4.8" lengthAdjust="spacing" textLength="40.8" x="184.172" y="273.4203">ListProductService</text><line style="stroke:#A80036;stroke-width:0.6000000000000001;" x1="172.972" x2="225.772" y1="276.475" y2="276.475"/><ellipse cx="176.972" cy="280.875" fill="#84BE84" rx="1.2" ry="1.2" style="stroke:#038048;stroke-width:0.4000000000000001;"/><text fill="#000000" font-family="sans-serif" font-size="4.4" lengthAdjust="spacing" textLength="43.2" x="180.572" y="282.6426">findProductById(code)</text><!--MD5=[71152100d89f377ebd8dc97f1c2b0d02]
class RegisterClientUI--><rect codeLine="64" fill="#FEFECE" filter="url(#f64ytr9s48wf4)" height="24.8094" id="RegisterClientUI" style="stroke:#A80036;stroke-width:0.6000000000000001;" width="49.2" x="199.572" y="52"/><ellipse cx="205.572" cy="60.0375" fill="#ADD1B2" rx="4.4" ry="4.4" style="stroke:#A80036;stroke-width:0.4000000000000001;"/><path d="M206.372,58.6375 Q206.4533,58.4375 206.547,58.3375 Q206.6408,58.2375 206.747,58.2375 Q206.9345,58.2375 207.0533,58.35 Q207.172,58.4625 207.172,58.725 L207.172,59.35 Q207.172,59.6125 207.0595,59.725 Q206.947,59.8375 206.772,59.8375 Q206.6158,59.8375 206.5158,59.7688 Q206.4158,59.7 206.372,59.5188 Q206.3533,59.3938 206.2845,59.325 Q206.1595,59.1938 205.9345,59.1188 Q205.7095,59.0375 205.4845,59.0375 Q205.2033,59.0375 204.9658,59.15 Q204.7345,59.2625 204.5533,59.5125 Q204.372,59.7625 204.372,60.1063 L204.372,60.475 Q204.372,60.8875 204.7095,61.1625 Q205.047,61.4375 205.647,61.4375 Q206.0033,61.4375 206.2533,61.3563 Q206.397,61.3125 206.5595,61.1688 Q206.6658,61.0875 206.722,61.0625 Q206.7783,61.0375 206.847,61.0375 Q206.9783,61.0375 207.072,61.1438 Q207.172,61.2438 207.172,61.3875 Q207.172,61.525 207.0345,61.6875 Q206.8345,61.925 206.5158,62.0563 Q206.097,62.2375 205.5845,62.2375 Q204.9845,62.2375 204.5033,62 Q204.1158,61.8125 203.8408,61.4063 Q203.572,61 203.572,60.5188 L203.572,60.0813 Q203.572,59.5813 203.8095,59.1438 Q204.0533,58.7063 204.472,58.475 Q204.897,58.2375 205.372,58.2375 Q205.6595,58.2375 205.9095,58.3375 Q206.1595,58.4375 206.372,58.6375 Z " fill="#000000"/><text fill="#000000" font-family="sans-serif" font-size="4.8" font-style="italic" lengthAdjust="spacing" textLength="32.8" x="212.972" y="58.9828">«presentation»</text><text fill="#000000" font-family="sans-serif" font-size="4.8" lengthAdjust="spacing" textLength="36.4" x="211.172" y="65.0203">RegisterClientUI</text><line style="stroke:#A80036;stroke-width:0.6000000000000001;" x1="199.972" x2="248.372" y1="68.075" y2="68.075"/><polygon fill="#FFFF44" points="203.972,70.475,205.572,72.075,203.972,73.675,202.372,72.075" style="stroke:#B38D22;stroke-width:0.4000000000000001;"/><text fill="#000000" font-family="sans-serif" font-size="4.4" lengthAdjust="spacing" textLength="19.6" x="207.572" y="74.2426">doShow()</text><!--MD5=[d7b42206723faf57d3fc6da73a70f95b]
class ViewProductsCatalogUI--><rect codeLine="68" fill="#FEFECE" filter="url(#f64ytr9s48wf4)" height="24.8094" id="ViewProductsCatalogUI" style="stroke:#A80036;stroke-width:0.6000000000000001;" width="64.8" x="262.972" y="52"/><ellipse cx="268.972" cy="60.0375" fill="#ADD1B2" rx="4.4" ry="4.4" style="stroke:#A80036;stroke-width:0.4000000000000001;"/><path d="M269.772,58.6375 Q269.8533,58.4375 269.947,58.3375 Q270.0408,58.2375 270.147,58.2375 Q270.3345,58.2375 270.4533,58.35 Q270.572,58.4625 270.572,58.725 L270.572,59.35 Q270.572,59.6125 270.4595,59.725 Q270.347,59.8375 270.172,59.8375 Q270.0158,59.8375 269.9158,59.7688 Q269.8158,59.7 269.772,59.5188 Q269.7533,59.3938 269.6845,59.325 Q269.5595,59.1938 269.3345,59.1188 Q269.1095,59.0375 268.8845,59.0375 Q268.6033,59.0375 268.3658,59.15 Q268.1345,59.2625 267.9533,59.5125 Q267.772,59.7625 267.772,60.1063 L267.772,60.475 Q267.772,60.8875 268.1095,61.1625 Q268.447,61.4375 269.047,61.4375 Q269.4033,61.4375 269.6533,61.3563 Q269.797,61.3125 269.9595,61.1688 Q270.0658,61.0875 270.122,61.0625 Q270.1783,61.0375 270.247,61.0375 Q270.3783,61.0375 270.472,61.1438 Q270.572,61.2438 270.572,61.3875 Q270.572,61.525 270.4345,61.6875 Q270.2345,61.925 269.9158,62.0563 Q269.497,62.2375 268.9845,62.2375 Q268.3845,62.2375 267.9033,62 Q267.5158,61.8125 267.2408,61.4063 Q266.972,61 266.972,60.5188 L266.972,60.0813 Q266.972,59.5813 267.2095,59.1438 Q267.4533,58.7063 267.872,58.475 Q268.297,58.2375 268.772,58.2375 Q269.0595,58.2375 269.3095,58.3375 Q269.5595,58.4375 269.772,58.6375 Z " fill="#000000"/><text fill="#000000" font-family="sans-serif" font-size="4.8" font-style="italic" lengthAdjust="spacing" textLength="32.8" x="284.172" y="58.9828">«presentation»</text><text fill="#000000" font-family="sans-serif" font-size="4.8" lengthAdjust="spacing" textLength="52" x="274.572" y="65.0203">ViewProductsCatalogUI</text><line style="stroke:#A80036;stroke-width:0.6000000000000001;" x1="263.372" x2="327.372" y1="68.075" y2="68.075"/><polygon fill="#FFFF44" points="267.372,70.475,268.972,72.075,267.372,73.675,265.772,72.075" style="stroke:#B38D22;stroke-width:0.4000000000000001;"/><text fill="#000000" font-family="sans-serif" font-size="4.4" lengthAdjust="spacing" textLength="19.6" x="270.972" y="74.2426">doShow()</text><!--MD5=[e8c189551b7885b999ad7cefb30fc2a3]
class PersistenceContext--><rect codeLine="33" fill="#FEFECE" filter="url(#f64ytr9s48wf4)" height="21.5344" id="PersistenceContext" style="stroke:#A80036;stroke-width:0.6000000000000001;" width="55.6" x="57.572" y="203"/><ellipse cx="63.572" cy="209.4" fill="#ADD1B2" rx="4.4" ry="4.4" style="stroke:#A80036;stroke-width:0.4000000000000001;"/><path d="M64.372,208 Q64.4533,207.8 64.547,207.7 Q64.6408,207.6 64.747,207.6 Q64.9345,207.6 65.0533,207.7125 Q65.172,207.825 65.172,208.0875 L65.172,208.7125 Q65.172,208.975 65.0595,209.0875 Q64.947,209.2 64.772,209.2 Q64.6158,209.2 64.5158,209.1313 Q64.4158,209.0625 64.372,208.8813 Q64.3533,208.7563 64.2845,208.6875 Q64.1595,208.5563 63.9345,208.4813 Q63.7095,208.4 63.4845,208.4 Q63.2033,208.4 62.9658,208.5125 Q62.7345,208.625 62.5533,208.875 Q62.372,209.125 62.372,209.4688 L62.372,209.8375 Q62.372,210.25 62.7095,210.525 Q63.047,210.8 63.647,210.8 Q64.0033,210.8 64.2533,210.7188 Q64.397,210.675 64.5595,210.5313 Q64.6658,210.45 64.722,210.425 Q64.7783,210.4 64.847,210.4 Q64.9783,210.4 65.072,210.5063 Q65.172,210.6063 65.172,210.75 Q65.172,210.8875 65.0345,211.05 Q64.8345,211.2875 64.5158,211.4188 Q64.097,211.6 63.5845,211.6 Q62.9845,211.6 62.5033,211.3625 Q62.1158,211.175 61.8408,210.7688 Q61.572,210.3625 61.572,209.8813 L61.572,209.4438 Q61.572,208.9438 61.8095,208.5063 Q62.0533,208.0688 62.472,207.8375 Q62.897,207.6 63.372,207.6 Q63.6595,207.6 63.9095,207.7 Q64.1595,207.8 64.372,208 Z " fill="#000000"/><text fill="#000000" font-family="sans-serif" font-size="4.8" lengthAdjust="spacing" textLength="42.8" x="69.172" y="211.3641">PersistenceContext</text><line style="stroke:#A80036;stroke-width:0.6000000000000001;" x1="57.972" x2="112.772" y1="215.8" y2="215.8"/><ellipse cx="61.972" cy="220.2" fill="#84BE84" rx="1.2" ry="1.2" style="stroke:#038048;stroke-width:0.4000000000000001;"/><text fill="#000000" font-family="sans-serif" font-size="4.4" lengthAdjust="spacing" textLength="26" x="65.572" y="221.9676">repositories()</text><!--MD5=[ed6624c6556d5e7b1bd23032162d20b7]
class Client--><rect codeLine="89" fill="#FEFECE" filter="url(#f64ytr9s48wf4)" height="52.4063" id="Client" style="stroke:#A80036;stroke-width:0.6000000000000001;" width="37.2" x="273.572" y="297.2"/><ellipse cx="284.792" cy="303.6" fill="#ADD1B2" rx="4.4" ry="4.4" style="stroke:#A80036;stroke-width:0.4000000000000001;"/><path d="M285.592,302.2 Q285.6733,302 285.767,301.9 Q285.8608,301.8 285.967,301.8 Q286.1545,301.8 286.2733,301.9125 Q286.392,302.025 286.392,302.2875 L286.392,302.9125 Q286.392,303.175 286.2795,303.2875 Q286.167,303.4 285.992,303.4 Q285.8358,303.4 285.7358,303.3313 Q285.6358,303.2625 285.592,303.0813 Q285.5733,302.9563 285.5045,302.8875 Q285.3795,302.7563 285.1545,302.6813 Q284.9295,302.6 284.7045,302.6 Q284.4233,302.6 284.1858,302.7125 Q283.9545,302.825 283.7733,303.075 Q283.592,303.325 283.592,303.6688 L283.592,304.0375 Q283.592,304.45 283.9295,304.725 Q284.267,305 284.867,305 Q285.2233,305 285.4733,304.9188 Q285.617,304.875 285.7795,304.7313 Q285.8858,304.65 285.942,304.625 Q285.9983,304.6 286.067,304.6 Q286.1983,304.6 286.292,304.7063 Q286.392,304.8063 286.392,304.95 Q286.392,305.0875 286.2545,305.25 Q286.0545,305.4875 285.7358,305.6188 Q285.317,305.8 284.8045,305.8 Q284.2045,305.8 283.7233,305.5625 Q283.3358,305.375 283.0608,304.9688 Q282.792,304.5625 282.792,304.0813 L282.792,303.6438 Q282.792,303.1438 283.0295,302.7063 Q283.2733,302.2688 283.692,302.0375 Q284.117,301.8 284.592,301.8 Q284.8795,301.8 285.1295,301.9 Q285.3795,302 285.592,302.2 Z " fill="#000000"/><text fill="#000000" font-family="sans-serif" font-size="4.8" lengthAdjust="spacing" textLength="12.8" x="291.552" y="305.5641">Client</text><line style="stroke:#A80036;stroke-width:0.6000000000000001;" x1="273.972" x2="310.372" y1="310" y2="310"/><rect fill="none" height="2.4" style="stroke:#C82930;stroke-width:0.4000000000000001;" width="2.4" x="276.772" y="313.2"/><text fill="#000000" font-family="sans-serif" font-size="4.4" lengthAdjust="spacing" textLength="14" x="281.572" y="316.1676">ClientID</text><rect fill="none" height="2.4" style="stroke:#C82930;stroke-width:0.4000000000000001;" width="2.4" x="276.772" y="318.7344"/><text fill="#000000" font-family="sans-serif" font-size="4.4" lengthAdjust="spacing" textLength="10.8" x="281.572" y="321.702">Name</text><rect fill="none" height="2.4" style="stroke:#C82930;stroke-width:0.4000000000000001;" width="2.4" x="276.772" y="324.2688"/><text fill="#000000" font-family="sans-serif" font-size="4.4" lengthAdjust="spacing" textLength="8.8" x="281.572" y="327.2363">VAT</text><rect fill="none" height="2.4" style="stroke:#C82930;stroke-width:0.4000000000000001;" width="2.4" x="276.772" y="329.8031"/><text fill="#000000" font-family="sans-serif" font-size="4.4" lengthAdjust="spacing" textLength="9.6" x="281.572" y="332.7707">Email</text><rect fill="none" height="2.4" style="stroke:#C82930;stroke-width:0.4000000000000001;" width="2.4" x="276.772" y="335.3375"/><text fill="#000000" font-family="sans-serif" font-size="4.4" lengthAdjust="spacing" textLength="26.8" x="281.572" y="338.3051">PhoneNumber</text><line style="stroke:#A80036;stroke-width:0.6000000000000001;" x1="273.972" x2="310.372" y1="340.8719" y2="340.8719"/><ellipse cx="277.972" cy="345.2719" fill="#84BE84" rx="1.2" ry="1.2" style="stroke:#038048;stroke-width:0.4000000000000001;"/><text fill="#000000" font-family="sans-serif" font-size="4.4" lengthAdjust="spacing" textLength="15.6" x="281.572" y="347.0395">create()</text><!--MD5=[288bffab58163169a8d16c57b889bc0c]
class TransactionalContext--><rect codeLine="43" fill="#FEFECE" filter="url(#f64ytr9s48wf4)" height="27.0688" id="TransactionalContext" style="stroke:#A80036;stroke-width:0.6000000000000001;" width="59.2" x="279.372" y="200.2"/><ellipse cx="285.372" cy="206.6" fill="#ADD1B2" rx="4.4" ry="4.4" style="stroke:#A80036;stroke-width:0.4000000000000001;"/><path d="M286.172,205.2 Q286.2533,205 286.347,204.9 Q286.4408,204.8 286.547,204.8 Q286.7345,204.8 286.8533,204.9125 Q286.972,205.025 286.972,205.2875 L286.972,205.9125 Q286.972,206.175 286.8595,206.2875 Q286.747,206.4 286.572,206.4 Q286.4158,206.4 286.3158,206.3313 Q286.2158,206.2625 286.172,206.0813 Q286.1533,205.9563 286.0845,205.8875 Q285.9595,205.7563 285.7345,205.6813 Q285.5095,205.6 285.2845,205.6 Q285.0033,205.6 284.7658,205.7125 Q284.5345,205.825 284.3533,206.075 Q284.172,206.325 284.172,206.6688 L284.172,207.0375 Q284.172,207.45 284.5095,207.725 Q284.847,208 285.447,208 Q285.8033,208 286.0533,207.9188 Q286.197,207.875 286.3595,207.7313 Q286.4658,207.65 286.522,207.625 Q286.5783,207.6 286.647,207.6 Q286.7783,207.6 286.872,207.7063 Q286.972,207.8063 286.972,207.95 Q286.972,208.0875 286.8345,208.25 Q286.6345,208.4875 286.3158,208.6188 Q285.897,208.8 285.3845,208.8 Q284.7845,208.8 284.3033,208.5625 Q283.9158,208.375 283.6408,207.9688 Q283.372,207.5625 283.372,207.0813 L283.372,206.6438 Q283.372,206.1438 283.6095,205.7063 Q283.8533,205.2688 284.272,205.0375 Q284.697,204.8 285.172,204.8 Q285.4595,204.8 285.7095,204.9 Q285.9595,205 286.172,205.2 Z " fill="#000000"/><text fill="#000000" font-family="sans-serif" font-size="4.8" lengthAdjust="spacing" textLength="46.4" x="290.972" y="208.5641">TransactionalContext</text><line style="stroke:#A80036;stroke-width:0.6000000000000001;" x1="279.772" x2="338.172" y1="213" y2="213"/><ellipse cx="283.772" cy="217.4" fill="#84BE84" rx="1.2" ry="1.2" style="stroke:#038048;stroke-width:0.4000000000000001;"/><text fill="#000000" font-family="sans-serif" font-size="4.4" lengthAdjust="spacing" textLength="36.4" x="287.372" y="219.1676">beginTransaction()</text><ellipse cx="283.772" cy="222.9344" fill="#84BE84" rx="1.2" ry="1.2" style="stroke:#038048;stroke-width:0.4000000000000001;"/><text fill="#000000" font-family="sans-serif" font-size="4.4" lengthAdjust="spacing" textLength="16.4" x="287.372" y="224.702">commit()</text><!--MD5=[48590afff58a68e2fcba47824d6f8a11]
class RepositoryFactory--><rect codeLine="105" fill="#FEFECE" filter="url(#f64ytr9s48wf4)" height="21.5344" id="RepositoryFactory" style="stroke:#A80036;stroke-width:0.6000000000000001;" width="52" x="59.372" y="312.6"/><ellipse cx="65.372" cy="319" fill="#ADD1B2" rx="4.4" ry="4.4" style="stroke:#A80036;stroke-width:0.4000000000000001;"/><path d="M66.172,317.6 Q66.2533,317.4 66.347,317.3 Q66.4408,317.2 66.547,317.2 Q66.7345,317.2 66.8533,317.3125 Q66.972,317.425 66.972,317.6875 L66.972,318.3125 Q66.972,318.575 66.8595,318.6875 Q66.747,318.8 66.572,318.8 Q66.4158,318.8 66.3158,318.7313 Q66.2158,318.6625 66.172,318.4813 Q66.1533,318.3563 66.0845,318.2875 Q65.9595,318.1563 65.7345,318.0813 Q65.5095,318 65.2845,318 Q65.0033,318 64.7658,318.1125 Q64.5345,318.225 64.3533,318.475 Q64.172,318.725 64.172,319.0688 L64.172,319.4375 Q64.172,319.85 64.5095,320.125 Q64.847,320.4 65.447,320.4 Q65.8033,320.4 66.0533,320.3188 Q66.197,320.275 66.3595,320.1313 Q66.4658,320.05 66.522,320.025 Q66.5783,320 66.647,320 Q66.7783,320 66.872,320.1063 Q66.972,320.2063 66.972,320.35 Q66.972,320.4875 66.8345,320.65 Q66.6345,320.8875 66.3158,321.0188 Q65.897,321.2 65.3845,321.2 Q64.7845,321.2 64.3033,320.9625 Q63.9158,320.775 63.6408,320.3688 Q63.372,319.9625 63.372,319.4813 L63.372,319.0438 Q63.372,318.5438 63.6095,318.1063 Q63.8533,317.6688 64.272,317.4375 Q64.697,317.2 65.172,317.2 Q65.4595,317.2 65.7095,317.3 Q65.9595,317.4 66.172,317.6 Z " fill="#000000"/><text fill="#000000" font-family="sans-serif" font-size="4.8" lengthAdjust="spacing" textLength="39.2" x="70.972" y="320.9641">RepositoryFactory</text><line style="stroke:#A80036;stroke-width:0.6000000000000001;" x1="59.772" x2="110.972" y1="325.4" y2="325.4"/><ellipse cx="63.772" cy="329.8" fill="#84BE84" rx="1.2" ry="1.2" style="stroke:#038048;stroke-width:0.4000000000000001;"/><text fill="#000000" font-family="sans-serif" font-size="4.4" lengthAdjust="spacing" textLength="15.6" x="67.372" y="331.5676">create()</text><!--MD5=[e2dbecb69b2958e0caa95e503705a248]
link RegisterClientOrderUI to RegisterClientOrderController--><path codeLine="110" d="M193.292,26.772 C181.772,32.524 169.76,40.744 162.572,52 C153.752,65.812 152.036,84.236 152.484,99.012 " fill="none" id="RegisterClientOrderUI-to-RegisterClientOrderController" style="stroke:#A80036;stroke-width:0.4000000000000001;"/><polygon fill="#A80036" points="152.564,101.164,154.0289,97.5069,152.4896,99.1654,150.8311,97.6261,152.564,101.164" style="stroke:#A80036;stroke-width:0.4000000000000001;"/><text fill="#000000" font-family="sans-serif" font-size="5.2" lengthAdjust="spacing" textLength="29.2" x="162.972" y="66.598">theController</text><!--MD5=[e9b36d6845ab1cce0e789c8e4f3b2984]
link RegisterClientOrderController to Order--><path codeLine="111" d="M196.088,148.104 C200.756,151.724 205.188,155.708 208.972,160 C213.452,165.08 217.348,171.072 220.66,177.172 " fill="none" id="RegisterClientOrderController-to-Order" style="stroke:#A80036;stroke-width:0.4000000000000001;"/><polygon fill="#A80036" points="221.668,179.064,221.3936,175.134,220.7304,177.2974,218.567,176.6342,221.668,179.064" style="stroke:#A80036;stroke-width:0.4000000000000001;"/><text fill="#000000" font-family="sans-serif" font-size="5.2" lengthAdjust="spacing" textLength="11.6" x="214.572" y="165.798">order</text><!--MD5=[365c6f71975a8dfad4890538336f5b73]
link RegisterClientOrderController to OrderRepository--><path codeLine="112" d="M86.148,148.028 C72.248,155.796 59.26,165.976 50.572,179.2 C2.4,252.536 24.968,367.996 33.684,403.944 " fill="none" id="RegisterClientOrderController-to-OrderRepository" style="stroke:#A80036;stroke-width:0.4000000000000001;"/><polygon fill="#A80036" points="34.16,405.896,34.8498,402.0173,33.6803,403.9544,31.7433,402.7848,34.16,405.896" style="stroke:#A80036;stroke-width:0.4000000000000001;"/><text fill="#000000" font-family="sans-serif" font-size="5.2" lengthAdjust="spacing" textLength="36.4" x="23.372" y="274.998">orderRepository</text><!--MD5=[06a6064c5cdd443a62b5eb59fb550c27]
link Order to OrderItem--><path codeLine="118" d="M237.24,248.476 C238.512,267.672 240.04,290.756 241.052,306.096 " fill="none" id="Order-to-OrderItem" style="stroke:#A80036;stroke-width:0.4000000000000001;"/><polygon fill="#A80036" points="241.188,308.116,242.5478,304.4186,241.0565,306.1203,239.3547,304.629,241.188,308.116" style="stroke:#A80036;stroke-width:0.4000000000000001;"/><text fill="#000000" font-family="sans-serif" font-size="5.2" lengthAdjust="spacing" textLength="31.2" x="240.172" y="274.998">composed by</text><text fill="#000000" font-family="sans-serif" font-size="5.2" lengthAdjust="spacing" textLength="8" x="232.3002" y="303.8391">1..*</text><!--MD5=[663c18ce459b41abc4dbff87433befbf]
link OrderItem to Product--><path codeLine="119" d="M242.172,338.656 C242.172,349.48 242.172,364.632 242.172,378.584 " fill="none" id="OrderItem-to-Product" style="stroke:#A80036;stroke-width:0.4000000000000001;"/><polygon fill="#A80036" points="242.172,380.632,243.772,377.032,242.172,378.632,240.572,377.032,242.172,380.632" style="stroke:#A80036;stroke-width:0.4000000000000001;"/><text fill="#000000" font-family="sans-serif" font-size="5.2" lengthAdjust="spacing" textLength="31.2" x="242.572" y="367.398">composed by</text><text fill="#000000" font-family="sans-serif" font-size="5.2" lengthAdjust="spacing" textLength="2.8" x="239.2561" y="376.4964">1</text><!--MD5=[b4eabd1a63a4ad1f2f93b60573323bf1]
link Order to Client--><path codeLine="120" d="M265.44,245.792 C268.992,250.464 272.296,255.396 274.972,260.4 C280.7,271.116 284.652,283.904 287.312,295.124 " fill="none" id="Order-to-Client" style="stroke:#A80036;stroke-width:0.4000000000000001;"/><polygon fill="#A80036" points="287.792,297.2,288.5382,293.3318,287.3406,295.2516,285.4208,294.054,287.792,297.2" style="stroke:#A80036;stroke-width:0.4000000000000001;"/><text fill="#000000" font-family="sans-serif" font-size="5.2" lengthAdjust="spacing" textLength="24.4" x="284.972" y="274.998">ordered by</text><text fill="#000000" font-family="sans-serif" font-size="5.2" lengthAdjust="spacing" textLength="2.8" x="284.3237" y="292.8064">1</text><!--MD5=[c1a2218c3fddee397f4198ad4ccffbcd]
link RegisterClientOrderController to ClientRepository--><path codeLine="122" d="M149.848,148.112 C143.604,174.96 133.512,220.664 127.372,260.4 C121.284,299.788 125.308,310.388 118.172,349.6 C114.652,368.952 108.372,390.984 104.452,403.9 " fill="none" id="RegisterClientOrderController-to-ClientRepository" style="stroke:#A80036;stroke-width:0.4000000000000001;"/><polygon fill="#A80036" points="103.844,405.896,106.4257,402.9203,104.4281,403.9832,103.3652,401.9857,103.844,405.896" style="stroke:#A80036;stroke-width:0.4000000000000001;"/><text fill="#000000" font-family="sans-serif" font-size="5.2" lengthAdjust="spacing" textLength="37.2" x="127.772" y="274.998">clientRepository</text><!--MD5=[40985b3669edb5b768b0f993418b1614]
link RegisterClientOrderController to ListProductService--><path codeLine="125" d="M162.248,148.032 C171.48,178.964 187.604,232.98 195.196,258.408 " fill="none" id="RegisterClientOrderController-to-ListProductService" style="stroke:#A80036;stroke-width:0.4000000000000001;"/><polygon fill="#A80036" points="195.772,260.336,196.2754,256.4288,195.1999,258.4196,193.2091,257.3441,195.772,260.336" style="stroke:#A80036;stroke-width:0.4000000000000001;"/><text fill="#000000" font-family="sans-serif" font-size="5.2" lengthAdjust="spacing" textLength="28.4" x="167.772" y="165.798">svcProducts</text><!--MD5=[274efc66e419515683ea155b61aeb21c]
link ListProductService to ProductRepository--><path codeLine="131" d="M183.676,285.244 C180.22,288.708 176.992,292.764 174.972,297.2 C158.52,333.328 162.844,382.248 165.924,403.9 " fill="none" id="ListProductService-to-ProductRepository" style="stroke:#A80036;stroke-width:0.4000000000000001;"/><polygon fill="#A80036" points="166.216,405.908,167.2739,402.1132,165.9244,403.9294,164.1081,402.5798,166.216,405.908" style="stroke:#A80036;stroke-width:0.4000000000000001;"/><text fill="#000000" font-family="sans-serif" font-size="5.2" lengthAdjust="spacing" textLength="42" x="175.372" y="325.598">productRepository</text><!--MD5=[8515a9ed15f6ed418de9a52c0858d340]
link RegisterClientOrderController to PersistenceContext--><path codeLine="133" d="M134.232,148.064 C130.8,151.992 127.34,156.068 124.172,160 C113.116,173.724 101.344,190.228 93.704,201.22 " fill="none" id="RegisterClientOrderController-to-PersistenceContext" style="stroke:#A80036;stroke-width:0.4000000000000001;"/><polygon fill="#A80036" points="92.512,202.936,95.8796,200.8917,93.6528,201.2933,93.2512,199.0664,92.512,202.936" style="stroke:#A80036;stroke-width:0.4000000000000001;"/><!--MD5=[21db7acca0c9c643eb560b163d71fd92]
link RegisterClientOrderController to TransactionalContext--><path codeLine="134" d="M214.34,148.024 C233.48,156.616 254.36,167.232 272.172,179.2 C280.452,184.764 288.676,192.18 295.244,198.684 " fill="none" id="RegisterClientOrderController-to-TransactionalContext" style="stroke:#A80036;stroke-width:0.4000000000000001;"/><polygon fill="#A80036" points="296.704,200.144,295.2898,196.467,295.2898,198.7298,293.027,198.7298,296.704,200.144" style="stroke:#A80036;stroke-width:0.4000000000000001;"/><!--MD5=[754b775031405e096442b27febffa290]
link PersistenceContext to RepositoryFactory--><path codeLine="136" d="M85.372,224.632 C85.372,244.78 85.372,288.956 85.372,310.58 " fill="none" id="PersistenceContext-to-RepositoryFactory" style="stroke:#A80036;stroke-width:0.4000000000000001;"/><polygon fill="#A80036" points="85.372,312.6,86.972,309,85.372,310.6,83.772,309,85.372,312.6" style="stroke:#A80036;stroke-width:0.4000000000000001;"/><!--MD5=[7e98ba641e2771e3efc9b333390cc0aa]
link RepositoryFactory to ClientRepository--><path codeLine="137" d="M87.16,334.26 C90.128,351.608 96.04,386.16 99.076,403.912 " fill="none" id="RepositoryFactory-to-ClientRepository" style="stroke:#A80036;stroke-width:0.4000000000000001;"/><polygon fill="#A80036" points="99.412,405.888,100.3823,402.0698,99.0749,403.9166,97.2281,402.6092,99.412,405.888" style="stroke:#A80036;stroke-width:0.4000000000000001;"/><!--MD5=[a107a52b6e2b3fb29ad79d2f6a7df605]
link RepositoryFactory to ProductRepository--><path codeLine="138" d="M94.824,334.26 C110.624,351.748 142.224,386.724 158.14,404.34 " fill="none" id="RepositoryFactory-to-ProductRepository" style="stroke:#A80036;stroke-width:0.4000000000000001;"/><polygon fill="#A80036" points="159.536,405.888,158.3091,402.1444,158.1949,404.4043,155.9351,404.2901,159.536,405.888" style="stroke:#A80036;stroke-width:0.4000000000000001;"/><!--MD5=[4961dc0a1f38b4bb8bde6c7779428d74]
link RepositoryFactory to OrderRepository--><path codeLine="139" d="M79.776,334.26 C70.476,351.64 51.928,386.3 42.448,404.02 " fill="none" id="RepositoryFactory-to-OrderRepository" style="stroke:#A80036;stroke-width:0.4000000000000001;"/><polygon fill="#A80036" points="41.448,405.888,44.5584,403.4702,42.3924,404.125,41.7376,401.9591,41.448,405.888" style="stroke:#A80036;stroke-width:0.4000000000000001;"/><!--MD5=[64f1b428e056849191e6d71987789ae8]
link RegisterClientOrderUI to ViewProductsCatalogUI--><path codeLine="141" d="M241.956,27.688 C252.316,34.732 265.388,43.62 276.008,50.84 " fill="none" id="RegisterClientOrderUI-to-ViewProductsCatalogUI" style="stroke:#A80036;stroke-width:0.4000000000000001;"/><polygon fill="#A80036" points="277.692,51.98,275.6186,48.6302,276.0394,50.8535,273.8162,51.2744,277.692,51.98" style="stroke:#A80036;stroke-width:0.4000000000000001;"/><!--MD5=[e997f2c09d4a9e644ce54db76e49b2af]
link RegisterClientOrderUI to RegisterClientUI--><path codeLine="142" d="M224.172,27.688 C224.172,34.388 224.172,42.756 224.172,49.768 " fill="none" id="RegisterClientOrderUI-to-RegisterClientUI" style="stroke:#A80036;stroke-width:0.4000000000000001;"/><polygon fill="#A80036" points="224.172,51.896,225.772,48.296,224.172,49.896,222.572,48.296,224.172,51.896" style="stroke:#A80036;stroke-width:0.4000000000000001;"/><!--MD5=[50afaf0f4f905161aef5df2a84f51045]
@startuml

hide empty methods
hide empty attributes

class RegisterClientOrderUI <<presentation>>
class RegisterClientOrderController <<application>>
class Order <<domain>>
class OrderItem <<domain>>
class Product <<domain>>
class ListProductService <<application>>
class RegisterClientUI <<presentation>>
class ViewProductsCatalogUI <<presentation>>

class Order {
-OrderId /'automatically generated'/
- CreatedOn /'automatically generated na hora do registo do sistema'/
- BillingAddress
- DeliveryAddress
- TotalAmountWithoutTaxes
- TotalAmountWithTaxes
- TotalWeight
- TotalVolume
- Status
}

class ListProductService {
+findProductById(code)
}

database OrderRepository{
}

class PersistenceContext{
+repositories()
}



class Client{
+create()
}

class TransactionalContext{
+beginTransaction()
+commit()
}





class RegisterClientOrderController {
+registerOrder(addresses, shipment, payment, sourceChannel, interactionDate, additionalCommentText, items)
+registerOrder(addresses, shipment, payment, sourceChannel, interactionDate, items)
+verifyClientById(clientId)
+fillOrderItems(items, setItems)
+verifyProductId(code)
}

class RegisterClientOrderUI {
    #doShow()
}

class RegisterClientUI {
    #doShow()
}

class ViewProductsCatalogUI {
    #doShow()
}

class OrderItem {
-code
-itemQuantity
}

class Product {
-UniqueInternalCode
-Weight
-Volume
-PriceWithTaxes
-PriceWithoutTaxes
-Payment
-Shipment
-SourceChannel
-AdditionalComment
}

class Client {
- ClientID
- Name
- VAT
- Email
- PhoneNumber
}

database ClientRepository{
}

database ProductRepository {
}



class RepositoryFactory{
+create()
}


RegisterClientOrderUI - - -> RegisterClientOrderController : theController
RegisterClientOrderController - -> Order : order
RegisterClientOrderController - -> OrderRepository : orderRepository

/'RegisterClientOrderUI ..> Order : order'/



Order - -> "1..*" OrderItem : composed by
OrderItem - -> "1" Product : composed by
Order - -> "1" Client : ordered by

RegisterClientOrderController - -> ClientRepository : clientRepository

/'RegisterClientOrderController - -> Product : product'/
RegisterClientOrderController - -> ListProductService : svcProducts

/'RegisterClientOrderUI ..> Client : chosenClient
RegisterClientOrderUI ..> OrderItem : orderItem
RegisterClientOrderUI ..> Product : product'/

ListProductService - -> ProductRepository : productRepository

RegisterClientOrderController - ->PersistenceContext
RegisterClientOrderController - ->TransactionalContext

PersistenceContext - ->RepositoryFactory
RepositoryFactory - ->ClientRepository
RepositoryFactory - ->ProductRepository
RepositoryFactory - ->OrderRepository

RegisterClientOrderUI - -> ViewProductsCatalogUI
RegisterClientOrderUI - -> RegisterClientUI


@enduml

@startuml

hide empty methods
hide empty attributes

class RegisterClientOrderUI <<presentation>>
class RegisterClientOrderController <<application>>
class Order <<domain>>
class OrderItem <<domain>>
class Product <<domain>>
class ListProductService <<application>>
class RegisterClientUI <<presentation>>
class ViewProductsCatalogUI <<presentation>>

class Order {
-OrderId 
- CreatedOn 
- BillingAddress
- DeliveryAddress
- TotalAmountWithoutTaxes
- TotalAmountWithTaxes
- TotalWeight
- TotalVolume
- Status
}

class ListProductService {
+findProductById(code)
}

database OrderRepository{
}

class PersistenceContext{
+repositories()
}



class Client{
+create()
}

class TransactionalContext{
+beginTransaction()
+commit()
}





class RegisterClientOrderController {
+registerOrder(addresses, shipment, payment, sourceChannel, interactionDate, additionalCommentText, items)
+registerOrder(addresses, shipment, payment, sourceChannel, interactionDate, items)
+verifyClientById(clientId)
+fillOrderItems(items, setItems)
+verifyProductId(code)
}

class RegisterClientOrderUI {
    #doShow()
}

class RegisterClientUI {
    #doShow()
}

class ViewProductsCatalogUI {
    #doShow()
}

class OrderItem {
-code
-itemQuantity
}

class Product {
-UniqueInternalCode
-Weight
-Volume
-PriceWithTaxes
-PriceWithoutTaxes
-Payment
-Shipment
-SourceChannel
-AdditionalComment
}

class Client {
- ClientID
- Name
- VAT
- Email
- PhoneNumber
}

database ClientRepository{
}

database ProductRepository {
}



class RepositoryFactory{
+create()
}


RegisterClientOrderUI - - -> RegisterClientOrderController : theController
RegisterClientOrderController - -> Order : order
RegisterClientOrderController - -> OrderRepository : orderRepository




Order - -> "1..*" OrderItem : composed by
OrderItem - -> "1" Product : composed by
Order - -> "1" Client : ordered by

RegisterClientOrderController - -> ClientRepository : clientRepository

RegisterClientOrderController - -> ListProductService : svcProducts


ListProductService - -> ProductRepository : productRepository

RegisterClientOrderController - ->PersistenceContext
RegisterClientOrderController - ->TransactionalContext

PersistenceContext - ->RepositoryFactory
RepositoryFactory - ->ClientRepository
RepositoryFactory - ->ProductRepository
RepositoryFactory - ->OrderRepository

RegisterClientOrderUI - -> ViewProductsCatalogUI
RegisterClientOrderUI - -> RegisterClientUI


@enduml

PlantUML version 1.2021.4(Sun Apr 04 09:49:39 BST 2021)
(GPL source distribution)
Java Runtime: OpenJDK Runtime Environment
JVM: OpenJDK 64-Bit Server VM
Default Encoding: Cp1252
Language: pt
Country: PT
--></g></svg>