<?xml version="1.0" encoding="UTF-8" standalone="no"?><svg xmlns="http://www.w3.org/2000/svg" xmlns:xlink="http://www.w3.org/1999/xlink" contentScriptType="application/ecmascript" contentStyleType="text/css" height="838.4px" preserveAspectRatio="none" style="width:784px;height:838px;" version="1.1" viewBox="0 0 784 838" width="784px" zoomAndPan="magnify"><defs><filter height="300%" id="f1eta84amrtkbd" width="300%" x="-1" y="-1"><feGaussianBlur result="blurOut" stdDeviation="1.6000000000000003"/><feColorMatrix in="blurOut" result="blurOut2" type="matrix" values="0 0 0 0 0 0 0 0 0 0 0 0 0 0 0 0 0 0 .4 0"/><feOffset dx="3.2000000000000006" dy="3.2000000000000006" in="blurOut2" result="blurOut3"/><feBlend in="SourceGraphic" in2="blurOut3" mode="normal"/></filter></defs><g><!--MD5=[c7e08fff4246c00604e92343bbd55e1a]
class RegisterClientOrderUI--><rect codeLine="41" fill="#FEFECE" filter="url(#f1eta84amrtkbd)" height="56.0188" id="RegisterClientOrderUI" style="stroke:#A80036;stroke-width:1.2000000000000002;" width="123.2" x="122" y="5.6"/><ellipse cx="134" cy="21.675" fill="#ADD1B2" rx="8.8" ry="8.8" style="stroke:#A80036;stroke-width:0.8000000000000002;"/><path d="M135.6,18.875 Q135.7625,18.475 135.95,18.275 Q136.1375,18.075 136.35,18.075 Q136.725,18.075 136.9625,18.3 Q137.2,18.525 137.2,19.05 L137.2,20.3 Q137.2,20.825 136.975,21.05 Q136.75,21.275 136.4,21.275 Q136.0875,21.275 135.8875,21.1375 Q135.6875,21 135.6,20.6375 Q135.5625,20.3875 135.425,20.25 Q135.175,19.9875 134.725,19.8375 Q134.275,19.675 133.825,19.675 Q133.2625,19.675 132.7875,19.9 Q132.325,20.125 131.9625,20.625 Q131.6,21.125 131.6,21.8125 L131.6,22.55 Q131.6,23.375 132.275,23.925 Q132.95,24.475 134.15,24.475 Q134.8625,24.475 135.3625,24.3125 Q135.65,24.225 135.975,23.9375 Q136.1875,23.775 136.3,23.725 Q136.4125,23.675 136.55,23.675 Q136.8125,23.675 137,23.8875 Q137.2,24.0875 137.2,24.375 Q137.2,24.65 136.925,24.975 Q136.525,25.45 135.8875,25.7125 Q135.05,26.075 134.025,26.075 Q132.825,26.075 131.8625,25.6 Q131.0875,25.225 130.5375,24.4125 Q130,23.6 130,22.6375 L130,21.7625 Q130,20.7625 130.475,19.8875 Q130.9625,19.0125 131.8,18.55 Q132.65,18.075 133.6,18.075 Q134.175,18.075 134.675,18.275 Q135.175,18.475 135.6,18.875 Z " fill="#000000"/><text fill="#000000" font-family="sans-serif" font-size="9.6" font-style="italic" lengthAdjust="spacing" textLength="65.6" x="161.2" y="19.5656">«presentation»</text><text fill="#000000" font-family="sans-serif" font-size="9.6" lengthAdjust="spacing" textLength="97.6" x="145.2" y="31.6406">RegisterClientOrderUI</text><line style="stroke:#A80036;stroke-width:1.2000000000000002;" x1="122.8" x2="244.4" y1="37.75" y2="37.75"/><line style="stroke:#A80036;stroke-width:1.2000000000000002;" x1="122.8" x2="244.4" y1="44.15" y2="44.15"/><text fill="#000000" font-family="sans-serif" font-size="8.8" lengthAdjust="spacing" textLength="44" x="126.8" y="56.4852">#doShow()</text><!--MD5=[67c7b2b6e200fd5fbf3e0fb651d1ac94]
class RegisterClientOrderController--><rect codeLine="34" fill="#FEFECE" filter="url(#f1eta84amrtkbd)" height="89.225" id="RegisterClientOrderController" style="stroke:#A80036;stroke-width:1.2000000000000002;" width="434.4" x="226.4" y="187.2"/><ellipse cx="374.6" cy="203.275" fill="#ADD1B2" rx="8.8" ry="8.8" style="stroke:#A80036;stroke-width:0.8000000000000002;"/><path d="M376.2,200.475 Q376.3625,200.075 376.55,199.875 Q376.7375,199.675 376.95,199.675 Q377.325,199.675 377.5625,199.9 Q377.8,200.125 377.8,200.65 L377.8,201.9 Q377.8,202.425 377.575,202.65 Q377.35,202.875 377,202.875 Q376.6875,202.875 376.4875,202.7375 Q376.2875,202.6 376.2,202.2375 Q376.1625,201.9875 376.025,201.85 Q375.775,201.5875 375.325,201.4375 Q374.875,201.275 374.425,201.275 Q373.8625,201.275 373.3875,201.5 Q372.925,201.725 372.5625,202.225 Q372.2,202.725 372.2,203.4125 L372.2,204.15 Q372.2,204.975 372.875,205.525 Q373.55,206.075 374.75,206.075 Q375.4625,206.075 375.9625,205.9125 Q376.25,205.825 376.575,205.5375 Q376.7875,205.375 376.9,205.325 Q377.0125,205.275 377.15,205.275 Q377.4125,205.275 377.6,205.4875 Q377.8,205.6875 377.8,205.975 Q377.8,206.25 377.525,206.575 Q377.125,207.05 376.4875,207.3125 Q375.65,207.675 374.625,207.675 Q373.425,207.675 372.4625,207.2 Q371.6875,206.825 371.1375,206.0125 Q370.6,205.2 370.6,204.2375 L370.6,203.3625 Q370.6,202.3625 371.075,201.4875 Q371.5625,200.6125 372.4,200.15 Q373.25,199.675 374.2,199.675 Q374.775,199.675 375.275,199.875 Q375.775,200.075 376.2,200.475 Z " fill="#000000"/><text fill="#000000" font-family="sans-serif" font-size="9.6" font-style="italic" lengthAdjust="spacing" textLength="59.2" x="427" y="201.1656">«application»</text><text fill="#000000" font-family="sans-serif" font-size="9.6" lengthAdjust="spacing" textLength="131.2" x="391" y="213.2406">RegisterClientOrderController</text><line style="stroke:#A80036;stroke-width:1.2000000000000002;" x1="227.2" x2="660" y1="219.35" y2="219.35"/><line style="stroke:#A80036;stroke-width:1.2000000000000002;" x1="227.2" x2="660" y1="225.75" y2="225.75"/><text fill="#000000" font-family="sans-serif" font-size="8.8" lengthAdjust="spacing" textLength="424.8" x="231.2" y="238.0852">+registerOrder(addresses, shipment, payment, sourceChannel, interactionDate, additionalCommentText, items)</text><text fill="#000000" font-family="sans-serif" font-size="8.8" lengthAdjust="spacing" textLength="332" x="231.2" y="249.1539">+registerOrder(addresses, shipment, payment, sourceChannel, interactionDate, items)</text><text fill="#000000" font-family="sans-serif" font-size="8.8" lengthAdjust="spacing" textLength="97.6" x="231.2" y="260.2227">+verifyClientById(clientId)</text><text fill="#000000" font-family="sans-serif" font-size="8.8" lengthAdjust="spacing" textLength="118.4" x="231.2" y="271.2914">+fillOrderItems(items, setItems)</text><!--MD5=[cf4d6237fcae255cd2e1656cf84a30e2]
class Order--><rect codeLine="12" fill="#FEFECE" filter="url(#f1eta84amrtkbd)" height="138.1688" id="Order" style="stroke:#A80036;stroke-width:1.2000000000000002;" width="113.6" x="138.8" y="339.2"/><ellipse cx="171.68" cy="355.275" fill="#ADD1B2" rx="8.8" ry="8.8" style="stroke:#A80036;stroke-width:0.8000000000000002;"/><path d="M173.28,352.475 Q173.4425,352.075 173.63,351.875 Q173.8175,351.675 174.03,351.675 Q174.405,351.675 174.6425,351.9 Q174.88,352.125 174.88,352.65 L174.88,353.9 Q174.88,354.425 174.655,354.65 Q174.43,354.875 174.08,354.875 Q173.7675,354.875 173.5675,354.7375 Q173.3675,354.6 173.28,354.2375 Q173.2425,353.9875 173.105,353.85 Q172.855,353.5875 172.405,353.4375 Q171.955,353.275 171.505,353.275 Q170.9425,353.275 170.4675,353.5 Q170.005,353.725 169.6425,354.225 Q169.28,354.725 169.28,355.4125 L169.28,356.15 Q169.28,356.975 169.955,357.525 Q170.63,358.075 171.83,358.075 Q172.5425,358.075 173.0425,357.9125 Q173.33,357.825 173.655,357.5375 Q173.8675,357.375 173.98,357.325 Q174.0925,357.275 174.23,357.275 Q174.4925,357.275 174.68,357.4875 Q174.88,357.6875 174.88,357.975 Q174.88,358.25 174.605,358.575 Q174.205,359.05 173.5675,359.3125 Q172.73,359.675 171.705,359.675 Q170.505,359.675 169.5425,359.2 Q168.7675,358.825 168.2175,358.0125 Q167.68,357.2 167.68,356.2375 L167.68,355.3625 Q167.68,354.3625 168.155,353.4875 Q168.6425,352.6125 169.48,352.15 Q170.33,351.675 171.28,351.675 Q171.855,351.675 172.355,351.875 Q172.855,352.075 173.28,352.475 Z " fill="#000000"/><text fill="#000000" font-family="sans-serif" font-size="9.6" font-style="italic" lengthAdjust="spacing" textLength="44.8" x="185.92" y="353.1656">«domain»</text><text fill="#000000" font-family="sans-serif" font-size="9.6" lengthAdjust="spacing" textLength="24.8" x="195.92" y="365.2406">Order</text><line style="stroke:#A80036;stroke-width:1.2000000000000002;" x1="139.6" x2="251.6" y1="371.35" y2="371.35"/><text fill="#000000" font-family="sans-serif" font-size="8.8" lengthAdjust="spacing" textLength="32" x="143.6" y="383.6852">-OrderId</text><text fill="#000000" font-family="sans-serif" font-size="8.8" lengthAdjust="spacing" textLength="44.8" x="143.6" y="394.7539">-CreatedOn</text><text fill="#000000" font-family="sans-serif" font-size="8.8" lengthAdjust="spacing" textLength="58.4" x="143.6" y="405.8227">-BillingAddress</text><text fill="#000000" font-family="sans-serif" font-size="8.8" lengthAdjust="spacing" textLength="68" x="143.6" y="416.8914">-DeliveryAddress</text><text fill="#000000" font-family="sans-serif" font-size="8.8" lengthAdjust="spacing" textLength="104" x="143.6" y="427.9602">-TotalAmountWithoutTaxes</text><text fill="#000000" font-family="sans-serif" font-size="8.8" lengthAdjust="spacing" textLength="92" x="143.6" y="439.0289">-TotalAmountWithTaxes</text><text fill="#000000" font-family="sans-serif" font-size="8.8" lengthAdjust="spacing" textLength="48" x="143.6" y="450.0977">-TotalWeight</text><text fill="#000000" font-family="sans-serif" font-size="8.8" lengthAdjust="spacing" textLength="50.4" x="143.6" y="461.1664">-TotalVolume</text><text fill="#000000" font-family="sans-serif" font-size="8.8" lengthAdjust="spacing" textLength="28" x="143.6" y="472.2352">-Status</text><!--MD5=[708e328039b60d50c6285936843ac334]
class OrderRepository--><rect codeLine="24" fill="#FEFECE" filter="url(#f1eta84amrtkbd)" height="56.0188" id="OrderRepository" style="stroke:#A80036;stroke-width:1.2000000000000002;" width="97.6" x="407.6" y="380.4"/><ellipse cx="419.6" cy="396.475" fill="#ADD1B2" rx="8.8" ry="8.8" style="stroke:#A80036;stroke-width:0.8000000000000002;"/><path d="M421.2,393.675 Q421.3625,393.275 421.55,393.075 Q421.7375,392.875 421.95,392.875 Q422.325,392.875 422.5625,393.1 Q422.8,393.325 422.8,393.85 L422.8,395.1 Q422.8,395.625 422.575,395.85 Q422.35,396.075 422,396.075 Q421.6875,396.075 421.4875,395.9375 Q421.2875,395.8 421.2,395.4375 Q421.1625,395.1875 421.025,395.05 Q420.775,394.7875 420.325,394.6375 Q419.875,394.475 419.425,394.475 Q418.8625,394.475 418.3875,394.7 Q417.925,394.925 417.5625,395.425 Q417.2,395.925 417.2,396.6125 L417.2,397.35 Q417.2,398.175 417.875,398.725 Q418.55,399.275 419.75,399.275 Q420.4625,399.275 420.9625,399.1125 Q421.25,399.025 421.575,398.7375 Q421.7875,398.575 421.9,398.525 Q422.0125,398.475 422.15,398.475 Q422.4125,398.475 422.6,398.6875 Q422.8,398.8875 422.8,399.175 Q422.8,399.45 422.525,399.775 Q422.125,400.25 421.4875,400.5125 Q420.65,400.875 419.625,400.875 Q418.425,400.875 417.4625,400.4 Q416.6875,400.025 416.1375,399.2125 Q415.6,398.4 415.6,397.4375 L415.6,396.5625 Q415.6,395.5625 416.075,394.6875 Q416.5625,393.8125 417.4,393.35 Q418.25,392.875 419.2,392.875 Q419.775,392.875 420.275,393.075 Q420.775,393.275 421.2,393.675 Z " fill="#000000"/><text fill="#000000" font-family="sans-serif" font-size="9.6" font-style="italic" lengthAdjust="spacing" textLength="54.4" x="439.6" y="394.3656">«repository»</text><text fill="#000000" font-family="sans-serif" font-size="9.6" lengthAdjust="spacing" textLength="72" x="430.8" y="406.4406">OrderRepository</text><line style="stroke:#A80036;stroke-width:1.2000000000000002;" x1="408.4" x2="504.4" y1="412.55" y2="412.55"/><line style="stroke:#A80036;stroke-width:1.2000000000000002;" x1="408.4" x2="504.4" y1="418.95" y2="418.95"/><text fill="#000000" font-family="sans-serif" font-size="8.8" lengthAdjust="spacing" textLength="51.2" x="412.4" y="431.2852">+save(order)</text><!--MD5=[003718b22fee2486eeba0fa029a176b7]
class OrderItem--><rect codeLine="46" fill="#FEFECE" filter="url(#f1eta84amrtkbd)" height="60.6875" id="OrderItem" style="stroke:#A80036;stroke-width:1.2000000000000002;" width="69.6" x="68.8" y="553.2"/><ellipse cx="80.8" cy="569.275" fill="#ADD1B2" rx="8.8" ry="8.8" style="stroke:#A80036;stroke-width:0.8000000000000002;"/><path d="M82.4,566.475 Q82.5625,566.075 82.75,565.875 Q82.9375,565.675 83.15,565.675 Q83.525,565.675 83.7625,565.9 Q84,566.125 84,566.65 L84,567.9 Q84,568.425 83.775,568.65 Q83.55,568.875 83.2,568.875 Q82.8875,568.875 82.6875,568.7375 Q82.4875,568.6 82.4,568.2375 Q82.3625,567.9875 82.225,567.85 Q81.975,567.5875 81.525,567.4375 Q81.075,567.275 80.625,567.275 Q80.0625,567.275 79.5875,567.5 Q79.125,567.725 78.7625,568.225 Q78.4,568.725 78.4,569.4125 L78.4,570.15 Q78.4,570.975 79.075,571.525 Q79.75,572.075 80.95,572.075 Q81.6625,572.075 82.1625,571.9125 Q82.45,571.825 82.775,571.5375 Q82.9875,571.375 83.1,571.325 Q83.2125,571.275 83.35,571.275 Q83.6125,571.275 83.8,571.4875 Q84,571.6875 84,571.975 Q84,572.25 83.725,572.575 Q83.325,573.05 82.6875,573.3125 Q81.85,573.675 80.825,573.675 Q79.625,573.675 78.6625,573.2 Q77.8875,572.825 77.3375,572.0125 Q76.8,571.2 76.8,570.2375 L76.8,569.3625 Q76.8,568.3625 77.275,567.4875 Q77.7625,566.6125 78.6,566.15 Q79.45,565.675 80.4,565.675 Q80.975,565.675 81.475,565.875 Q81.975,566.075 82.4,566.475 Z " fill="#000000"/><text fill="#000000" font-family="sans-serif" font-size="9.6" font-style="italic" lengthAdjust="spacing" textLength="44.8" x="91.6" y="567.1656">«domain»</text><text fill="#000000" font-family="sans-serif" font-size="9.6" lengthAdjust="spacing" textLength="44" x="92" y="579.2406">OrderItem</text><line style="stroke:#A80036;stroke-width:1.2000000000000002;" x1="69.6" x2="137.6" y1="585.35" y2="585.35"/><text fill="#000000" font-family="sans-serif" font-size="8.8" lengthAdjust="spacing" textLength="22.4" x="73.6" y="597.6852">-code</text><text fill="#000000" font-family="sans-serif" font-size="8.8" lengthAdjust="spacing" textLength="50.4" x="73.6" y="608.7539">-itemQuantity</text><!--MD5=[72136138052d025cffdce3c22fbd185f]
class Product--><rect codeLine="51" fill="#FEFECE" filter="url(#f1eta84amrtkbd)" height="138.1688" id="Product" style="stroke:#A80036;stroke-width:1.2000000000000002;" width="87.2" x="5.6" y="689.6"/><ellipse cx="26.6" cy="705.675" fill="#ADD1B2" rx="8.8" ry="8.8" style="stroke:#A80036;stroke-width:0.8000000000000002;"/><path d="M28.2,702.875 Q28.3625,702.475 28.55,702.275 Q28.7375,702.075 28.95,702.075 Q29.325,702.075 29.5625,702.3 Q29.8,702.525 29.8,703.05 L29.8,704.3 Q29.8,704.825 29.575,705.05 Q29.35,705.275 29,705.275 Q28.6875,705.275 28.4875,705.1375 Q28.2875,705 28.2,704.6375 Q28.1625,704.3875 28.025,704.25 Q27.775,703.9875 27.325,703.8375 Q26.875,703.675 26.425,703.675 Q25.8625,703.675 25.3875,703.9 Q24.925,704.125 24.5625,704.625 Q24.2,705.125 24.2,705.8125 L24.2,706.55 Q24.2,707.375 24.875,707.925 Q25.55,708.475 26.75,708.475 Q27.4625,708.475 27.9625,708.3125 Q28.25,708.225 28.575,707.9375 Q28.7875,707.775 28.9,707.725 Q29.0125,707.675 29.15,707.675 Q29.4125,707.675 29.6,707.8875 Q29.8,708.0875 29.8,708.375 Q29.8,708.65 29.525,708.975 Q29.125,709.45 28.4875,709.7125 Q27.65,710.075 26.625,710.075 Q25.425,710.075 24.4625,709.6 Q23.6875,709.225 23.1375,708.4125 Q22.6,707.6 22.6,706.6375 L22.6,705.7625 Q22.6,704.7625 23.075,703.8875 Q23.5625,703.0125 24.4,702.55 Q25.25,702.075 26.2,702.075 Q26.775,702.075 27.275,702.275 Q27.775,702.475 28.2,702.875 Z " fill="#000000"/><text fill="#000000" font-family="sans-serif" font-size="9.6" font-style="italic" lengthAdjust="spacing" textLength="44.8" x="38.2" y="703.5656">«domain»</text><text fill="#000000" font-family="sans-serif" font-size="9.6" lengthAdjust="spacing" textLength="33.6" x="43.8" y="715.6406">Product</text><line style="stroke:#A80036;stroke-width:1.2000000000000002;" x1="6.4" x2="92" y1="721.75" y2="721.75"/><text fill="#000000" font-family="sans-serif" font-size="8.8" lengthAdjust="spacing" textLength="77.6" x="10.4" y="734.0852">-UniqueInternalCode</text><text fill="#000000" font-family="sans-serif" font-size="8.8" lengthAdjust="spacing" textLength="29.6" x="10.4" y="745.1539">-Weight</text><text fill="#000000" font-family="sans-serif" font-size="8.8" lengthAdjust="spacing" textLength="32" x="10.4" y="756.2227">-Volume</text><text fill="#000000" font-family="sans-serif" font-size="8.8" lengthAdjust="spacing" textLength="63.2" x="10.4" y="767.2914">-PriceWithTaxes</text><text fill="#000000" font-family="sans-serif" font-size="8.8" lengthAdjust="spacing" textLength="75.2" x="10.4" y="778.3602">-PriceWithoutTaxes</text><text fill="#000000" font-family="sans-serif" font-size="8.8" lengthAdjust="spacing" textLength="36" x="10.4" y="789.4289">-Payment</text><text fill="#000000" font-family="sans-serif" font-size="8.8" lengthAdjust="spacing" textLength="38.4" x="10.4" y="800.4977">-Shipment</text><text fill="#000000" font-family="sans-serif" font-size="8.8" lengthAdjust="spacing" textLength="62.4" x="10.4" y="811.5664">-SourceChannel</text><text fill="#000000" font-family="sans-serif" font-size="8.8" lengthAdjust="spacing" textLength="76" x="10.4" y="822.6352">-AdditionalComment</text><!--MD5=[f51bef916b5385bd9d27aaa0cee735c0]
class ListProductService--><rect codeLine="10" fill="#FEFECE" filter="url(#f1eta84amrtkbd)" height="38.55" id="ListProductService" style="stroke:#A80036;stroke-width:1.2000000000000002;" width="107.2" x="533.2" y="389.2"/><ellipse cx="545.2" cy="405.275" fill="#ADD1B2" rx="8.8" ry="8.8" style="stroke:#A80036;stroke-width:0.8000000000000002;"/><path d="M546.8,402.475 Q546.9625,402.075 547.15,401.875 Q547.3375,401.675 547.55,401.675 Q547.925,401.675 548.1625,401.9 Q548.4,402.125 548.4,402.65 L548.4,403.9 Q548.4,404.425 548.175,404.65 Q547.95,404.875 547.6,404.875 Q547.2875,404.875 547.0875,404.7375 Q546.8875,404.6 546.8,404.2375 Q546.7625,403.9875 546.625,403.85 Q546.375,403.5875 545.925,403.4375 Q545.475,403.275 545.025,403.275 Q544.4625,403.275 543.9875,403.5 Q543.525,403.725 543.1625,404.225 Q542.8,404.725 542.8,405.4125 L542.8,406.15 Q542.8,406.975 543.475,407.525 Q544.15,408.075 545.35,408.075 Q546.0625,408.075 546.5625,407.9125 Q546.85,407.825 547.175,407.5375 Q547.3875,407.375 547.5,407.325 Q547.6125,407.275 547.75,407.275 Q548.0125,407.275 548.2,407.4875 Q548.4,407.6875 548.4,407.975 Q548.4,408.25 548.125,408.575 Q547.725,409.05 547.0875,409.3125 Q546.25,409.675 545.225,409.675 Q544.025,409.675 543.0625,409.2 Q542.2875,408.825 541.7375,408.0125 Q541.2,407.2 541.2,406.2375 L541.2,405.3625 Q541.2,404.3625 541.675,403.4875 Q542.1625,402.6125 543,402.15 Q543.85,401.675 544.8,401.675 Q545.375,401.675 545.875,401.875 Q546.375,402.075 546.8,402.475 Z " fill="#000000"/><text fill="#000000" font-family="sans-serif" font-size="9.6" font-style="italic" lengthAdjust="spacing" textLength="59.2" x="567.6" y="403.1656">«application»</text><text fill="#000000" font-family="sans-serif" font-size="9.6" lengthAdjust="spacing" textLength="81.6" x="556.4" y="415.2406">ListProductService</text><line style="stroke:#A80036;stroke-width:1.2000000000000002;" x1="534" x2="639.6" y1="421.35" y2="421.35"/><!--MD5=[ed6624c6556d5e7b1bd23032162d20b7]
class Client--><rect codeLine="63" fill="#FEFECE" filter="url(#f1eta84amrtkbd)" height="87.3438" id="Client" style="stroke:#A80036;stroke-width:1.2000000000000002;" width="66.4" x="553.6" y="540"/><ellipse cx="572.44" cy="552.8" fill="#ADD1B2" rx="8.8" ry="8.8" style="stroke:#A80036;stroke-width:0.8000000000000002;"/><path d="M574.04,550 Q574.2025,549.6 574.39,549.4 Q574.5775,549.2 574.79,549.2 Q575.165,549.2 575.4025,549.425 Q575.64,549.65 575.64,550.175 L575.64,551.425 Q575.64,551.95 575.415,552.175 Q575.19,552.4 574.84,552.4 Q574.5275,552.4 574.3275,552.2625 Q574.1275,552.125 574.04,551.7625 Q574.0025,551.5125 573.865,551.375 Q573.615,551.1125 573.165,550.9625 Q572.715,550.8 572.265,550.8 Q571.7025,550.8 571.2275,551.025 Q570.765,551.25 570.4025,551.75 Q570.04,552.25 570.04,552.9375 L570.04,553.675 Q570.04,554.5 570.715,555.05 Q571.39,555.6 572.59,555.6 Q573.3025,555.6 573.8025,555.4375 Q574.09,555.35 574.415,555.0625 Q574.6275,554.9 574.74,554.85 Q574.8525,554.8 574.99,554.8 Q575.2525,554.8 575.44,555.0125 Q575.64,555.2125 575.64,555.5 Q575.64,555.775 575.365,556.1 Q574.965,556.575 574.3275,556.8375 Q573.49,557.2 572.465,557.2 Q571.265,557.2 570.3025,556.725 Q569.5275,556.35 568.9775,555.5375 Q568.44,554.725 568.44,553.7625 L568.44,552.8875 Q568.44,551.8875 568.915,551.0125 Q569.4025,550.1375 570.24,549.675 Q571.09,549.2 572.04,549.2 Q572.615,549.2 573.115,549.4 Q573.615,549.6 574.04,550 Z " fill="#000000"/><text fill="#000000" font-family="sans-serif" font-size="9.6" lengthAdjust="spacing" textLength="25.6" x="585.16" y="556.7281">Client</text><line style="stroke:#A80036;stroke-width:1.2000000000000002;" x1="554.4" x2="619.2" y1="565.6" y2="565.6"/><text fill="#000000" font-family="sans-serif" font-size="8.8" lengthAdjust="spacing" textLength="31.2" x="558.4" y="577.9352">-ClientID</text><text fill="#000000" font-family="sans-serif" font-size="8.8" lengthAdjust="spacing" textLength="24.8" x="558.4" y="589.0039">-Name</text><text fill="#000000" font-family="sans-serif" font-size="8.8" lengthAdjust="spacing" textLength="20.8" x="558.4" y="600.0727">-VAT</text><text fill="#000000" font-family="sans-serif" font-size="8.8" lengthAdjust="spacing" textLength="22.4" x="558.4" y="611.1414">-Email</text><text fill="#000000" font-family="sans-serif" font-size="8.8" lengthAdjust="spacing" textLength="56.8" x="558.4" y="622.2102">-PhoneNumber</text><!--MD5=[50517cd8d76fa284d183a993d38d0bc5]
class ClientRepository--><rect codeLine="71" fill="#FEFECE" filter="url(#f1eta84amrtkbd)" height="49.4688" id="ClientRepository" style="stroke:#A80036;stroke-width:1.2000000000000002;" width="98.4" x="280.8" y="383.6"/><ellipse cx="292.8" cy="396.4" fill="#ADD1B2" rx="8.8" ry="8.8" style="stroke:#A80036;stroke-width:0.8000000000000002;"/><path d="M294.4,393.6 Q294.5625,393.2 294.75,393 Q294.9375,392.8 295.15,392.8 Q295.525,392.8 295.7625,393.025 Q296,393.25 296,393.775 L296,395.025 Q296,395.55 295.775,395.775 Q295.55,396 295.2,396 Q294.8875,396 294.6875,395.8625 Q294.4875,395.725 294.4,395.3625 Q294.3625,395.1125 294.225,394.975 Q293.975,394.7125 293.525,394.5625 Q293.075,394.4 292.625,394.4 Q292.0625,394.4 291.5875,394.625 Q291.125,394.85 290.7625,395.35 Q290.4,395.85 290.4,396.5375 L290.4,397.275 Q290.4,398.1 291.075,398.65 Q291.75,399.2 292.95,399.2 Q293.6625,399.2 294.1625,399.0375 Q294.45,398.95 294.775,398.6625 Q294.9875,398.5 295.1,398.45 Q295.2125,398.4 295.35,398.4 Q295.6125,398.4 295.8,398.6125 Q296,398.8125 296,399.1 Q296,399.375 295.725,399.7 Q295.325,400.175 294.6875,400.4375 Q293.85,400.8 292.825,400.8 Q291.625,400.8 290.6625,400.325 Q289.8875,399.95 289.3375,399.1375 Q288.8,398.325 288.8,397.3625 L288.8,396.4875 Q288.8,395.4875 289.275,394.6125 Q289.7625,393.7375 290.6,393.275 Q291.45,392.8 292.4,392.8 Q292.975,392.8 293.475,393 Q293.975,393.2 294.4,393.6 Z " fill="#000000"/><text fill="#000000" font-family="sans-serif" font-size="9.6" lengthAdjust="spacing" textLength="72.8" x="304" y="400.3281">ClientRepository</text><line style="stroke:#A80036;stroke-width:1.2000000000000002;" x1="281.6" x2="378.4" y1="409.2" y2="409.2"/><line style="stroke:#A80036;stroke-width:1.2000000000000002;" x1="281.6" x2="378.4" y1="415.6" y2="415.6"/><text fill="#000000" font-family="sans-serif" font-size="8.8" lengthAdjust="spacing" textLength="72.8" x="285.6" y="427.9352">+ofIdentity(clientId)</text><!--MD5=[e2dbecb69b2958e0caa95e503705a248]
link RegisterClientOrderUI to RegisterClientOrderController--><path codeLine="76" d="M219.752,61.768 C261.672,93.488 331.456,146.32 381.984,184.56 " fill="none" id="RegisterClientOrderUI-to-RegisterClientOrderController" style="stroke:#A80036;stroke-width:0.8000000000000002;"/><polygon fill="#A80036" points="385.28,187.056,381.4676,180.1607,382.0896,184.6432,377.6071,185.2653,385.28,187.056" style="stroke:#A80036;stroke-width:0.8000000000000002;"/><text fill="#000000" font-family="sans-serif" font-size="10.4" lengthAdjust="spacing" textLength="58.4" x="303.6" y="121.9961">theController</text><!--MD5=[e9b36d6845ab1cce0e789c8e4f3b2984]
link RegisterClientOrderController to Order--><path codeLine="77" d="M361.28,276.84 C330.56,294.672 296.056,316.424 266.8,339.2 C263.104,342.08 259.384,345.12 255.688,348.264 " fill="none" id="RegisterClientOrderController-to-Order" style="stroke:#A80036;stroke-width:0.8000000000000002;"/><polygon fill="#A80036" points="252.584,350.928,260.1332,348.6719,255.621,348.3248,255.9681,343.8127,252.584,350.928" style="stroke:#A80036;stroke-width:0.8000000000000002;"/><text fill="#000000" font-family="sans-serif" font-size="10.4" lengthAdjust="spacing" textLength="23.2" x="318.8" y="312.3961">order</text><!--MD5=[365c6f71975a8dfad4890538336f5b73]
link RegisterClientOrderController to OrderRepository--><path codeLine="78" d="M446.832,276.912 C449.088,307.728 452.048,348.152 454.072,375.832 " fill="none" id="RegisterClientOrderController-to-OrderRepository" style="stroke:#A80036;stroke-width:0.8000000000000002;"/><polygon fill="#A80036" points="454.392,380.16,457.0694,372.7498,454.1062,376.1702,450.6857,373.207,454.392,380.16" style="stroke:#A80036;stroke-width:0.8000000000000002;"/><text fill="#000000" font-family="sans-serif" font-size="10.4" lengthAdjust="spacing" textLength="72.8" x="450.8" y="312.3961">orderRepository</text><!--MD5=[20c1eee37395b4525a92d3051af5e654]
link RegisterClientOrderUI to Order--><path codeLine="80" d="M184.48,61.84 C186.312,118.784 190.576,251.424 193.264,334.872 " fill="none" id="RegisterClientOrderUI-to-Order" style="stroke:#A80036;stroke-width:0.8000000000000002;stroke-dasharray:7.0,7.0;"/><polygon fill="#A80036" points="193.392,339.056,196.3427,331.7503,193.2545,335.0584,189.9465,331.9702,193.392,339.056" style="stroke:#A80036;stroke-width:0.8000000000000002;"/><text fill="#000000" font-family="sans-serif" font-size="10.4" lengthAdjust="spacing" textLength="23.2" x="189.2" y="160.3961">order</text><!--MD5=[06a6064c5cdd443a62b5eb59fb550c27]
link Order to OrderItem--><path codeLine="84" d="M159.24,477.808 C146.192,502.44 132.056,529.104 121.296,549.4 " fill="none" id="Order-to-OrderItem" style="stroke:#A80036;stroke-width:0.8000000000000002;"/><polygon fill="#A80036" points="119.328,553.12,125.53,548.2604,121.2032,549.5868,119.8768,545.2601,119.328,553.12" style="stroke:#A80036;stroke-width:0.8000000000000002;"/><text fill="#000000" font-family="sans-serif" font-size="10.4" lengthAdjust="spacing" textLength="62.4" x="145.2" y="513.1961">composed by</text><text fill="#000000" font-family="sans-serif" font-size="10.4" lengthAdjust="spacing" textLength="16" x="104.7046" y="544.5819">1..*</text><!--MD5=[663c18ce459b41abc4dbff87433befbf]
link OrderItem to Product--><path codeLine="85" d="M94.248,614.24 C88.104,633.84 79.792,660.384 71.976,685.32 " fill="none" id="OrderItem-to-Product" style="stroke:#A80036;stroke-width:0.8000000000000002;"/><polygon fill="#A80036" points="70.728,689.304,75.94,683.3951,71.9276,685.4881,69.8346,681.4757,70.728,689.304" style="stroke:#A80036;stroke-width:0.8000000000000002;"/><text fill="#000000" font-family="sans-serif" font-size="10.4" lengthAdjust="spacing" textLength="62.4" x="82.8" y="662.7961">composed by</text><text fill="#000000" font-family="sans-serif" font-size="10.4" lengthAdjust="spacing" textLength="5.6" x="66.7374" y="680.7998">1</text><!--MD5=[b4eabd1a63a4ad1f2f93b60573323bf1]
link Order to Client--><path codeLine="86" d="M252.52,467.848 C257.168,471.384 261.952,474.688 266.8,477.6 C360.216,533.784 487.256,563.928 549.424,576.16 " fill="none" id="Order-to-Client" style="stroke:#A80036;stroke-width:0.8000000000000002;"/><polygon fill="#A80036" points="553.424,576.944,546.9686,572.4266,549.4978,576.1793,545.745,578.7085,553.424,576.944" style="stroke:#A80036;stroke-width:0.8000000000000002;"/><text fill="#000000" font-family="sans-serif" font-size="10.4" lengthAdjust="spacing" textLength="48.8" x="342" y="513.1961">ordered by</text><text fill="#000000" font-family="sans-serif" font-size="10.4" lengthAdjust="spacing" textLength="5.6" x="541.6063" y="572.7079">1</text><!--MD5=[c1a2218c3fddee397f4198ad4ccffbcd]
link RegisterClientOrderController to ClientRepository--><path codeLine="88" d="M386.752,276.888 C379.376,284.304 372.44,292.36 366.8,300.8 C350.696,324.904 340.92,356.776 335.536,379.408 " fill="none" id="RegisterClientOrderController-to-ClientRepository" style="stroke:#A80036;stroke-width:0.8000000000000002;"/><polygon fill="#A80036" points="334.584,383.52,339.3264,377.228,335.4868,379.6232,333.0916,375.7836,334.584,383.52" style="stroke:#A80036;stroke-width:0.8000000000000002;"/><text fill="#000000" font-family="sans-serif" font-size="10.4" lengthAdjust="spacing" textLength="74.4" x="367.6" y="312.3961">clientRepository</text><!--MD5=[40985b3669edb5b768b0f993418b1614]
link RegisterClientOrderController to ListProductService--><path codeLine="91" d="M507.04,276.96 C515.576,284.368 523.784,292.4 530.8,300.8 C552.488,326.776 569.12,362.528 578.424,385.36 " fill="none" id="RegisterClientOrderController-to-ListProductService" style="stroke:#A80036;stroke-width:0.8000000000000002;"/><polygon fill="#A80036" points="579.968,389.184,580.2358,381.3095,578.4686,385.4756,574.3025,383.7085,579.968,389.184" style="stroke:#A80036;stroke-width:0.8000000000000002;"/><text fill="#000000" font-family="sans-serif" font-size="10.4" lengthAdjust="spacing" textLength="56.8" x="542" y="312.3961">svcProducts</text><!--MD5=[fa91a30e7e5ad50919bc24c8503bd923]
link RegisterClientOrderUI to Client--><path codeLine="93" d="M245.328,37.56 C385.792,45.584 717.2,69.52 717.2,116.8 C717.2,116.8 717.2,116.8 717.2,409.2 C717.2,472.08 661.832,526.72 623.256,557.168 " fill="none" id="RegisterClientOrderUI-to-Client" style="stroke:#A80036;stroke-width:0.8000000000000002;stroke-dasharray:7.0,7.0;"/><polygon fill="#A80036" points="620.04,559.672,627.6832,557.7583,623.1912,557.2083,623.7413,552.7164,620.04,559.672" style="stroke:#A80036;stroke-width:0.8000000000000002;"/><text fill="#000000" font-family="sans-serif" font-size="10.4" lengthAdjust="spacing" textLength="60" x="718" y="236.3961">chosenClient</text><!--MD5=[9bf29b54086305535244d3efec350792]
link RegisterClientOrderUI to OrderItem--><path codeLine="94" d="M131.112,61.696 C112.648,75.288 96.4,93.784 96.4,116.8 C96.4,116.8 96.4,116.8 96.4,409.2 C96.4,457.752 99.248,513.88 101.36,548.856 " fill="none" id="RegisterClientOrderUI-to-OrderItem" style="stroke:#A80036;stroke-width:0.8000000000000002;stroke-dasharray:7.0,7.0;"/><polygon fill="#A80036" points="101.616,553.016,104.3778,545.6368,101.3757,549.0232,97.9893,546.0212,101.616,553.016" style="stroke:#A80036;stroke-width:0.8000000000000002;"/><text fill="#000000" font-family="sans-serif" font-size="10.4" lengthAdjust="spacing" textLength="43.2" x="97.2" y="236.3961">orderItem</text><!--MD5=[d662ba62a669b6305e43789ca8f324c1]
link RegisterClientOrderUI to Product--><path codeLine="95" d="M121.992,41.856 C77.792,51.048 26,71.488 26,116.8 C26,116.8 26,116.8 26,584.4 C26,617.72 30.248,654.32 35.112,685.296 " fill="none" id="RegisterClientOrderUI-to-Product" style="stroke:#A80036;stroke-width:0.8000000000000002;stroke-dasharray:7.0,7.0;"/><polygon fill="#A80036" points="35.768,689.432,37.798,681.8189,35.14,685.4816,31.4774,682.8236,35.768,689.432" style="stroke:#A80036;stroke-width:0.8000000000000002;"/><text fill="#000000" font-family="sans-serif" font-size="10.4" lengthAdjust="spacing" textLength="34.4" x="26.8" y="312.3961">product</text><!--MD5=[c79b67d007285c9e29882dfdcf626c78]
@startuml
skinparam classAttributeIconSize 0
hide empty methods

class RegisterClientOrderUI <<presentation>>
class RegisterClientOrderController <<application>>
class Order <<domain>>
class OrderRepository <<repository>>
class OrderItem <<domain>>
class Product <<domain>>
class ListProductService <<application>>

class Order {
-OrderId /'automatically generated'/
- CreatedOn /'automatically generated na hora do registo do sistema'/
- BillingAddress
- DeliveryAddress
- TotalAmountWithoutTaxes
- TotalAmountWithTaxes
- TotalWeight
- TotalVolume
- Status
}

class OrderRepository{
+save(order)
}







class RegisterClientOrderController {
+registerOrder(addresses, shipment, payment, sourceChannel, interactionDate, additionalCommentText, items)
+registerOrder(addresses, shipment, payment, sourceChannel, interactionDate, items)
+verifyClientById(clientId)
+fillOrderItems(items, setItems)
}

class RegisterClientOrderUI {
    #doShow()

}

class OrderItem {
-code
-itemQuantity
}

class Product {
-UniqueInternalCode
-Weight
-Volume
-PriceWithTaxes
-PriceWithoutTaxes
-Payment
-Shipment
-SourceChannel
-AdditionalComment
}

class Client {
- ClientID
- Name
- VAT
- Email
- PhoneNumber
}

class ClientRepository{
+ofIdentity(clientId)
}


RegisterClientOrderUI - - -> RegisterClientOrderController : theController
RegisterClientOrderController - -> Order : order
RegisterClientOrderController - -> OrderRepository : orderRepository

RegisterClientOrderUI ..> Order : order



Order - -> "1..*" OrderItem : composed by
OrderItem - -> "1" Product : composed by
Order - -> "1" Client : ordered by

RegisterClientOrderController - -> ClientRepository : clientRepository

/'RegisterClientOrderController - -> Product : product'/
RegisterClientOrderController - -> ListProductService : svcProducts

RegisterClientOrderUI ..> Client : chosenClient
RegisterClientOrderUI ..> OrderItem : orderItem
RegisterClientOrderUI ..> Product : product


@enduml

@startuml
skinparam classAttributeIconSize 0
hide empty methods

class RegisterClientOrderUI <<presentation>>
class RegisterClientOrderController <<application>>
class Order <<domain>>
class OrderRepository <<repository>>
class OrderItem <<domain>>
class Product <<domain>>
class ListProductService <<application>>

class Order {
-OrderId 
- CreatedOn 
- BillingAddress
- DeliveryAddress
- TotalAmountWithoutTaxes
- TotalAmountWithTaxes
- TotalWeight
- TotalVolume
- Status
}

class OrderRepository{
+save(order)
}







class RegisterClientOrderController {
+registerOrder(addresses, shipment, payment, sourceChannel, interactionDate, additionalCommentText, items)
+registerOrder(addresses, shipment, payment, sourceChannel, interactionDate, items)
+verifyClientById(clientId)
+fillOrderItems(items, setItems)
}

class RegisterClientOrderUI {
    #doShow()

}

class OrderItem {
-code
-itemQuantity
}

class Product {
-UniqueInternalCode
-Weight
-Volume
-PriceWithTaxes
-PriceWithoutTaxes
-Payment
-Shipment
-SourceChannel
-AdditionalComment
}

class Client {
- ClientID
- Name
- VAT
- Email
- PhoneNumber
}

class ClientRepository{
+ofIdentity(clientId)
}


RegisterClientOrderUI - - -> RegisterClientOrderController : theController
RegisterClientOrderController - -> Order : order
RegisterClientOrderController - -> OrderRepository : orderRepository

RegisterClientOrderUI ..> Order : order



Order - -> "1..*" OrderItem : composed by
OrderItem - -> "1" Product : composed by
Order - -> "1" Client : ordered by

RegisterClientOrderController - -> ClientRepository : clientRepository

RegisterClientOrderController - -> ListProductService : svcProducts

RegisterClientOrderUI ..> Client : chosenClient
RegisterClientOrderUI ..> OrderItem : orderItem
RegisterClientOrderUI ..> Product : product


@enduml

PlantUML version 1.2021.4(Sun Apr 04 09:49:39 BST 2021)
(GPL source distribution)
Java Runtime: OpenJDK Runtime Environment
JVM: OpenJDK 64-Bit Server VM
Default Encoding: Cp1252
Language: pt
Country: PT
--></g></svg>