<?xml version="1.0" encoding="UTF-8" standalone="no"?><svg xmlns="http://www.w3.org/2000/svg" xmlns:xlink="http://www.w3.org/1999/xlink" contentScriptType="application/ecmascript" contentStyleType="text/css" height="316px" preserveAspectRatio="none" style="width:504px;height:316px;" version="1.1" viewBox="0 0 504 316" width="504px" zoomAndPan="magnify"><defs><filter height="300%" id="faoehfmat3yox" width="300%" x="-1" y="-1"><feGaussianBlur result="blurOut" stdDeviation="2.0"/><feColorMatrix in="blurOut" result="blurOut2" type="matrix" values="0 0 0 0 0 0 0 0 0 0 0 0 0 0 0 0 0 0 .4 0"/><feOffset dx="4.0" dy="4.0" in="blurOut2" result="blurOut3"/><feBlend in="SourceGraphic" in2="blurOut3" mode="normal"/></filter></defs><g><rect fill="#FFFFFF" filter="url(#faoehfmat3yox)" height="122.4063" style="stroke:#A80036;stroke-width:1.0;" width="10" x="21" y="99.6094"/><rect fill="#FFFFFF" filter="url(#faoehfmat3yox)" height="30.3516" style="stroke:#A80036;stroke-width:1.0;" width="10" x="455" y="121.9609"/><rect fill="#FFFFFF" filter="url(#faoehfmat3yox)" height="30.3516" style="stroke:#A80036;stroke-width:1.0;" width="10" x="455" y="182.6641"/><line style="stroke:#A80036;stroke-width:1.0;stroke-dasharray:5.0,5.0;" x1="26" x2="26" y1="89.6094" y2="231.0156"/><line style="stroke:#A80036;stroke-width:1.0;stroke-dasharray:5.0,5.0;" x1="460" x2="460" y1="89.6094" y2="231.0156"/><text fill="#000000" font-family="sans-serif" font-size="14" lengthAdjust="spacing" textLength="36" x="5" y="86.5332">Client</text><ellipse cx="26" cy="15" fill="#FEFECE" filter="url(#faoehfmat3yox)" rx="8" ry="8" style="stroke:#A80036;stroke-width:2.0;"/><path d="M26,23 L26,50 M13,31 L39,31 M26,50 L13,65 M26,50 L39,65 " fill="none" filter="url(#faoehfmat3yox)" style="stroke:#A80036;stroke-width:2.0;"/><text fill="#000000" font-family="sans-serif" font-size="14" lengthAdjust="spacing" textLength="36" x="5" y="244.5488">Client</text><ellipse cx="26" cy="257.625" fill="#FEFECE" filter="url(#faoehfmat3yox)" rx="8" ry="8" style="stroke:#A80036;stroke-width:2.0;"/><path d="M26,265.625 L26,292.625 M13,273.625 L39,273.625 M26,292.625 L13,307.625 M26,292.625 L39,307.625 " fill="none" filter="url(#faoehfmat3yox)" style="stroke:#A80036;stroke-width:2.0;"/><rect fill="#FEFECE" filter="url(#faoehfmat3yox)" height="31.6094" style="stroke:#A80036;stroke-width:1.5;" width="64" x="426" y="53"/><text fill="#000000" font-family="sans-serif" font-size="14" lengthAdjust="spacing" textLength="50" x="433" y="74.5332">:System</text><rect fill="#FEFECE" filter="url(#faoehfmat3yox)" height="31.6094" style="stroke:#A80036;stroke-width:1.5;" width="64" x="426" y="230.0156"/><text fill="#000000" font-family="sans-serif" font-size="14" lengthAdjust="spacing" textLength="50" x="433" y="251.5488">:System</text><rect fill="#FFFFFF" filter="url(#faoehfmat3yox)" height="122.4063" style="stroke:#A80036;stroke-width:1.0;" width="10" x="21" y="99.6094"/><rect fill="#FFFFFF" filter="url(#faoehfmat3yox)" height="30.3516" style="stroke:#A80036;stroke-width:1.0;" width="10" x="455" y="121.9609"/><rect fill="#FFFFFF" filter="url(#faoehfmat3yox)" height="30.3516" style="stroke:#A80036;stroke-width:1.0;" width="10" x="455" y="182.6641"/><polygon fill="#A80036" points="443,117.9609,453,121.9609,443,125.9609,447,121.9609" style="stroke:#A80036;stroke-width:1.0;"/><line style="stroke:#A80036;stroke-width:1.0;" x1="31" x2="449" y1="121.9609" y2="121.9609"/><text fill="#000000" font-family="sans-serif" font-size="13" font-weight="bold" lengthAdjust="spacing" textLength="7" x="38" y="117.1045">1</text><text fill="#000000" font-family="sans-serif" font-size="13" lengthAdjust="spacing" textLength="381" x="49" y="117.1045">inicia o processo de adicionar um produto ao carrinho de compras</text><polygon fill="#A80036" points="42,148.3125,32,152.3125,42,156.3125,38,152.3125" style="stroke:#A80036;stroke-width:1.0;"/><line style="stroke:#A80036;stroke-width:1.0;stroke-dasharray:2.0,2.0;" x1="36" x2="459" y1="152.3125" y2="152.3125"/><text fill="#000000" font-family="sans-serif" font-size="13" font-weight="bold" lengthAdjust="spacing" textLength="7" x="48" y="147.4561">2</text><text fill="#000000" font-family="sans-serif" font-size="13" lengthAdjust="spacing" textLength="389" x="59" y="147.4561">mostra o catálogo de produtos e solicita o id do produto a adicionar</text><polygon fill="#A80036" points="443,178.6641,453,182.6641,443,186.6641,447,182.6641" style="stroke:#A80036;stroke-width:1.0;"/><line style="stroke:#A80036;stroke-width:1.0;" x1="31" x2="449" y1="182.6641" y2="182.6641"/><text fill="#000000" font-family="sans-serif" font-size="13" font-weight="bold" lengthAdjust="spacing" textLength="7" x="38" y="177.8076">3</text><text fill="#000000" font-family="sans-serif" font-size="13" lengthAdjust="spacing" textLength="125" x="49" y="177.8076">introduz id do produto</text><polygon fill="#A80036" points="42,209.0156,32,213.0156,42,217.0156,38,213.0156" style="stroke:#A80036;stroke-width:1.0;"/><line style="stroke:#A80036;stroke-width:1.0;stroke-dasharray:2.0,2.0;" x1="36" x2="459" y1="213.0156" y2="213.0156"/><text fill="#000000" font-family="sans-serif" font-size="13" font-weight="bold" lengthAdjust="spacing" textLength="7" x="48" y="208.1592">4</text><text fill="#000000" font-family="sans-serif" font-size="13" lengthAdjust="spacing" textLength="170" x="59" y="208.1592">informa sucesso da operação</text><!--MD5=[48fbb5a2319e30c6891e0c420afe899a]
@startuml

autonumber
actor "Client" as C

activate C
C -> ":System" : inicia o processo de adicionar um produto ao carrinho de compras
activate ":System"
":System" - -> C : mostra o catálogo de produtos e solicita o id do produto a adicionar
deactivate ":System"
C -> ":System" : introduz id do produto
activate ":System"
":System" - -> C : informa sucesso da operação
deactivate ":System"





@enduml

PlantUML version 1.2021.4(Sun Apr 04 09:49:39 BST 2021)
(GPL source distribution)
Java Runtime: OpenJDK Runtime Environment
JVM: OpenJDK 64-Bit Server VM
Default Encoding: Cp1252
Language: pt
Country: PT
--></g></svg>